<?xml version="1.0" standalone="no"?>
<!DOCTYPE svg PUBLIC "-//W3C//DTD SVG 1.1//EN" "http://www.w3.org/Graphics/SVG/1.1/DTD/svg11.dtd" >
<svg>
<metadata>
Created by FontForge 20090914 at Tue Dec 11 15:24:46 2012
 By www-data
WeGraphics.net
</metadata>
<defs>
<font id="WGHandyIcons" horiz-adv-x="880" >
  <font-face 
    font-family="WG Handy Icons"
    font-weight="500"
    font-stretch="normal"
    units-per-em="1000"
    panose-1="2 0 6 3 0 0 0 0 0 0"
    ascent="800"
    descent="-200"
    x-height="414"
    cap-height="767.498"
    bbox="3.09469 -107.571 950.583 788.061"
    underline-thickness="50"
    underline-position="-100"
    unicode-range="U+0020-U+3000"
  />
<missing-glyph horiz-adv-x="364" 
d="M66 33h199v600h-199v-600zM33 0v666h265v-666h-265z" />
    <glyph glyph-name=".notdef" horiz-adv-x="364" 
d="M66 33h199v600h-199v-600zM33 0v666h265v-666h-265z" />
    <glyph glyph-name="space" unicode=" " horiz-adv-x="882" 
d="M654 648c16.667 -0.666992 29.667 -7.66602 39 -20.999c25.333 -36.667 45.5 -77 60.5 -121s24.5 -89.167 28.5 -135.5s-0.666992 -93.166 -14 -140.499c-14 -46.667 -36.667 -89 -68 -127c-32.667 -38.667 -73.334 -67.667 -122.001 -87
c-48.667 -20 -98 -29.333 -148 -28s-98.833 13.666 -146.5 36.999s-86.167 55.666 -115.5 96.999c-36.667 53.333 -58 115.833 -64 187.5s4.66699 141.167 32 208.5s68 120 122 158c20 14 43.333 24.5 70 31.5s48.834 10.833 66.501 11.5s39.167 0.666992 64.5 0
c54 -2 95.333 -9.66699 124 -23c19.333 -8.66699 43 -24.667 71 -48zM623 543.001l-17 15l-19 15l-15 13l-17 12c-4.66699 3.33301 -9.33398 6 -14.001 8c-15.333 7.33301 -44 11.666 -86 12.999c-34 1.33301 -61.667 0.333008 -83 -3s-40 -10.666 -56 -21.999
c-38.667 -27.333 -68 -66.166 -88 -116.499s-28.167 -102.833 -24.5 -157.5s19.167 -101.334 46.5 -140.001c26 -38 62.833 -64.5 110.5 -79.5s96 -16.5 145 -4.5s88.5 35.667 118.5 71c26 32 43.333 69.833 52 113.5s8.83398 87.5 0.500977 131.5s-23.5 85.667 -45.5 125z
M267 310.001l53 36.001c12 8 28.333 17.333 49 28s39.667 18.667 57 24c64.667 19.333 130.334 10.666 197.001 -26.001c12 -6.66699 20 -16.667 24 -30s2.66699 -26 -4 -38s-16.667 -20 -30 -24s-26 -2.66699 -38 4c-42.667 23.333 -82.667 29.333 -120 18
c-28 -8 -71.333 -32.667 -130 -74c-12 -8 -24.667 -10.833 -38 -8.5s-24 9.33301 -32 21s-10.833 24.167 -8.5 37.5s9.16602 24 20.499 32zM385 510.002c10 -9.33301 15 -21 15 -35s-4.83301 -25.833 -14.5 -35.5s-21.5 -14.5 -35.5 -14.5s-25.833 4.83301 -35.5 14.5
s-14.5 21.5 -14.5 35.5s4.83301 25.833 14.5 35.5s21.5 14.5 35.5 14.5s25.667 -5 35 -15zM545 535.002c10 -9.33301 15 -21 15 -35s-4.83301 -25.833 -14.5 -35.5s-21.5 -14.5 -35.5 -14.5s-25.833 4.83301 -35.5 14.5s-14.5 21.5 -14.5 35.5s4.83301 25.833 14.5 35.5
s21.5 14.5 35.5 14.5s25.667 -5 35 -15z" />
    <glyph glyph-name="exclam" unicode="!" horiz-adv-x="858" 
d="M464 674c12 -122 20.3301 -229.332 24.9971 -321.999c0.666992 -13.333 -3.66602 -25.166 -12.999 -35.499s-20.833 -15.833 -34.5 -16.5s-25.667 3.66602 -36 12.999s-15.833 21 -16.5 35c-4 84 -12.333 189.333 -25 316c-1.33301 13.333 2.33398 25.5 11.001 36.5
s19.834 17.167 33.501 18.5s26 -2.33398 37 -11.001s17.167 -20 18.5 -34zM288.997 487.001c-60 -17.333 -99.999 -44.3369 -119.999 -81.0039c-16.667 -31.333 -18.334 -67.333 -5.00098 -108c14.667 -42.667 42.5 -81.834 83.5 -117.501s87.167 -58.5 138.5 -68.5
c58 -10.667 109.667 -3.16699 155 22.5s78.333 62.167 99 109.5c12 30.667 18.333 61.334 19 92.001s-7.5 61.334 -24.5 92.001s-41.833 56.667 -74.5 78c-12 7.33301 -19.333 17.833 -22 31.5s-0.333984 26.334 6.99902 38.001s17.833 18.834 31.5 21.501
s26.167 0.333984 37.5 -6.99902c36 -23.333 65.667 -51 89 -83s39 -65 47 -99s10.5 -68.5 7.5 -103.5s-11.833 -68.833 -26.5 -101.5c-29.333 -67.333 -77 -119.666 -143 -156.999c-65.333 -37.333 -138.666 -48 -219.999 -32c-69.333 13.333 -131.5 43.666 -186.5 90.999
s-92.5 101.333 -112.5 162c-22.667 68 -18.667 130 12 186c33.333 60.667 93.333 104 180 130c13.333 4 26 2.66699 38 -4s20 -16.667 24 -30s2.66699 -26 -4 -38s-16.667 -20 -30 -24z" />
    <glyph glyph-name="quotedbl" unicode="&#x22;" horiz-adv-x="875" 
d="M695 590c32.667 -40.667 55 -80.999 67 -120.999c19.333 -64.667 20 -139.334 2 -224.001c-20.667 -96 -58.667 -163.667 -114 -203c-57.333 -40 -139.666 -56 -246.999 -48c-88 6.66699 -164.667 43 -230 109c-30 30.667 -52.167 66.334 -66.5 107.001
s-21.166 81.334 -20.499 122.001c1.33301 40 8.66602 80 21.999 120c20 60.667 52 114.667 96 162c43.333 46.667 94 78.334 152 95.001c21.333 6 42.166 9.66699 62.499 11s40.5 -0.333984 60.5 -5.00098s37.5 -9.33398 52.5 -14.001s32.5 -12.5 52.5 -23.5
s35 -19.5 45 -25.5l43 -27c13.333 -8.66699 21 -20.334 23 -35.001zM476 373.001c58.667 -66.667 115.669 -123.332 171.002 -169.999c8 19.333 14.333 40 19 62c14.667 68.667 14.667 127.334 0 176.001c-6 19.333 -14.833 37.666 -26.5 54.999
s-27.834 37.666 -48.501 60.999c-1.33301 0.666992 -2.33301 1.66699 -3 3c-44.667 27.333 -81.334 45 -110.001 53c0 -26.667 -0.666992 -106.667 -2 -240zM475.002 227.003v-135c48 1.33301 86 11.333 114 30c-38.667 32 -76.667 67 -114 105zM375.002 241.003l-103 -79
l-10 -6c34 -29.333 71.667 -48.333 113 -57c-0.666992 42.667 -0.666992 90 0 142zM376.002 365.003c1.33301 142.667 1.99902 224.667 1.99902 246c-39.333 -12 -74.5 -35.167 -105.5 -69.5s-54.167 -74.5 -69.5 -120.5c-22 -68.667 -21.667 -130.667 1 -186
c2.66699 2.66699 5.33398 5 8.00098 7c12 8.66699 29 21.667 51 39l61 47z" />
    <glyph glyph-name="numbersign" unicode="#" horiz-adv-x="896" 
d="M628 167c13.333 11.333 25.001 24.002 35.001 38.002c16.667 24.667 27 56.167 31 94.5s2.66699 76.666 -4 114.999s-17 75.5 -31 111.5c-79.333 71.333 -154.666 101.666 -225.999 90.999c-26 -4.66699 -51.333 -15 -76 -31c9.33301 -17.333 20 -34.5 32 -51.5
s27.167 -37.333 45.5 -61s32.166 -42.5 41.499 -56.5c21.333 -28.667 46.666 -67.667 75.999 -117l69 -115c4 -6 6.33301 -12 7 -18zM547.001 120.002c-4 3.33301 -7.33203 7.00195 -9.99902 11.002l-71 118c-27.333 45.333 -50.666 82 -69.999 110l-36 46l-42 57
c-13.333 18 -25.333 35.667 -36 53c-16 -21.333 -29.667 -45 -41 -71c-20 -45.333 -29.667 -91 -29 -137c1.33301 -46 13.333 -84.667 36 -116c21.333 -28.667 49.166 -50.834 83.499 -66.501s69.666 -23.334 105.999 -23.001s72.833 6.5 109.5 18.5zM771.002 508.004
c11.333 -40.667 19.166 -80.833 23.499 -120.5s2.83301 -81.5 -4.5 -125.5c-8 -43.333 -23 -81 -45 -113c-30 -44 -71 -79 -123 -105c-52 -25.333 -105.333 -39.5 -160 -42.5s-109 6.5 -163 28.5s-97.667 55.667 -131 101c-24.667 33.333 -41 71 -49 113
s-9.16699 83 -3.5 123s17.167 79 34.5 117c26 59.333 62.333 110.5 109 153.5s99.334 68.833 158.001 77.5c96.667 15.333 194 -18 292 -100c15.333 -4 26.333 -13.333 33 -28l1 -2l19 -19c7.33301 -8 11.833 -17.333 13.5 -28s0.166992 -20.667 -4.5 -30z" />
    <glyph glyph-name="dollar" unicode="$" horiz-adv-x="870" 
d="M365 570c34.667 -36 82 -80.002 142 -132.002c94.667 -82 148 -128.667 160 -140c-1.33301 126.667 -2 212.334 -2 257.001c0 2.66699 0.333008 6 1 10c-4.66699 0 -10 0.333008 -16 1c-11.333 0 -56.333 0.666992 -135 2c-47.333 0.666992 -97.333 1.33398 -150 2.00098
zM289 669.998c44 0 119.669 -0.668945 227.002 -2.00195c59.333 -0.666992 105 -1.66699 137 -3c19.333 0 34.666 -0.333008 45.999 -1c6 -0.666992 11 -1 15 -1c2.66699 -0.666992 5.33398 -1 8.00098 -1c2 -0.666992 4.33301 -1.33398 7 -2.00098
c8 -2 15.333 -6.66699 22 -14c16 -17.333 22 -39.666 18 -66.999c-0.666992 -4.66699 -1.33398 -8.66699 -2.00098 -12s-1.16699 -5.33301 -1.5 -6s-0.5 -1.66699 -0.5 -3v-3c0 -44 0.5 -108.333 1.5 -193s1.5 -131.667 1.5 -141c0 -12 -4 -22.667 -12 -32s-18 -15 -30 -17
l-1 -2c-10 -9.33301 -21.833 -14 -35.5 -14s-25.5 5 -35.5 15c-12.667 13.333 -26 26.333 -40 39l-44 42l-40 34l-46 40l-42 37c-94 80.667 -165.333 150.334 -214 209.001c-8.66699 10.667 -12.334 22.834 -11.001 36.501s7.33301 25.167 18 34.5
c4.66699 3.33301 9.66699 6 15 8c10 12.667 23 19 39 19z" />
    <glyph glyph-name="percent" unicode="%" horiz-adv-x="702" 
d="M470 597c-67.333 -5.33301 -169.668 -7.66602 -307.001 -6.99902c0 -30.667 0.333008 -63.334 1 -98.001s1.33398 -73 2.00098 -115s1 -74.667 1 -98c106 96 207 202 303 318zM103.998 690l77.999 0.000976562h85c18 0 42.667 0.333008 74 1s59.833 1.66699 85.5 3
s51.167 3.33301 76.5 6c11.333 0.666992 21.833 -2 31.5 -8s16.5 -14 20.5 -24c10.667 -0.666992 20 -4.33398 28 -11.001c10.667 -8.66699 16.834 -19.834 18.501 -33.501s-1.83301 -25.834 -10.5 -36.501c-139.333 -172.667 -284 -322.667 -434 -450
c-10 -9.33301 -22 -13.333 -36 -12s-25.333 7.33301 -34 18c-8.66699 10 -12.667 21.667 -12 35c-4.66699 8 -7 16.667 -7 26c0 38.667 -0.833008 103.834 -2.5 195.501s-2.16699 162.167 -1.5 211.5c-6.66699 8.66699 -10 18.334 -10 29.001c0 14 4.83301 25.833 14.5 35.5
s21.5 14.5 35.5 14.5z" />
    <glyph glyph-name="ampersand" unicode="&#x26;" horiz-adv-x="910" 
d="M485 328c0.666992 4 1.00098 7.33008 1.00098 9.99707v4c0 1.33301 -0.333008 3.83301 -1 7.5s-1.33398 9.16699 -2.00098 16.5c-1.33301 8.66699 -1.33301 17 0 25c-36 20.667 -63.333 27.334 -82 20.001c-10 -3.33301 -20.667 -10.333 -32 -21s-21 -22.667 -29 -36
c-15.333 -26 -18.333 -46.667 -9 -62s28.333 -23.666 57 -24.999c31.333 -1.33301 56.333 5 75 19c0.666992 0.666992 2 2.66699 4 6l7 13c4 6.66699 7.66699 14.334 11 23.001zM584.001 431.997c3.33301 -3.33301 6.33301 -6.99805 9 -10.998
c7.33301 -11.333 10.333 -25.333 9 -42c-0.666992 -16 -5 -36.333 -13 -61l-6 -16l-2 -14c-2 -16.667 -3 -30 -3 -40c0 -18.667 2.66699 -29.334 8 -32.001c17.333 -9.33301 39.333 2.33398 66 35.001c14 18 26.167 38.167 36.5 60.5s16.833 40.833 19.5 55.5
c12 78 -12.667 139.667 -74 185c-57.333 42.667 -131 64.667 -221 66c-27.333 1.33301 -46.833 1.33301 -58.5 0s-26.5 -6.33301 -44.5 -15c-44.667 -22 -81.334 -57 -110.001 -105c-34.667 -61.333 -49.667 -120.833 -45 -178.5s26.834 -110.334 66.501 -158.001
s91.834 -84.167 156.501 -109.5c46.667 -19.333 88 -28.333 124 -27s73.333 14.333 112 39c11.333 7.33301 23.833 9.5 37.5 6.5s24.167 -10.167 31.5 -21.5s9.5 -23.833 6.5 -37.5s-10.167 -24.167 -21.5 -31.5c-36.667 -23.333 -73 -39.166 -109 -47.499
s-71 -10.166 -105 -5.49902s-71.333 15 -112 31c-80 32 -145.833 79 -197.5 141s-81.5 131.667 -89.5 209s11.667 158 59 242c38.667 64 89.334 111.667 152.001 143c11.333 5.33301 21.333 9.66602 30 12.999l24.5 8c6.33301 2 14.5 3.33301 24.5 4s16.667 1 20 1
s11.666 -0.166992 24.999 -0.5s21.666 -0.5 24.999 -0.5c50.667 -0.666992 100.5 -8.16699 149.5 -22.5s92.167 -35.5 129.5 -63.5c42.667 -32 74.334 -71.667 95.001 -119s26.334 -101.333 17.001 -162c-3.33301 -23.333 -12 -50.333 -26 -81c-14 -30 -30.667 -57 -50 -81
c-10.667 -13.333 -22.334 -25.333 -35.001 -36s-27.167 -20.334 -43.5 -29.001s-34.5 -12.667 -54.5 -12c-20 0 -39.667 5.33301 -59 16c-23.333 12.667 -40 32 -50 58c-32.667 -14.667 -67.667 -21 -105 -19c-64 3.33301 -110 27.666 -138 72.999
c-10.667 18 -16.834 37.333 -18.501 58s0 39.5 5 56.5s12.167 33.5 21.5 49.5c13.333 22.667 30 43.167 50 61.5s40.667 31.5 62 39.5c16 6 32.667 9 50 9s32 -1.33301 44 -4s26.333 -8 43 -16s27.667 -13.667 33 -17l28 -18c10 -6.66699 17 -15.667 21 -27z" />
    <glyph glyph-name="quotesingle" unicode="'" horiz-adv-x="974" 
d="M191 424c-4.66699 96.667 19.6699 174.669 73.0029 234.002c58 64 137 91.667 237 83c88 -8 155.333 -41 202 -99c21.333 -26.667 36.666 -54 45.999 -82s17 -61.667 23 -101c2 -11.333 0.333008 -22 -5 -32c17.333 -10 25.666 -25 24.999 -45c0 -6 -0.333008 -12 -1 -18
c10 8 21.333 12 34 12c14 0 25.667 -5 35 -15s14 -22 14 -36c-1.33301 -94 -2.33301 -161.333 -3 -202c0 -13.333 -5 -24.833 -15 -34.5s-22 -14.5 -36 -14.5c-10 0 -19 3 -27 9v-10c0.666992 -14 -3.66602 -26 -12.999 -36s-21 -15.333 -35 -16s-26 3.66602 -36 12.999
s-15.333 21 -16 35c-4.66699 116 -5 221.667 -1 317c0.666992 8 2.66699 15.333 6 22c-14 8 -22 19.667 -24 35c-5.33301 34 -11.333 60.833 -18 80.5s-17 38.5 -31 56.5c-28.667 35.333 -72.667 55.666 -132 60.999c-68 6 -119.667 -10.667 -155 -50
c-34.667 -38 -50.334 -92.333 -47.001 -163c0.666992 -14 -4 -26.333 -14 -37c2.66699 -6 4 -12.333 4 -19c0.666992 -40 1 -138 1 -294c0 -14 -4.83301 -25.833 -14.5 -35.5s-21.5 -14.5 -35.5 -14.5s-25.833 4.83301 -35.5 14.5s-14.5 21.5 -14.5 35.5v8
c-10 -16 -24.333 -24 -43 -24c-14 0 -25.833 4.83301 -35.5 14.5s-14.5 21.5 -14.5 35.5c0 102.667 0.333008 174 1 214c0 14 5 25.667 15 35s22 14 36 14c17.333 0 30.666 -7.33301 39.999 -22v17c0 14 4.66699 26 14 36c-2 5.33301 -3.33301 11.333 -4 18z" />
    <glyph glyph-name="parenleft" unicode="(" horiz-adv-x="820" 
d="M442 243c-34 -18.667 -70 -29.998 -108 -33.998s-76.5 2 -115.5 18s-72.5 42.667 -100.5 80c-38 54.667 -54.5 114.667 -49.5 180s27.5 121 67.5 167c46 52.667 102 77 168 73c54 -2.66699 107.667 -25.334 161 -68.001c15.333 -0.666992 27.666 -6.66699 36.999 -18
c33.333 -39.333 55.166 -80 65.499 -122s10.833 -80.5 1.5 -115.5s-26 -67.167 -50 -96.5c47.333 -54 111.333 -137.667 192 -251c8 -11.333 10.833 -23.833 8.5 -37.5s-9.16602 -24.5 -20.499 -32.5s-23.833 -10.833 -37.5 -8.5s-24.5 9.16602 -32.5 20.499
c-79.333 112 -141.666 193.667 -186.999 245zM442 545.002c-51.333 52.667 -99.001 80.335 -143.001 83.002c-34 1.33301 -63 -12 -87 -40c-26 -29.333 -40.5 -65.5 -43.5 -108.5s6.83301 -80.5 29.5 -112.5c18 -24 40 -40.667 66 -50s52 -11.333 78 -6
s50.333 16.666 73 33.999c18.667 14 33.334 30.333 44.001 49s16 40.667 16 66s-7 50.666 -21 75.999c-4.66699 2.66699 -8.66699 5.66699 -12 9zM251.999 533.003h108c14 0 25.833 -4.83301 35.5 -14.5s14.5 -21.5 14.5 -35.5s-4.83301 -25.833 -14.5 -35.5
s-21.5 -14.5 -35.5 -14.5h-108c-14 0 -25.833 4.83301 -35.5 14.5s-14.5 21.5 -14.5 35.5s4.83301 25.833 14.5 35.5s21.5 14.5 35.5 14.5z" />
    <glyph glyph-name="parenright" unicode=")" horiz-adv-x="809" 
d="M469 586l-66 -90.999l-65 -94l149 10l91 7l-66 107c-16.667 25.333 -31 45.666 -43 60.999zM212 394.001c11.333 18 47.6699 70.6689 109.003 158.002l67 93l23 31c3.33301 4.66699 6 8 8 10c2 2.66699 3.66699 4.66699 5 6c2 1.33301 3.66699 3 5 5
c7.33301 6 16.666 9.33301 27.999 10c17.333 1.33301 34.666 -5 51.999 -19c8.66699 -6.66699 18.667 -16.334 30 -29.001c16 -19.333 35 -45.666 57 -78.999c30.667 -46.667 58 -92.334 82 -137.001c0.666992 -0.666992 1 -1.16699 1 -1.5s0.333008 -0.666016 1 -0.999023
s2 -1.83301 4 -4.5l8 -9c22.667 -29.333 24.334 -57 5.00098 -83c-3.33301 -4 -6.83301 -7.5 -10.5 -10.5s-6.83398 -4.83301 -9.50098 -5.5l-3 -1l-6 -2c-1.33301 0 -3 -0.333008 -5 -1h-4c-3.33301 -0.666992 -7.33301 -1 -12 -1
c-8.66699 -1.33301 -21.334 -2.33301 -38.001 -3c-30 -2.66699 -68.333 -5.66699 -115 -9c-107.333 -7.33301 -171.333 -11.333 -192 -12c-17.333 -0.666992 -31 5.66602 -41 18.999c-11.333 -1.33301 -22 1 -32 7c-12 7.33301 -19.5 17.666 -22.5 30.999
s-1.16699 26 5.5 38z" />
    <glyph glyph-name="asterisk" unicode="*" horiz-adv-x="776" 
d="M322 528l124.001 -162l71 80c20 24 35.333 44 46 60l10 15h-5c-8.66699 1.33301 -20.334 2.33301 -35.001 3c-24 2 -58 3 -102 3c-14.667 0.666992 -35 1 -61 1h-48zM250.001 630c11.333 -1.33301 35.3311 -2 71.998 -2h48c26.667 0 47.334 -0.333008 62.001 -1
c45.333 0 81.333 -1 108 -3c16.667 -0.666992 30.667 -2 42 -4c16.667 -2.66699 29.667 -6.33398 39 -11.001c14 -8 26.5 -19.5 37.5 -34.5s16.833 -31.833 17.5 -50.5c0 -12.667 -3.66699 -26.667 -11 -42c-4 -9.33301 -10.333 -20 -19 -32
c-12.667 -18.667 -30.334 -41.334 -53.001 -68.001c-6 -8 -38 -44 -96 -108c-6.66699 -8 -15 -13 -25 -15c-0.666992 -1.33301 -1.66699 -2.33301 -3 -3c-11.333 -8.66699 -23.833 -12.167 -37.5 -10.5s-24.5 7.83398 -32.5 18.501l-218 283
c-8 11.333 -11.167 23.833 -9.5 37.5s7.83398 24.834 18.501 33.501c12 8.66699 25.333 11.667 40 9c6.66699 2.66699 13.334 3.66699 20.001 3z" />
    <glyph glyph-name="plus" unicode="+" horiz-adv-x="708" 
d="M268 661c-0.666992 2.66699 -1 5.33203 -1 7.99902c-0.666992 14 3.5 26.167 12.5 36.5s20.5 15.833 34.5 16.5c10.667 0.666992 20.5 -1.83301 29.5 -7.5s15.5 -13.167 19.5 -22.5h69c31.333 0 55.666 -0.333008 72.999 -1h25c3.33301 -0.666992 6.33301 -1 9 -1h5
c1.33301 -0.666992 3 -1 5 -1c5.33301 -1.33301 11 -4 17 -8c26 -17.333 40 -48 42 -92c0.666992 -8 -1 -20 -5 -36c-2 -8.66699 -5.66699 -23 -11 -43c-9.33301 -34 -20.666 -72 -33.999 -114c-14.667 -45.333 -27.334 -81.666 -38.001 -108.999
c-6 -16.667 -11.333 -30 -16 -40c-2.66699 -6 -5.33398 -11.333 -8.00098 -16c-5.33301 -9.33301 -11.666 -16.333 -18.999 -21c-14.667 -10.667 -32 -16.167 -52 -16.5s-36.333 3.16699 -49 10.5c-30 14 -52.667 47.333 -68 100c-10.667 33.333 -19 78 -25 134
c-5.33301 48.667 -9.66602 109 -12.999 181c-4 7.33301 -6 15.333 -6 24c0 6 1.33301 12 4 18zM508 590.998l-4.00098 0.000976562c-17.333 0.666992 -41.333 1 -72 1h-61c2.66699 -54.667 6.33398 -102.334 11.001 -143.001c6 -49.333 13.333 -88.333 22 -117
c4 -14.667 8.33301 -26 13 -34c2.66699 6 6 14 10 24c9.33301 24 21.333 59 36 105c14.667 44.667 25.667 81 33 109l10 39c0 2 0.333008 4 1 6s1 3.66699 1 5v1v4zM361.999 54.999l-3.99805 -6c0 -4.66699 3.66699 -10.667 11 -18c9.33301 -10.667 21.333 -19.5 36 -26.5
s27.334 -10.833 38.001 -11.5c10 -0.666992 18.333 -0.333984 25 0.999023s11.5 2.83301 14.5 4.5s5.16699 3.83398 6.5 6.50098s2 4.66699 2 6v3c0 2 -0.833008 4.5 -2.5 7.5s-4.66699 6.83301 -9 11.5s-9.83301 8.83398 -16.5 12.501s-16 7 -28 10
s-25.333 4.83301 -40 5.5c-2.66699 -0.666992 -5.83398 -1.33398 -9.50098 -2.00098s-6.83398 -1.16699 -9.50098 -1.5s-5.33398 -0.833008 -8.00098 -1.5h-3c-1.33301 -0.666992 -2.33301 -1 -3 -1zM386.001 159.999c4 0.666992 8.00293 0.998047 12.0029 0.998047
c52.667 -2 96.667 -15.333 132 -40s55.333 -56 60 -94c5.33301 -40.667 -7.33398 -74 -38.001 -100c-30 -26 -68.333 -37.333 -115 -34c-24.667 2 -49.834 9.33301 -75.501 22s-47.5 28.334 -65.5 47.001c-22.667 24 -35.334 49.667 -38.001 77
c-3.33301 35.333 9.33398 66 38.001 92c12.667 11.333 29.667 19 51 23c4.66699 0.666992 8.66699 1.33398 12 2.00098s5.66602 1 6.99902 1s3 0.333008 5 1c4.66699 1.33301 9.66699 2 15 2z" />
    <glyph glyph-name="comma" unicode="," horiz-adv-x="753" 
d="M553 538l-13.999 -10l-224 -159c19.333 -17.333 45 -39 77 -65c60.667 -47.333 100 -79 118 -95l3 -3l3 -2l4 -4v8c0 1.33301 3.5 30.5 10.5 87.5s12.167 105.333 15.5 145s5.66602 72.167 6.99902 97.5zM224.001 428l257.003 182.001c21.333 14.667 35.333 24.667 42 30
l8 15c7.33301 10 15 17.667 23 23c19.333 12.667 39.333 14 60 4c13.333 -6.66699 23 -17.667 29 -33c3.33301 -6.66699 5.66602 -15 6.99902 -25c2.66699 -13.333 4 -31 4 -53c0 -34.667 -2.66699 -81.334 -8 -140.001c-4 -39.333 -9.33301 -87.666 -16 -144.999
s-10 -86.666 -10 -87.999c-1.33301 -8.66699 -2.33301 -28.667 -3 -60c-0.666992 -14 -1.33398 -23.667 -2.00098 -29c0 -4.66699 -0.333008 -8.33398 -1 -11.001c0 -2 -0.333008 -4 -1 -6c0 -2.66699 -0.333008 -5.33398 -1 -8.00098c-1.33301 -3.33301 -3 -6.33301 -5 -9
c-5.33301 -9.33301 -12.666 -16 -21.999 -20c-11.333 -5.33301 -23.333 -6.33301 -36 -3c-4.66699 0.666992 -9.66699 2.33398 -15 5.00098c-5.33301 3.33301 -11.333 7.33301 -18 12c-8.66699 6 -19.667 15.333 -33 28l-29 27l-9 9l-1 2
c-16.667 14.667 -54.334 45 -113.001 91c-52 40.667 -91 75 -117 103c-14.667 15.333 -18.334 32.666 -11.001 51.999c-2 20 5 35.667 21 47z" />
    <glyph glyph-name="hyphen" unicode="-" horiz-adv-x="754" 
d="M545 326l-190 198c2.66699 -133.333 0.666992 -239.333 -6 -318l-3 -27l59 41zM340 684l300.997 -313.002c9.33301 -10 14 -21.833 14 -35.5s-5 -25.5 -15 -35.5c-1.33301 -0.666992 -2.33301 -1.33398 -3 -2.00098c0.666992 -17.333 -5.66602 -31.333 -18.999 -42
c-42.667 -34.667 -94.334 -73.667 -155.001 -117c-41.333 -29.333 -73 -51 -95 -65c-15.333 -9.33301 -28 -16.333 -38 -21c-7.33301 -3.33301 -14 -6 -20 -8c-15.333 -3.33301 -29.333 -1.66602 -42 5.00098c-12 6.66699 -20 16.334 -24 29.001
c-1.33301 4.66699 -2.33301 9.16699 -3 13.5s-1 9.83301 -1 16.5c0 8 0.666992 19.667 2 35c0.666992 10 2 22 4 36c1.33301 16.667 2.33301 28 3 34c2 22 3.5 45.167 4.5 69.5s1.83301 46 2.5 65s0.833984 43 0.500977 72s-0.666016 50.833 -0.999023 65.5
s-0.833008 39 -1.5 73s-1 56.667 -1 68c0 4.66699 0.666992 9.33398 2 14.001c-3.33301 17.333 1.33398 32 14.001 44c10 9.33301 21.833 14 35.5 14s25.5 -5 35.5 -15z" />
    <glyph glyph-name="period" unicode="." horiz-adv-x="924" 
d="M706 547c-8.66699 2.66699 -20 4.33203 -34 4.99902c-11.333 0 -25.666 -0.333008 -42.999 -1c-22 -1.33301 -35.333 -2 -40 -2c-30.667 0 -84.334 1.66699 -161.001 5s-135.334 4 -176.001 2c0 -9.33301 0.166992 -33.666 0.5 -72.999s-0.166992 -72.5 -1.5 -99.5
s-4 -53.167 -8 -78.5c0 -3.33301 -1 -7.33301 -3 -12c1.33301 0 2.66602 -0.333008 3.99902 -1c4 0 21.333 -0.666992 52 -2c74.667 -2.66699 167.334 -5 278.001 -7c8.66699 0 23.167 -1 43.5 -3s32.833 -3 37.5 -3c28.667 -2 48.667 -1.33301 60 2
c4 1.33301 7.33301 2.33301 10 3v4c0 12 -0.666992 27.667 -2 47c-1.33301 29.333 -3.33301 56 -6 80c0 3.33301 -0.666992 14.833 -2 34.5s-2.66602 35.834 -3.99902 48.501c-1.33301 19.333 -3 34.666 -5 45.999v5zM459 184.998
c-60.667 1.33301 -116.338 2.99902 -167.005 4.99902c-33.333 1.33301 -53 2.33301 -59 3c-17.333 2 -32 5 -44 9c-22 7.33301 -37.667 19.333 -47 36c-11.333 18.667 -12.666 40.667 -3.99902 66c1.33301 4 2.66602 7.33301 3.99902 10c0.666992 2 1.16699 3.33301 1.5 4
s0.5 1.16699 0.5 1.5s0.333008 0.833008 1 1.5c3.33301 24 5.5 50.667 6.5 80s1.16699 56.5 0.5 81.5s-0.333984 54.167 0.999023 87.5c-6 7.33301 -9.66699 15.666 -11 24.999c-1.33301 14 2.33398 26.333 11.001 37s19.667 17 33 19
c58.667 4.66699 104.334 6.83398 137.001 6.50098s78.334 -1.83301 137.001 -4.5s101.667 -4 129 -4c2.66699 0 14 0.666992 34 2c20.667 0.666992 38 1 52 1c56 -2 94.667 -18 116 -48c4.66699 -7.33301 8.33398 -16.666 11.001 -27.999
c1.33301 -5.33301 2.33301 -12.333 3 -21c2 -12.667 4 -29.334 6 -50.001c0.666992 -13.333 1.66699 -29.666 3 -48.999s2.33301 -30.333 3 -33c2 -26 4 -54.333 6 -85c1.33301 -20.667 2 -38 2 -52c0 -8.66699 -0.333008 -16 -1 -22c-1.33301 -12 -4 -21.667 -8 -29
c-12.667 -24 -37 -41.333 -73 -52c-20 -6 -45.667 -8.33301 -77 -7c-1.33301 -4.66699 -3.66602 -9 -6.99902 -13c-25.333 -38 -41.666 -61.333 -48.999 -70c-8 -10 -15.667 -18 -23 -24c-16 -12 -33 -16.333 -51 -13c-17.333 2.66699 -31.333 12.667 -42 30
c-4.66699 7.33301 -9 17 -13 29c-2 4.66699 -9.33301 28 -22 70zM328.996 531.997c70 1.33301 166.667 -3.66602 290 -14.999c13.333 -1.33301 24.5 -7.33301 33.5 -18s12.833 -22.834 11.5 -36.501s-7.33301 -25 -18 -34s-23 -12.833 -37 -11.5
c-119.333 11.333 -212 16.333 -278 15c-14 0 -26 4.66699 -36 14s-15 21 -15 35s4.66699 26 14 36s21 15 35 15zM332.996 417.998c47.333 -5.33301 135.666 -10.3369 264.999 -15.0039c14 -0.666992 25.667 -6 35 -16s13.666 -22 12.999 -36s-6 -25.667 -16 -35
s-22 -13.666 -36 -12.999c-131.333 4.66699 -221.666 9.66699 -270.999 15c-14 2 -25.333 8.33301 -34 19s-12.167 22.834 -10.5 36.501s7.83398 24.834 18.501 33.501s22.667 12.334 36 11.001z" />
    <glyph glyph-name="slash" unicode="/" horiz-adv-x="993" 
d="M448 81c-7.33301 172.667 -12.0039 289.996 -14.0039 351.996c-0.666992 14 3.83301 26 13.5 36s21.334 15.333 35.001 16s25.5 -3.83301 35.5 -13.5s15.333 -21.167 16 -34.5c2 -65.333 6.66699 -177.333 14 -336l19 22c9.33301 10.667 20.833 16.334 34.5 17.001
s25.667 -3.66602 36 -12.999s15.833 -20.833 16.5 -34.5s-3.66602 -25.5 -12.999 -35.5c-20.667 -23.333 -44.334 -52.666 -71.001 -87.999c-10 -13.333 -17.667 -22.666 -23 -27.999c-13.333 -14 -28.333 -21.667 -45 -23c-17.333 -1.33301 -33.666 4.33398 -48.999 17.001
c-5.33301 4.66699 -13.666 12.667 -24.999 24c-27.333 29.333 -52.333 53.666 -75 72.999c-10 9.33301 -15.5 20.833 -16.5 34.5s3 25.667 12 36s20.333 16 34 17s25.834 -2.83301 36.501 -11.5zM310.996 432.996c-30.667 0 -60.3369 -4 -89.0039 -12s-51 -19 -67 -33
c-14.667 -12.667 -22.667 -26.334 -24 -41.001c-1.33301 -21.333 8 -47 28 -77c12.667 -18 39 -27.333 79 -28c16.667 -0.666992 38.334 0.333008 65.001 3c38.667 4.66699 60.334 7 65.001 7c14 0.666992 26.167 -3.5 36.5 -12.5s15.833 -20.5 16.5 -34.5
s-3.5 -26.167 -12.5 -36.5s-20.5 -15.833 -34.5 -16.5c-3.33301 0 -23.666 -2 -60.999 -6c-31.333 -3.33301 -57.333 -4.66602 -78 -3.99902c-74 1.33301 -126.667 25.333 -158 72c-34 49.333 -49 96.333 -45 141c3.33301 42.667 22.666 79 57.999 109
c37.333 31.333 87 52.333 149 63c-3.33301 17.333 -3.66602 32.666 -0.999023 45.999c8 54.667 33.5 98.167 76.5 130.5s90.5 48.5 142.5 48.5c55.333 0 104.333 -18.5 147 -55.5s70 -90.5 82 -160.5c25.333 4 52.333 3.66699 81 -1
c29.333 -4.66699 53.166 -18.5 71.499 -41.5s32.166 -48.833 41.499 -77.5c8 -26 12.333 -52.167 13 -78.5s-4 -51.5 -14 -75.5c-16 -32 -45.333 -61.667 -88 -89c-9.33301 -6 -22.666 -10 -39.999 -12c-9.33301 -1.33301 -21 -2.33301 -35 -3l-52 -1
c-14 0 -26 4.66699 -36 14s-15 21 -15 35s4.66699 26 14 36s21 15 35 15h10c6 0 12.5 0.166992 19.5 0.5s13.833 0.5 20.5 0.5c10.667 0.666992 19.334 1.33398 26.001 2.00098h4c24.667 16 40.334 31.333 47.001 46c2.66699 3.33301 4 13.166 4 29.499s-3 33.166 -9 50.499
c-3.33301 12 -7.66602 22 -12.999 30s-9.5 13.333 -12.5 16s-5.5 4.33398 -7.5 5.00098c-6.66699 0.666992 -12.834 1.33398 -18.501 2.00098s-11.667 0.666992 -18 0s-11.333 -1.16699 -15 -1.5s-9.5 -1.66602 -17.5 -3.99902s-13.333 -4.16602 -16 -5.49902l-20 -6l-22 -7
c-13.333 -4.66699 -26.166 -3.83398 -38.499 2.49902s-20.5 15.833 -24.5 28.5c-4.66699 12.667 -4.16699 25 1.5 37s14.5 20.333 26.5 25c-0.666992 2.66699 -1 5.33398 -1 8.00098c-7.33301 47.333 -23.333 81.833 -48 103.5s-52.334 32.5 -83.001 32.5
c-30 0 -56.667 -8.83301 -80 -26.5s-37 -39.834 -41 -66.501c0 -2.66699 0.666992 -7.33398 2 -14.001c0 -2 0.166992 -3.66699 0.5 -5s0.833008 -3 1.5 -5s1 -3.66699 1 -5l2 -8c12 -10 18 -23 18 -39c0 -14 -4.83301 -25.833 -14.5 -35.5s-21.5 -14.5 -35.5 -14.5z" />
    <glyph glyph-name="zero" unicode="0" horiz-adv-x="894" 
d="M485 596c-0.666992 0 -0.999023 0.331055 -0.999023 0.998047h-34c-26.667 0 -60.667 -1 -102 -3c-58.667 -3.33301 -108.334 -7 -149.001 -11c0 -39.333 0.666992 -82.666 2 -129.999c0.666992 -42 1.66699 -76 3 -102c0.666992 -7.33301 1 -13 1 -17
c6.66699 -0.666992 11.334 -1 14.001 -1c22 -2 55.333 -1.33301 100 2c53.333 4 91.666 5.66699 114.999 5c5.33301 0 12 -0.666992 20 -2c0.666992 0 2.5 -0.333008 5.5 -1s5.5 -1 7.5 -1l7 -1c6 2 11 4 15 6c-2.66699 16 -4 27.333 -4 34v58
c0 3.33301 0.166992 9.33301 0.5 18s0.833008 20 1.5 34s1 25.667 1 35c1.33301 20.667 2 37 2 49c0 5.33301 -0.333008 10.333 -1 15l1 1c-1.33301 4.66699 -3 8.33398 -5 11.001zM290.001 232.998c-30.667 -2 -57.6729 -2.00098 -81.0059 -0.000976562
c-0.666992 0 -4.83398 0.333008 -12.501 1s-14.167 1.33398 -19.5 2.00098c-23.333 3.33301 -41.666 12.666 -54.999 27.999c-3.33301 4 -6 8.33301 -8 13s-3.33301 8.33398 -4 11.001l-1 4c-0.666992 4 -1.33398 9 -2.00098 15c-1.33301 9.33301 -2.33301 22 -3 38
c-1.33301 28 -2.33301 63.333 -3 106c-0.666992 43.333 -1 80.333 -1 111c-0.666992 36.667 -0.666992 58.334 0 65.001c0.666992 13.333 5.83398 24.666 15.501 33.999s20.834 14 33.501 14c4.66699 2 9.33398 3.33301 14.001 4c30.667 5.33301 90.667 10.333 180 15
c42.667 2 78.334 3 107.001 3c16 0 29.667 -0.333008 41 -1c16.667 -1.33301 29.334 -4 38.001 -8c27.333 -13.333 46.333 -38.333 57 -75c2.66699 -8 4 -22.667 4 -44c0 -13.333 -0.666992 -30.666 -2 -51.999v-11c10 8.66699 22 12.667 36 12h11
c2 0 6.33301 0.166992 13 0.5s13.334 0.833008 20.001 1.5c30 1.33301 54.667 -4 74 -16c12 -7.33301 20.333 -18.333 25 -33c2 -6 3.66699 -13 5 -21c1.33301 -10.667 2.33301 -24 3 -40v-24v-22v-10c0 -3.33301 1 -14.333 3 -33l7 -61
c3.33301 -27.333 5.66602 -47 6.99902 -59c0.666992 -8.66699 1.33398 -15.667 2.00098 -21v-8c0.666992 -6 0 -12 -2 -18c-8 -30 -29.333 -53 -64 -69c-7.33301 -2.66699 -18.666 -5.33398 -33.999 -8.00098c-11.333 -2 -25.333 -3.66699 -42 -5
c-31.333 -3.33301 -68 -6.33301 -110 -9c-42.667 -2.66699 -79.667 -4.33398 -111 -5.00098c-16.667 -0.666992 -30.334 -0.666992 -41.001 0c-16 0.666992 -28 2.33398 -36 5.00098c-39.333 14.667 -63.666 37.334 -72.999 68.001c-1.33301 4.66699 -2.5 10.667 -3.5 18
s-1.5 13.666 -1.5 18.999v17v11c-0.666992 14 4 26.333 14 37zM375.995 199.997c0.666992 -10 0.834961 -17.335 0.501953 -22.002s-0.5 -8 -0.5 -10v-6c2 -0.666992 5 -2 9 -4h8c9.33301 -0.666992 21.333 -0.666992 36 0c30 0.666992 65.333 2.33398 106 5.00098
c40.667 2 76.334 4.66699 107.001 8c15.333 2 27.333 3.66699 36 5c2.66699 0 6 0.666992 10 2c2 0.666992 3.66699 1.33398 5 2.00098c0 2.66699 -0.333008 6.33398 -1 11.001c-1.33301 11.333 -3.33301 30.666 -6 57.999l-7 62c-2.66699 21.333 -4 35 -4 41v11v21v23
c0 4.66699 -0.333008 9 -1 13h-2c-35.333 -1.33301 -54 -2 -56 -2c-12 0.666992 -22.333 5.33398 -31 14.001v-57c0 -2 0.166992 -3.5 0.5 -4.5s0.666016 -3.16699 0.999023 -6.5s0.833008 -7.33301 1.5 -12c2.66699 -22 -0.333008 -41 -9 -57
c-14.667 -26.667 -40.334 -45.334 -77.001 -56.001c-14 -4 -30.333 -4.66699 -49 -2c-1.33301 0 -3.83301 0.333008 -7.5 1s-5.83398 1 -6.50098 1c-4 0.666992 -7 1 -9 1c-18 0.666992 -42.333 0 -73 -2c12 -10 18.333 -22.667 19 -38z" />
    <glyph glyph-name="one" unicode="1" horiz-adv-x="922" 
d="M122 613c46 12 97.8359 20.999 155.503 26.999s105 9.33301 142 10s87.833 1 152.5 1h30c2.66699 0 14.667 0.666992 36 2s39 1.66602 53 0.999023c56.667 -2.66699 95 -23.667 115 -63c3.33301 -7.33301 5.66602 -16.333 6.99902 -27
c0.666992 -6.66699 1.33398 -14.334 2.00098 -23.001c0.666992 -14 1.33398 -32.333 2.00098 -55v-36v-32v-20c3.33301 -61.333 5 -102.666 5 -123.999c0.666992 -30.667 0.666992 -55.667 0 -75c-1.33301 -12.667 -2.66602 -23.334 -3.99902 -32.001
c-2.66699 -16.667 -8.33398 -29.667 -17.001 -39c-3.33301 -3.33301 -7 -6.16602 -11 -8.49902s-7 -4.16602 -9 -5.49902l-4 -1c-2.66699 -0.666992 -5.66699 -1.33398 -9 -2.00098c-5.33301 -1.33301 -12 -2.66602 -20 -3.99902c-12.667 -2 -29.667 -4.33301 -51 -7
c-42.667 -5.33301 -70.667 -8.33301 -84 -9c-35.333 -1.33301 -112.666 -3 -231.999 -5c-58 -0.666992 -104.667 -1 -140 -1c-20.667 0 -37 0.333008 -49 1c-6.66699 0.666992 -12.334 1 -17.001 1c-2.66699 0.666992 -5.33398 1 -8.00098 1
c-6.66699 1.33301 -12.334 3.33301 -17.001 6c-16.667 8.66699 -29.334 25 -38.001 49c-5.33301 14 -10 31.667 -14 53c-6 33.333 -11 79 -15 137c-4.66699 64.667 -7.66699 141 -9 229c0 14 4.66699 25.833 14 35.5s20.666 14.834 33.999 15.501zM454.003 357.999
c2 2.66699 3.66504 5.66602 4.99805 8.99902c4.66699 6.66699 10.334 17 17.001 31l20 38c22.667 40 49.334 62.333 80.001 67c38 4.66699 75.333 -17.666 112 -66.999l29 -40v20v34v35c-0.666992 21.333 -1.33398 38 -2.00098 50c0 6 -0.333008 10.333 -1 13
c-4.66699 3.33301 -14.334 5.66602 -29.001 6.99902c-9.33301 0 -22.666 -0.666992 -39.999 -2c-22.667 -1.33301 -37 -2 -43 -2h-26c-61.333 0 -108.666 -0.333008 -141.999 -1s-75 -3.16699 -125 -7.5s-94.667 -10.833 -134 -19.5c1.33301 -64.667 4 -125.667 8 -183
c4 -52 8.33301 -92 13 -120l78 103c0.666992 1.33301 2.33398 3.66602 5.00098 6.99902c4 6.66699 7 11.334 9 14.001c12 16.667 26 28 42 34c24 10 54 9.66699 90 -1c11.333 -3.33301 22.666 -9.66602 33.999 -18.999zM369.001 285.998
c-0.666992 -1.33301 -2.66699 -4.66699 -6 -10c-4 -6 -7.66699 -11 -11 -15l-57 -76c24.667 0.666992 53 1 85 1c118 1.33301 194.333 3 229 5c10 0.666992 35.333 3.33398 76 8.00098l37 5c0 9.33301 0.333008 19.333 1 30c-12 2.66699 -21.667 9 -29 19l-27 39l-31 46
l-28 38c-6.66699 9.33301 -13 16.666 -19 21.999c-2 -3.33301 -4 -7 -6 -11c-3.33301 -5.33301 -9 -16.333 -17 -33c-8.66699 -16.667 -15.667 -29.667 -21 -39c-24 -39.333 -52.333 -61 -85 -65c-21.333 -2 -42.333 6 -63 24l-9 8c-8 2.66699 -14.333 4 -19 4z
M354.001 490.997c10 -9.33301 15 -21 15 -35s-4.83301 -25.833 -14.5 -35.5s-21.5 -14.5 -35.5 -14.5s-25.833 4.83301 -35.5 14.5s-14.5 21.5 -14.5 35.5s4.83301 25.833 14.5 35.5s21.5 14.5 35.5 14.5s25.667 -5 35 -15z" />
    <glyph glyph-name="two" unicode="2" horiz-adv-x="919" 
d="M655 331c-8 6 -15.8281 11.498 -23.4951 16.498s-12 8 -13 9s-3.66699 2.66699 -8 5s-7.16602 3.83301 -8.49902 4.5l-14 7l-26 12c-12.667 6 -21.167 15.5 -25.5 28.5s-3.5 25.833 2.5 38.5s15.5 21.167 28.5 25.5s25.833 3.5 38.5 -2.5l10 -5
c-20 58 -57.667 90.667 -113 98c-12.667 2 -31.334 3.33301 -56.001 4s-41.667 0.333984 -51 -0.999023c-26 -4.66699 -51.333 -17 -76 -37c-24.667 -19.333 -47 -44.666 -67 -75.999c-19.333 -30 -34 -61.667 -44 -95s-14.333 -64 -13 -92
c2 -53.333 19 -95.666 51 -126.999c20 -20 48.333 -37.833 85 -53.5s74.667 -25.834 114 -30.501c41.333 -4.66699 77.166 -2 107.499 8s52.833 26.333 67.5 49c2 3.33301 3.66699 6.83301 5 10.5s2.66602 8.5 3.99902 14.5s2.16602 10.833 2.49902 14.5
s1.16602 10.5 2.49902 20.5s2 17.333 2 22c2 14 8.33301 25.167 19 33.5s23 11.666 37 9.99902s25.167 -7.83398 33.5 -18.501s11.833 -23 10.5 -37c-0.666992 -0.666992 -1.5 -6.5 -2.5 -17.5s-2 -19.667 -3 -26s-2.5 -14.666 -4.5 -24.999s-4.83301 -20.166 -8.5 -29.499
s-8.16699 -18 -13.5 -26c-27.333 -43.333 -65.5 -72.666 -114.5 -87.999s-100.833 -20 -155.5 -14c-49.333 5.33301 -97.5 18.166 -144.5 38.499s-84.833 44.5 -113.5 72.5c-50.667 50 -77.667 115 -81 195c-1.33301 39.333 4.5 80.5 17.5 123.5s31.5 83.5 55.5 121.5
c25.333 40 55.833 74.167 91.5 102.5s74.834 46.5 117.501 54.5c20 2.66699 44 3.66699 72 3s50.333 -2 67 -4c92.667 -12.667 156.667 -66 192 -160l21 28c8.66699 10.667 20 16.667 34 18s26.333 -2.33398 37 -11.001s16.667 -20 18 -34s-2.33398 -26.333 -11.001 -37
c-18.667 -22 -31.834 -40.833 -39.501 -56.5s-13.5 -35.5 -17.5 -59.5c-2 -13.333 -8.5 -24.166 -19.5 -32.499s-23.5 -11.166 -37.5 -8.49902c-8 1.33301 -15.333 4.33301 -22 9c-6 1.33301 -11.667 3.66602 -17 6.99902z" />
    <glyph glyph-name="three" unicode="3" horiz-adv-x="793" 
d="M292 183c11.333 -11.333 16.3311 -24.665 14.998 -39.998v-6v-7c0 -3.33301 0.333008 -7.33301 1 -12c0 -21.333 -4.33301 -39.333 -13 -54c-12.667 -20.667 -28.5 -35.334 -47.5 -44.001s-38.833 -10.667 -59.5 -6c-34.667 7.33301 -61.334 27.666 -80.001 60.999
c-5.33301 10.667 -9.16602 21.667 -11.499 33s-2.16602 24 0.500977 38s8.33398 27 17.001 39c25.333 31.333 68 47 128 47c14 0 25.833 -4.83301 35.5 -14.5s14.5 -21.167 14.5 -34.5zM162.998 415.001c58 10 110.665 8.16504 157.998 -5.50195s86.333 -38.167 117 -73.5
c29.333 -34.667 48.166 -76.667 56.499 -126s6.16602 -100.666 -6.50098 -153.999c-3.33301 -13.333 -10.833 -23.666 -22.5 -30.999s-24.167 -9.5 -37.5 -6.5s-23.666 10.333 -30.999 22s-9.66602 24.167 -6.99902 37.5c19.333 84 10 148.333 -28 193s-99 60 -183 46
c-13.333 -2.66699 -25.666 0 -36.999 8s-18.166 18.833 -20.499 32.5s0.5 26.167 8.5 37.5s19 18 33 20zM193.996 601.999c175.333 17.333 304.999 -21.335 388.999 -116.002c73.333 -84 110 -212.667 110 -386c0 -14 -4.83301 -25.833 -14.5 -35.5s-21.5 -14.5 -35.5 -14.5
s-25.833 4.83301 -35.5 14.5s-14.5 21.5 -14.5 35.5c0 148.667 -28.333 255 -85 319c-60.667 68.667 -162 96.334 -304 83.001c-14 -1.33301 -26.333 2.33398 -37 11.001s-16.667 20 -18 34s2.33398 26.333 11.001 37s20 16.667 34 18z" />
    <glyph glyph-name="four" unicode="4" horiz-adv-x="949" 
d="M463 458c92 -6 174.668 4.33398 248.001 31.001l8 29c4 11.333 8.33301 23 13 35c-24 -4 -55.333 -5.66699 -94 -5c-8.66699 0 -26.334 2 -53.001 6c-31.333 4 -53.666 7 -66.999 9c-20 2 -36.333 3 -49 3c0.666992 -7.33301 1 -13.333 1 -18
c-0.666992 -22.667 -2.33398 -47.334 -5.00098 -74.001zM668.001 105.001l-1.00098 1.00098l-7 4l-13 8c-7.33301 -4 -18.333 -11.667 -33 -23c-27.333 -20.667 -42.666 -38 -45.999 -52l4 -2c13.333 -5.33301 29.333 -4.16602 48 3.50098s32.667 22.834 42 45.501
c0.666992 1.33301 1.5 3.16602 2.5 5.49902s1.83301 4.16602 2.5 5.49902s1 2.66602 1 3.99902zM743 173.002c9.33301 -9.33301 16.334 -19.3301 21.001 -29.9971c8 -18 9 -38 3 -60c-2 -6 -6.33301 -17 -13 -33c-10 -24 -24 -44.667 -42 -62s-36.833 -29.666 -56.5 -36.999
s-40.167 -11.666 -61.5 -12.999s-40.666 1.66699 -57.999 9c-20.667 8 -37.667 20.833 -51 38.5s-19 38.834 -17 63.501c3.33301 42.667 32 84.667 86 126c25.333 19.333 46 32.666 62 39.999c6.66699 2.66699 16 6 28 10l8 3c6.66699 47.333 16 96.333 28 147
c-69.333 -17.333 -145.333 -23 -228 -17c-6 -50.667 -13.667 -111.667 -23 -183l-2 -6c0.666992 -3.33301 1.33398 -6.33301 2.00098 -9c4.66699 -33.333 -2 -66.333 -20 -99s-45.333 -58.334 -82 -77.001c-20 -10 -44 -16.333 -72 -19
c-32.667 -3.33301 -60 0.333984 -82 11.001c-38.667 18 -60 45.667 -64 83c-3.33301 27.333 4.66699 55.666 24 84.999c12 19.333 27.667 37.666 47 54.999s38.333 30 57 38c8.66699 7.33301 18 12.666 28 15.999c26 8 50.667 9.66699 74 5c11.333 86 20 161.333 26 226
c2.66699 24.667 4.33398 47.334 5.00098 68.001v2l-0.5 1.5c-0.333008 1 -0.833008 2.83301 -1.5 5.5c0 1.33301 -0.333008 4.66602 -1 9.99902c-4 25.333 0.666992 46.666 14 63.999c14.667 18.667 39.667 29 75 31c18.667 0.666992 43 -0.666016 73 -3.99902
c14 -1.33301 37.333 -4.33301 70 -9c23.333 -3.33301 37 -5 41 -5c35.333 -0.666992 68 2 98 8c-0.666992 0.666992 4.66602 3.33398 15.999 8.00098c32 15.333 58.667 11.666 80 -11.001c8 -8 13 -18 15 -30c0.666992 -4.66699 0.666992 -9.66699 0 -15
c-0.666992 -6 -1.66699 -13.333 -3 -22c-2.66699 -11.333 -6.83398 -25.833 -12.501 -43.5s-11.834 -35.834 -18.501 -54.501c-32.667 -105.333 -54.334 -201.333 -65.001 -288c-0.666992 -4.66699 -2 -9.33398 -4 -14.001c-0.666992 -4.66699 -1.66699 -9 -3 -13z
M321.001 148.005l-29.999 0.000976562h-2l-2 -2l-14 -14c-9.33301 -7.33301 -19.666 -11.333 -30.999 -12c-10.667 -9.33301 -19 -19 -25 -29c-5.33301 -8.66699 -8.33301 -15.667 -9 -21c1.33301 -0.666992 3.66602 -2 6.99902 -4c5.33301 -2.66699 15.333 -3 30 -1
c16 1.33301 28.667 4.33301 38 9c18 8.66699 30.667 20 38 34s10.333 26.333 9 37c0 1.33301 -0.333008 2.66602 -1 3.99902c-2.66699 -0.666992 -5.33398 -1 -8.00098 -1z" />
    <glyph glyph-name="five" unicode="5" horiz-adv-x="856" 
d="M422 138c-102.667 -68 -179.661 -126.003 -230.994 -174.003c-10 -10 -21.833 -14.667 -35.5 -14s-25.334 6 -35.001 16s-14.167 21.833 -13.5 35.5s6 25.167 16 34.5l4 5c12 58 34 141.333 66 250l4 11c-12.667 7.33301 -25 14 -37 20
c-12.667 6.66699 -33.334 15 -62.001 25l-27 9c-4.66699 2 -8.33398 3.66699 -11.001 5c-3.33301 1.33301 -6.33301 2.66602 -9 3.99902c-4 2.66699 -7.33301 5.66699 -10 9c-12 14 -15.667 29.667 -11 47c2.66699 12 9.33398 21.333 20.001 28
c3.33301 2.66699 6.66602 4.66699 9.99902 6l8 2c2 0.666992 3.66699 1 5 1h4h8c4.66699 0.666992 12 1 22 1s34 0.333008 72 1c26 0 47 0.333008 63 1c7.33301 29.333 13.666 57.333 18.999 84c2 9.33301 7.66699 43.333 17 102c4 23.333 7 40.333 9 51l3 18
c0.666992 3.33301 1.66699 6.33301 3 9c0.666992 2.66699 1.66699 5 3 7c11.333 14.667 20.333 23.334 27 26.001c22.667 8.66699 46 4.33398 70 -12.999c11.333 -8 23.666 -19 36.999 -33c17.333 -19.333 31.666 -37.666 42.999 -54.999
c32 -49.333 62.333 -110.666 91 -183.999l88 4l37 1l10 1h3h1h1h1h2h1c14 -2 25 -7.33301 33 -16c18 -18.667 21 -40.667 9 -66c-4 -8.66699 -10.667 -18 -20 -28c-11.333 -12.667 -28 -28.334 -50 -47.001l-52 -41l10 -30c4.66699 -14.667 16.667 -48.667 36 -102l18 -49
c2 -7.33301 3.66699 -13 5 -17c1.33301 -2.66699 2 -5 2 -7c0.666992 -2.66699 1.33398 -5 2.00098 -7v-10c-0.666992 -12.667 -5.66699 -23.667 -15 -33c-12 -11.333 -26.333 -16.666 -43 -15.999c-8.66699 0 -17.667 1.66699 -27 5c-12.667 4 -27.667 11 -45 21
c-26.667 15.333 -61.334 38.333 -104.001 69zM255.006 144.997l84 58l-39 31l-16 12zM314.006 346.997c16.667 -11.333 32.667 -23 48 -35l64 -51l85 59l-16 49c-84.667 -3.33301 -134 -5.33301 -148 -6c-8.66699 0 -18 -0.333008 -28 -1zM564.006 158.997
c-10 27.333 -17 47.333 -21 60l-32 -22l15 -11zM375.006 620.997l-15.999 -96.001c-4 -19.333 -8.66699 -40 -14 -62c14 0.666992 51.667 2.33398 113 5.00098c-21.333 52.667 -44.333 97.667 -69 135c-2.66699 4 -7.33398 10 -14.001 18zM707.007 377.996h1h-1z" />
    <glyph glyph-name="six" unicode="6" horiz-adv-x="960" 
d="M478 600c37.333 42.667 80 73.332 128 91.999c44 14.667 83.5 16.834 118.5 6.50098s64.5 -30.5 88.5 -60.5c22 -27.333 36.5 -59.333 43.5 -96s5.16699 -73 -5.5 -109c-6.66699 -22.667 -16.167 -44.167 -28.5 -64.5s-27.666 -40 -45.999 -59s-34 -34.333 -47 -46
s-30.5 -26.5 -52.5 -44.5l-54 -45c-10.667 -8.66699 -25 -21.334 -43 -38.001s-32.333 -32.334 -43 -47.001s-20 -30 -28 -46c-3.33301 -13.333 -10.333 -23.666 -21 -30.999c-11.333 -7.33301 -23.833 -9.66602 -37.5 -6.99902s-24.5 9.66699 -32.5 21
c-30 45.333 -60.333 79.333 -91 102c-12 8.66699 -35.667 24.334 -71 47.001c-36 23.333 -62.667 41.666 -80 54.999c-64.667 51.333 -102.334 111.333 -113.001 180c-6 37.333 -4.66699 73.333 4 108s23.167 64.167 43.5 88.5s45 44.5 74 60.5s60.833 23.833 95.5 23.5
s70.667 -7.83301 108 -22.5c26.667 -12 56.667 -34.667 90 -68zM451 484.998c-6.66699 6 -15.9971 15.3359 -27.9971 28.0029l-27 28c-6 6 -13.5 12.5 -22.5 19.5s-17.5 12.167 -25.5 15.5c-26.667 12.667 -52.167 17.167 -76.5 13.5s-45.5 -12.334 -63.5 -26.001
s-31.5 -32.834 -40.5 -57.501s-11.167 -51.334 -6.5 -80.001c7.33301 -43.333 33.333 -82.666 78 -117.999c15.333 -12.667 38.666 -28.667 69.999 -48l78 -52c24 -17.333 46.667 -38.333 68 -63c4.66699 6.66699 9.66699 13 15 19l18 20c6 7.33301 11.333 13.333 16 18
s11 10.667 19 18l17 16l20 16l18 15c2 2 8.16699 7.16699 18.5 15.5s16.166 13.166 17.499 14.499c41.333 34 73.166 63 95.499 87s37.5 49.667 45.5 77c6 21.333 7 42.166 3 62.499s-11.667 37.833 -23 52.5c-24 30 -55 37.333 -93 22c-37.333 -14 -73 -42.333 -107 -85
c-1.33301 -11.333 -6 -20.666 -14 -27.999c-9.33301 -10 -21 -15 -35 -15s-25.667 5 -35 15z" />
    <glyph glyph-name="seven" unicode="7" horiz-adv-x="778" 
d="M216 367c-1.33301 2 -3.33398 4.33105 -6.00098 6.99805l-12 12c-13.333 14 -22.666 28 -27.999 42c-9.33301 29.333 -11.833 56.833 -7.5 82.5s14.5 49.667 30.5 72s34.167 41.833 54.5 58.5s42.5 30.667 66.5 42c32.667 16 66.834 26.667 102.501 32
s72.667 2.83301 111 -7.5s71.166 -29.833 98.499 -58.5c32.667 -35.333 50 -79.666 52 -132.999c2.66699 -68.667 -29 -123.334 -95 -164.001c-1.33301 -0.666992 -24.333 -13 -69 -37c-22.667 -12.667 -39 -24 -49 -34c-9.33301 -8.66699 -14.666 -16 -15.999 -22
c-0.666992 -2.66699 -1.16699 -5.5 -1.5 -8.5s-0.833008 -7.83301 -1.5 -14.5s-1.33398 -14 -2.00098 -22c-2 -14 -8.33301 -25.167 -19 -33.5s-23 -11.666 -37 -9.99902s-25.167 7.83398 -33.5 18.501s-11.833 23 -10.5 37c4.66699 36 7.33398 55.667 8.00098 59
c6.66699 23.333 21 46 43 68c17.333 16.667 41.333 33.334 72 50.001l20 11l23 12c7.33301 3.33301 14 7 20 11c18 11.333 30.667 22.333 38 33s10.666 24.667 9.99902 42c-1.33301 28.667 -10 51.667 -26 69c-20 22 -48 34 -84 36c-36.667 2 -73.667 -6 -111 -24
s-64 -39.333 -80 -64s-20.333 -47 -13 -67l6 -6l10 -10c5.33301 -6 10 -11 14 -15c8.66699 -10.667 12.334 -22.834 11.001 -36.501s-7.33301 -25 -18 -34s-22.834 -12.833 -36.501 -11.5s-25.167 7.33301 -34.5 18zM430.999 75.998l-11 -49
c-3.33301 -13.333 -10.833 -23.666 -22.5 -30.999s-24.167 -9.5 -37.5 -6.5s-23.666 10.333 -30.999 22s-9.66602 24.167 -6.99902 37.5l11 49c3.33301 13.333 10.833 23.666 22.5 30.999s24.167 9.5 37.5 6.5s23.666 -10.333 30.999 -22s9.66602 -24.167 6.99902 -37.5z
" />
    <glyph glyph-name="eight" unicode="8" horiz-adv-x="814" 
d="M349 63v-1v1zM561 52c-2 0 -4 -0.666992 -6 -2h6v2zM561 48l-1 -2.00098c0.666992 0.666992 1 1.33398 1 2.00098zM607 461.999c-6 -0.666992 -12.168 -1.16602 -18.501 -1.49902s-11.666 -0.666016 -15.999 -0.999023s-6.83301 -0.5 -7.5 -0.5
c-30.667 -1.33301 -77 -2.16602 -139 -2.49902s-109 -1.16602 -141 -2.49902c25.333 -128 42 -219.333 50 -274c0 -1.33301 2.33301 -22 7 -62l5 -39l2 -13c1.33301 -3.33301 2.66602 -6.33301 3.99902 -9c17.333 2 28.666 3 33.999 3c32 -0.666992 53 -1.33398 63 -2.00098
c0.666992 0 4 -0.333008 10 -1s14 -1.33398 24 -2.00098s19 -1.33398 27 -2.00098c16 -1.33301 28.667 -2.33301 38 -3h5c2 1.33301 4.33301 2.66602 7 3.99902c0.666992 5.33301 1.33398 12.666 2.00098 21.999c1.33301 15.333 3 40.333 5 75
c4.66699 78.667 7.33398 122.334 8.00098 131.001l21 122zM228.999 755c24 -11.333 89.0098 -39 195.01 -83c82.667 -35.333 148.667 -67 198 -95c6.66699 -3.33301 12.334 -8.33301 17.001 -15c4.66699 0 8.66699 -0.333008 12 -1
c8.66699 -0.666992 16 -2.33398 22 -5.00098c15.333 -4.66699 26.666 -13 33.999 -25c3.33301 -6 5.66602 -12.333 6.99902 -19v-6v-2v-3c0 -1.33301 -0.333008 -3 -1 -5c0 -2 -0.333008 -4.66699 -1 -8c-0.666992 -6 -2 -14.333 -4 -25l-12 -75
c-13.333 -76.667 -20 -116.667 -20 -120c-0.666992 -3.33301 -3.33398 -44.333 -8.00098 -123c-2 -34.667 -3.66699 -60 -5 -76c-0.666992 -12 -1.33398 -21 -2.00098 -27c-0.666992 -4.66699 -1.33398 -8.33398 -2.00098 -11.001c-0.666992 -6 -2.33398 -12 -5.00098 -18
c-14.667 -30 -38.667 -50.333 -72 -61c-6 -2 -13.667 -2.66699 -23 -2h-16c-10 0.666992 -23.333 1.66699 -40 3c-8 0.666992 -16.833 1.5 -26.5 2.5s-17.334 1.66699 -23.001 2s-8.83398 0.5 -9.50098 0.5c-8.66699 0.666992 -28.334 1.33398 -59.001 2.00098h-5
c-1.33301 0 -3.66602 -0.333008 -6.99902 -1s-7.33301 -1 -12 -1c-21.333 -2 -39.666 0.666992 -54.999 8c-23.333 12 -41 36 -53 72l-2 9c-0.666992 0.666992 -1 1.33398 -1 2.00098v4l-2 13l-5 40c-4.66699 39.333 -7.33398 59.333 -8.00098 60
c-6.66699 50 -24.334 148 -53.001 294c-12 8.66699 -18.667 20.667 -20 36c-0.666992 10.667 1.66602 20.5 6.99902 29.5s12.666 15.5 21.999 19.5c6.66699 6.66699 14.667 10.667 24 12c11.333 2 22 0.333008 32 -5c38.667 2 102.334 3.66699 191.001 5l-53 22
c-107.333 45.333 -173.333 74 -198 86c-12.667 6 -21.334 15.5 -26.001 28.5s-4 25.667 2 38s15.5 20.833 28.5 25.5s25.5 4 37.5 -2zM561.009 50l3 1.00098l-2 1c-0.666992 -0.666992 -1 -1.33398 -1 -2.00098z" />
    <glyph glyph-name="nine" unicode="9" horiz-adv-x="917" 
d="M635 559c-74.667 44.667 -138.663 60 -191.996 46c-40.667 -11.333 -77.334 -35 -110.001 -71s-57.334 -79.333 -74.001 -130c-16 -49.333 -21.167 -98.333 -15.5 -147s22.167 -88.667 49.5 -120c25.333 -30 64.666 -46.667 117.999 -50c93.333 -6 166 12 218 54
c52.667 42 82 107.667 88 197c5.33301 79.333 -18.334 147 -71.001 203c-5.33301 5.33301 -9 11.333 -11 18zM784.004 515c26.667 -54.667 37.665 -115.665 32.998 -182.998c-8 -118.667 -50 -208.334 -126 -269.001c-72 -58 -167.333 -83.333 -286 -76
c-81.333 5.33301 -144 33.333 -188 84c-27.333 32.667 -47.333 70.167 -60 112.5s-18 84.5 -16 126.5s9.66699 83.667 23 125c20.667 63.333 53 119.666 97 168.999c44 48 96 80.333 156 97c20 5.33301 40 8.33301 60 9c20.667 0 39.834 -1.5 57.501 -4.5
s36.334 -8 56.001 -15s37 -14.167 52 -21.5s31.333 -16.5 49 -27.5s32.167 -20.5 43.5 -28.5l39 -28c10.667 -8 17 -18.833 19 -32.5s-1 -26.167 -9 -37.5zM417.002 333.002c35.333 -26 65.6641 -37.998 90.9971 -35.998c24.667 1.33301 49.667 18 75 50
c8.66699 10.667 19.834 16.834 33.501 18.501s25.834 -1.83301 36.501 -10.5s16.834 -19.834 18.501 -33.501s-1.83301 -25.834 -10.5 -36.501c-43.333 -54.667 -92 -84 -146 -88c-50 -4 -102.667 14.667 -158 56c-10.667 8 -17.167 18.833 -19.5 32.5s0.666992 26 9 37
s19.333 17.667 33 20s26.167 -0.833984 37.5 -9.50098zM438 496.004c10 -9.33301 15 -21 15 -35s-4.83301 -25.833 -14.5 -35.5s-21.5 -14.5 -35.5 -14.5s-25.833 4.83301 -35.5 14.5s-14.5 21.5 -14.5 35.5s4.83301 25.833 14.5 35.5s21.5 14.5 35.5 14.5s25.667 -5 35 -15
zM606 520.004c10 -9.33301 15 -21 15 -35s-4.83301 -25.833 -14.5 -35.5s-21.5 -14.5 -35.5 -14.5s-25.833 4.83301 -35.5 14.5s-14.5 21.5 -14.5 35.5s4.83301 25.833 14.5 35.5s21.5 14.5 35.5 14.5s25.667 -5 35 -15z" />
    <glyph glyph-name="colon" unicode=":" horiz-adv-x="976" 
d="M253 419l-1 -2.00195c0.666992 -139.333 0 -226 -2 -260c-0.666992 -5.33301 -2 -12.666 -4 -21.999c1.33301 -0.666992 2.66602 -1 3.99902 -1c16 -3.33301 37.667 -5.66602 65 -6.99902c21.333 -0.666992 48.333 -0.5 81 0.5s49.334 1.5 50.001 1.5
c5.33301 0 18 -0.166992 38 -0.5s45.333 -0.666016 76 -0.999023s58 -0.833008 82 -1.5h116h19c0.666992 14 0.333984 31.333 -0.999023 52c-0.666992 15.333 -3.66699 51.666 -9 108.999c0 4.66699 -0.333008 16 -1 34v25c0 11.333 -0.333008 20.333 -1 27
c0 19.333 -0.333008 34.333 -1 45h-1c-12.667 4 -30.334 7.33301 -53.001 10c-41.333 4 -97.333 5.33301 -168 4c-33.333 -0.666992 -69.333 -2 -108 -4s-75.5 -4 -110.5 -6s-58.5 -3 -70.5 -3zM171 527.998c0.666992 4 1.33203 7.67188 1.99902 11.0049
c7.33301 50.667 24 85.667 50 105c8 6 19 10.333 33 13c8 1.33301 17.667 2.66602 29 3.99902c20 2.66699 43.667 4.33398 71 5.00098c26.667 1.33301 50.334 1.66602 71.001 0.999023c11.333 0 20.666 -0.666992 27.999 -2c14 -1.33301 25 -4.33301 33 -9
c29.333 -16.667 46.666 -43.334 51.999 -80.001c1.33301 -10.667 1.66602 -25.334 0.999023 -44.001c74.667 1.33301 134.334 -0.333984 179.001 -5.00098c29.333 -2.66699 53.333 -7 72 -13c28 -8 48.333 -20.667 61 -38c2 -3.33301 3.83301 -7 5.5 -11
s2.83398 -7 3.50098 -9v-4c0.666992 -2 1 -4.66699 1 -8c0.666992 -4.66699 1 -11 1 -19c0.666992 -12 1 -29 1 -51c0 -6 0.166992 -14.833 0.5 -26.5s0.5 -19.834 0.5 -24.501c0.666992 -15.333 1 -24 1 -26c5.33301 -58.667 8.33301 -96.667 9 -114
c1.33301 -30 1.33301 -54 0 -72c-1.33301 -12.667 -3.33301 -23.667 -6 -33c-5.33301 -18 -14.333 -31.333 -27 -40c-6 -4 -12.667 -7 -20 -9c-2 0 -4.66699 -0.333008 -8 -1c-4 0 -9 -0.333008 -15 -1c-10 -0.666992 -23.667 -1 -41 -1h-118
c-24 0.666992 -51.167 1.16699 -81.5 1.5s-55.5 0.666016 -75.5 0.999023s-32.667 0.5 -38 0.5l-51 -1c-34 -1.33301 -61.667 -1.66602 -83 -0.999023c-33.333 1.33301 -60.666 4.33301 -81.999 9c-36 7.33301 -61 21.333 -75 42c-12.667 18 -16 39.667 -10 65
c0.666992 4 1.5 7.33301 2.5 10s1.66699 4.5 2 5.5s0.5 1.83301 0.5 2.5v2c2.66699 22.667 3.5 77 2.5 163s-1.16699 140.333 -0.5 163c0 16 6.33301 29 19 39zM280.998 560.003c-4 -8 -7 -19.666 -9 -34.999c-0.666992 -2 -1 -4 -1 -6c4 0.666992 26.667 2.16699 68 4.5
s75.333 4.16602 102 5.49902v33c-0.666992 2 -1 3.33301 -1 4c-3.33301 0.666992 -8.33301 1 -15 1c-18.667 0.666992 -40.334 0.333984 -65.001 -0.999023c-25.333 -0.666992 -46.666 -2 -63.999 -4c-7.33301 -0.666992 -12.333 -1.33398 -15 -2.00098z" />
    <glyph glyph-name="semicolon" unicode=";" horiz-adv-x="931" 
d="M698 474c-37.333 53.333 -81.502 90.1699 -132.502 110.503s-101.167 24.5 -150.5 12.5c-54.667 -12.667 -101.667 -42.334 -141 -89.001c-38 -46.667 -60.667 -107.334 -68 -182.001s2.33398 -132.667 29.001 -174c38 -60 94.333 -96.333 169 -109
c68.667 -10.667 127.334 -5.66699 176.001 15c47.333 20.667 84.333 52.667 111 96c25.333 42 39 90.333 41 145c1.33301 55.333 -10 113.666 -34 174.999zM807.998 463.004c20 -64 27.332 -127.668 21.999 -191.001s-23 -120 -53 -170
c-37.333 -62 -89.666 -107.333 -156.999 -136c-66.667 -28.667 -144 -35.667 -232 -21c-104.667 17.333 -183.667 68.333 -237 153c-38.667 62 -53.667 141.333 -45 238c8.66699 94 39.334 172.667 92.001 236c52.667 62.667 117.334 103.334 194.001 122.001
c69.333 16.667 137.666 12 204.999 -14c68 -26 126.667 -72 176 -138c5.33301 -5.33301 9.66602 -11.333 12.999 -18l1 -2c5.33301 -8 10.333 -16.333 15 -25c6 -10.667 8 -22 6 -34zM529.997 476.003c17.333 1.33301 31.667 -4.33398 43 -17.001
c1.33301 -1.33301 3.33301 -3.66602 6 -6.99902l11 -10c12.667 -12.667 22 -25.334 28 -38.001c15.333 -40 18.666 -78 9.99902 -114c-9.33301 -35.333 -27.333 -65.666 -54 -90.999c-18 -17.333 -38 -30 -60 -38c-22.667 -8 -47.334 -10.333 -74.001 -7s-52 13.333 -76 30
c-19.333 14 -34 31.667 -44 53s-14.667 42.333 -14 63s3.33398 41 8.00098 61c9.33301 30.667 25.5 58 48.5 82s50.833 38.333 83.5 43c12.667 2 27.667 1.66699 45 -1c1.33301 -0.666992 4.83301 -1.66699 10.5 -3s10.5 -2 14.5 -2c4.66699 -0.666992 9.33398 -2 14.001 -4
zM503.998 380.003c-1.33301 0.666992 -11.999 2.66602 -31.999 5.99902c-6 1.33301 -10 2 -12 2c-9.33301 -2 -18.833 -7.83301 -28.5 -17.5s-16.834 -22.5 -21.501 -38.5c-4.66699 -17.333 -5.66699 -31.333 -3 -42s7.66699 -18.667 15 -24c29.333 -21.333 57 -19.333 83 6
c12.667 11.333 21 25.333 25 42s2.66699 33.334 -4 50.001c0 0.666992 -2 2.66699 -6 6l-9 9l-1 1h-6z" />
    <glyph glyph-name="less" unicode="&#x3c;" horiz-adv-x="924" 
d="M362 67c-9.33301 -21.333 -21.333 -38.332 -36 -50.999c-10 -9.33301 -22.667 -14.333 -38 -15c-6.66699 0 -14 0.333008 -22 1c-12 2 -26 5 -42 9c-14 4 -26.667 8 -38 12l-16 7c-3.33301 1.33301 -6.33301 3 -9 5c-8 5.33301 -14 11.666 -18 18.999
c-13.333 25.333 -19 57.333 -17 96c0 2 1 14.667 3 38c0.666992 12.667 1 22.667 1 30c0 4 -0.666992 14.833 -2 32.5s-2.33301 32.167 -3 43.5s-0.333984 26.333 0.999023 45c5.33301 67.333 33.333 112.333 84 135c31.333 14 64.666 8.66699 99.999 -16
c11.333 -8 24.333 -20.667 39 -38l17 26c2.66699 4.66699 9.33398 22 20.001 52c19.333 57.333 30.333 89.666 33 96.999c15.333 42 29.333 74 42 96c10 16.667 20 29.667 30 39c18 16.667 37.667 24 59 22c17.333 -2 32.333 -10 45 -24c6.66699 -8 13 -18 19 -30
c7.33301 -16 14 -36.667 20 -62c4.66699 -16.667 8.66699 -35 12 -55c0.666992 -6.66699 1.66699 -13 3 -19c0.666992 -6.66699 1 -11.667 1 -15c0 -19.333 -6.66699 -39.666 -20 -60.999l5 -4c4.66699 6 10.334 10.667 17.001 14c15.333 8.66699 32.666 10.667 51.999 6
c12.667 -3.33301 27 -9.66602 43 -18.999c18.667 -10.667 35.667 -25.334 51 -44.001c14.667 -18.667 23.334 -39.667 26.001 -63c2 -19.333 -4 -36.666 -18 -51.999c-2.66699 -3.33301 -6 -6.33301 -10 -9c5.33301 -9.33301 8.66602 -18.333 9.99902 -27
c2.66699 -16 4.33398 -29 5.00098 -39c0.666992 -14.667 -1 -27 -5 -37c-4.66699 -11.333 -12.334 -20.333 -23.001 -27c15.333 -17.333 22 -36 20 -56c-6 -62 -25.333 -105.333 -58 -130c-45.333 -34.667 -105.666 -37 -180.999 -7c-17.333 6.66699 -42 18 -74 34
c-26 13.333 -43.667 21.666 -53 24.999c-17.333 6 -42.333 11.333 -75 16zM282 145.001l0.000976562 6c-1.33301 6.66699 -3.33301 15.667 -6 27c-1.33301 5.33301 -3.66602 15.333 -6.99902 30c-2.66699 12 -4.33398 20 -5.00098 24c-4 26 -6.33301 72.667 -7 140
c-1.33301 1.33301 -3 2.66602 -5 3.99902c-2 2 -4 3.33301 -6 4c-11.333 -7.33301 -18.333 -23.666 -21 -48.999c-0.666992 -16 -0.833984 -27.833 -0.500977 -35.5s1.16602 -19.5 2.49902 -35.5s2.33301 -28.667 3 -38c0.666992 -11.333 0.333984 -25.333 -0.999023 -42
c-2 -22 -3 -34 -3 -36c-0.666992 -12 -0.333984 -21.667 0.999023 -29c6.66699 -2.66699 14.334 -5 23.001 -7c6.66699 -2 13 -3.66699 19 -5c4 8.66699 8.33301 22.667 13 42zM358.001 306.001c0.666992 -23.333 2.00293 -42.667 4.00293 -58
c0.666992 -1.33301 2 -6.66602 4 -15.999l8 -31c2.66699 -14 4.66699 -25.667 6 -35l1 -1c35.333 -4.66699 64.666 -11.334 87.999 -20.001c12 -4 34 -14 66 -30c29.333 -14.667 51 -24.667 65 -30c40.667 -16 69 -18 85 -6c2.66699 2 7.66699 18 15 48
c-14 15.333 -21.333 31.333 -22 48c-2 37.333 2.33301 64 13 80c3.33301 6 8 11 14 15c-18 20 -25 41 -21 63c3.33301 18.667 14 34.667 32 48c-2.66699 3.33301 -6 6.66602 -10 9.99902c-10.667 -18 -26.334 -27.667 -47.001 -29c-14 -0.666992 -29 3.33301 -45 12
c-10.667 6 -23.334 15 -38.001 27c-23.333 18.667 -39 36 -47 52c-11.333 23.333 -10.333 46 3 68c8 14.667 14 22.667 18 24v3c-0.666992 4.66699 -1.66699 10 -3 16c-2.66699 17.333 -6 33.333 -10 48l-1 6c-7.33301 -15.333 -15 -34.333 -23 -57
c-2.66699 -6.66699 -13.667 -38.667 -33 -96c-12.667 -36.667 -22.667 -61 -30 -73c-16 -26 -29.667 -43.333 -41 -52c-5.33301 -4.66699 -16 -11.667 -32 -21c-1.33301 -1.33301 -3 -2.66602 -5 -3.99902c-4 -4 -8.66699 -7 -14 -9z" />
    <glyph glyph-name="equal" unicode="=" horiz-adv-x="926" 
d="M228 234c-0.666992 2 -1.33301 2.66699 -2 2zM472.001 650c-2.66699 2.66699 -5.33398 4.33496 -8.00098 5.00195c-5.33301 2.66699 -25 3.33398 -59 2.00098c-50 -1.33301 -79.667 -1.66602 -89 -0.999023c-11.333 1.33301 -29.666 4 -54.999 8l-24 4
c0 -4.66699 0.333008 -12.334 1 -23.001c9.33301 -147.333 10.333 -257 3 -329c0 -1.33301 -0.5 -4.66602 -1.5 -9.99902s-2.16699 -12.166 -3.5 -20.499s-2.33301 -15.833 -3 -22.5c-2 -12.667 -3.33301 -22.667 -4 -30c0.666992 -0.666992 1 -1.33398 1 -2.00098h19
c6.66699 0 29 0.666992 67 2c72.667 2 111.667 3 117 3c22 -0.666992 40.333 -1.33398 55 -2.00098c2 0 4 -0.333008 6 -1v1c0 7.33301 -0.333008 15.166 -1 23.499s-1.16699 15.166 -1.5 20.499s-0.5 8.33301 -0.5 9c-1.33301 44.667 -4 111 -8 199
c-2.66699 48.667 -5 88 -7 118c-1.33301 16.667 -2.33301 29.667 -3 39c-0.666992 3.33301 -1 5.66602 -1 6.99902zM384.001 -29.999c-5.33301 0.666992 -10.665 2.33496 -15.998 5.00195c-36 20 -54 58 -54 114c0 11.333 1 26 3 44c-30 -1.33301 -52 -2 -66 -2h-25
c-4 0 -7.33301 0.333008 -10 1c-6.66699 0 -12.667 1 -18 3c-14.667 6 -27.834 14.667 -39.501 26s-20.5 24.333 -26.5 39c-2.66699 7.33301 -4 16 -4 26c0 4 0.333008 9.33301 1 16l5 35c0.666992 6.66699 1.66699 13.834 3 21.501s2.33301 13.834 3 18.501s1 7.66699 1 9
c2.66699 22.667 4.5 45.667 5.5 69s1 49.666 0 78.999s-1.83301 52.166 -2.5 68.499s-2 43.5 -4 81.5l-5 72c-0.666992 12.667 2.83301 23.834 10.5 33.501s17.5 15.834 29.5 18.501c11.333 17.333 27.333 25 48 23c11.333 -1.33301 29.333 -4 54 -8
c21.333 -4 37.666 -6.33301 48.999 -7c4.66699 -0.666992 30 -0.333984 76 0.999023c47.333 1.33301 80 -1.33398 98 -8.00098c30 -12 51.667 -32 65 -60c2 -5.33301 3.66699 -12 5 -20c0.666992 -4 1.33398 -9 2.00098 -15c1.33301 -10 2.33301 -23 3 -39
c6.66699 0 33 0.666992 79 2c24.667 0.666992 42.334 1.33398 53.001 2.00098h20c10 0 18.667 -1.33301 26 -4c14.667 -6 27.667 -14.667 39 -26s20 -24.333 26 -39c5.33301 -14 7.33301 -31 6 -51c-0.666992 -4 -1.16699 -7.66699 -1.5 -11s-0.5 -6 -0.5 -8v-5
c4 -128.667 5.33301 -243.334 4 -344.001v-13c0 -8 -0.166992 -16.5 -0.5 -25.5s-0.5 -17.167 -0.5 -24.5c-0.666992 -16 -1.33398 -28.667 -2.00098 -38c0 -6.66699 -0.333008 -12 -1 -16c-0.666992 -3.33301 -1.33398 -6.33301 -2.00098 -9
c-1.33301 -8.66699 -5.33301 -16.334 -12 -23.001c-14 -16 -33 -25 -57 -27c-5.33301 -0.666992 -11.666 -1 -18.999 -1h-12c-6.66699 -0.666992 -65 1.66602 -175 6.99902l-107 5l-35 2l-10 1h-3h-2h-2c-0.666992 0 -1.33398 0.333008 -2.00098 1zM721.002 519.002
l-11.998 -0.00195312c-10.667 0 -27.667 -0.666992 -51 -2c-41.333 -1.33301 -67 -2 -77 -2l2 -25c4 -88 6.66699 -155 8 -201l1 -9c0 -5.33301 0.333008 -12.166 1 -20.499s1 -16.166 1 -23.499c0 -16.667 -0.333008 -30.334 -1 -41.001c-0.666992 -8.66699 -2 -16 -4 -22
c-4 -14.667 -11.333 -26 -22 -34c-18 -14 -40.667 -17.333 -68 -10c-4 0.666992 -7.33301 1.5 -10 2.5s-4.33398 1.66699 -5.00098 2s-1.33398 0.5 -2.00098 0.5c-13.333 0.666992 -30.333 1.33398 -51 2.00098h-13l-1 -9c-2 -18 -3 -31 -3 -39
c0 -8.66699 0.666992 -15.334 2 -20.001l27 -2l107 -5c106 -4.66699 160.667 -7 164 -7h11v16c0 8 0.166992 16.333 0.5 25s0.5 17 0.5 25v13c1.33301 98.667 0 211.334 -4 338.001c0 3.33301 0.666992 15.333 2 36v7c-0.666992 1.33301 -1.66699 3 -3 5z" />
    <glyph glyph-name="greater" unicode="&#x3e;" horiz-adv-x="1013" 
d="M271 459c-6.66699 0.666992 -14.9961 1.83496 -24.9961 3.50195s-16.5 2.66699 -19.5 3s-7.33301 0.666016 -13 0.999023s-10.667 0 -15 -1s-9.5 -2.5 -15.5 -4.5c-21.333 -7.33301 -38 -20.833 -50 -40.5s-18.167 -40.5 -18.5 -62.5s5.16699 -43.333 16.5 -64
s28 -35.334 50 -44.001c27.333 -10.667 52.166 -10.5 74.499 0.5s39.833 30.5 52.5 58.5c7.33301 16.667 11.666 34 12.999 52c-4.66699 10.667 -5.33398 22 -2.00098 34c-4.66699 26 -16.334 47 -35.001 63c-4.66699 0 -9 0.333008 -13 1zM778.004 459.001
c-6.66699 4 -14.332 8.33105 -22.999 12.998s-14 7.66699 -16 9s-5.33301 2.66602 -10 3.99902s-8.33398 1.83301 -11.001 1.5s-7 -1.16602 -13 -2.49902c-17.333 -4 -35.5 -15.667 -54.5 -35s-33.833 -42.666 -44.5 -69.999c-10 -28.667 -13.333 -54 -10 -76
s13.333 -39.667 30 -53c23.333 -16.667 46.5 -23.5 69.5 -20.5s45.167 15.5 66.5 37.5c22 22 37.167 47.833 45.5 77.5s8.16602 56.834 -0.500977 81.501c-3.33301 8.66699 -10.666 18.667 -21.999 30c-2 0.666992 -4.33301 1.66699 -7 3zM38.0059 470.999
c21.333 24.667 45.8389 48.6631 73.5059 71.9961s59.167 48.333 94.5 75s60 45.667 74 57c10.667 8.66699 23 12.334 37 11.001s25.333 -7.33301 34 -18s12.334 -23 11.001 -37s-7.33301 -25.333 -18 -34l-45 -35c15.333 -4.66699 27.666 -10.667 36.999 -18
c27.333 -19.333 48 -43.333 62 -72c47.333 27.333 93.666 30.333 138.999 9l8 -4c39.333 58.667 86 93.667 140 105c2 0.666992 4 1 6 1l-22 25c-10 10 -14.667 21.833 -14 35.5s6 25.334 16 35.001s21.833 14.167 35.5 13.5s25.167 -6 34.5 -16c24 -26 50.333 -57 79 -93
l70 -93c7.33301 -8.66699 11 -18.667 11 -30c15.333 -49.333 16.333 -97.166 3 -143.499s-37 -86.5 -71 -120.5c-22.667 -23.333 -48.167 -41 -76.5 -53s-59.833 -16.167 -94.5 -12.5s-67.334 17.5 -98.001 41.5c-22 17.333 -38.833 38 -50.5 62
s-17.834 47.833 -18.501 71.5s1.66602 47.834 6.99902 72.501v1c-0.666992 0 -1.83398 1.33301 -3.50098 4s-3.16699 4.66699 -4.5 6c-0.666992 1.33301 -1.33398 2.33301 -2.00098 3c-19.333 8 -43 -1.33301 -71 -28c-1.33301 -33.333 -8.66602 -65 -21.999 -95
c-21.333 -48.667 -55 -85 -101 -109c-46.667 -24 -98.334 -24.667 -155.001 -2c-26 10 -48.833 25.333 -68.5 46s-34 43.167 -43 67.5s-14.5 50.333 -16.5 78s1.66699 54.167 11 79.5c-3.33301 16 0.666992 30 12 42z" />
    <glyph glyph-name="question" unicode="?" horiz-adv-x="826" 
d="M401 109l5.00098 10.999l34 77c14 31.333 22.333 49 25 53c-2.66699 10 -2.16699 20 1.5 30s9.83398 18 18.501 24c17.333 12 36.666 24.333 57.999 37c17.333 10 28.333 16.667 33 20c12.667 8.66699 24.667 25 36 49c16 33.333 18.333 76.666 7 129.999
c-8 36.667 -25.333 66.834 -52 90.501s-57.834 38 -93.501 43s-73.834 2.5 -114.501 -7.5c-61.333 -17.333 -106 -48.666 -134 -93.999c-31.333 -50 -34.333 -109.333 -9 -178c6.66699 -17.333 17.5 -32.5 32.5 -45.5s35.833 -25.833 62.5 -38.5
c13.333 -6.66699 22 -17.334 26 -32.001c6 -5.33301 10.667 -11.666 14 -18.999c12.667 -34.667 29.334 -84.667 50.001 -150zM324.001 21.999c-35.333 109.333 -57.665 176.332 -66.998 200.999v2c-70 36 -115 81 -135 135c-36 99.333 -30 187.666 18 264.999
c21.333 34 48.666 62.667 81.999 86s70 40.333 110 51c30 8.66699 60.833 13.334 92.5 14.001s63.334 -3 95.001 -11s60.667 -20.333 87 -37s49.333 -39.334 69 -68.001s33.5 -62 41.5 -100c15.333 -74.667 10.333 -138.667 -15 -192
c-18.667 -40 -41.334 -69.667 -68.001 -89l-41 -25c-13.333 -7.33301 -24.333 -14 -33 -20c0.666992 -10 -1 -19.333 -5 -28c-2 -3.33301 -5.66699 -11.333 -11 -24l-22 -50l-25 -54c-16 -34.667 -29.333 -61.667 -40 -81c-7.33301 -12.667 -14 -22.667 -20 -30
c-4 -6 -8.33301 -11 -13 -15c-10 -8.66699 -21.333 -13.667 -34 -15c-26 -2 -45 8.66699 -57 32c-4.66699 8.66699 -7.33398 19.334 -8.00098 32.001c0 2 -0.166992 5.33301 -0.5 10s-0.5 7.33398 -0.5 8.00098v3zM503.002 520.998c2 -6 3.66699 -13.001 5 -21.001
c9.33301 -40.667 -1 -69.667 -31 -87c-26 -16 -56.333 -16.333 -91 -1c-14 6.66699 -27 16.5 -39 29.5s-18 29.5 -18 49.5c0.666992 36.667 23 60 67 70c6.66699 1.33301 12 2.66602 16 3.99902c10 10.667 22.333 16.334 37 17.001c12 0 22.667 -3.66699 32 -11
s15.333 -16.666 18 -27.999c2.66699 -6.66699 4 -14 4 -22z" />
    <glyph glyph-name="at" unicode="@" horiz-adv-x="950" 
d="M672 518c-20.667 25.333 -41.3301 44.667 -61.9971 58c-36.667 24 -87.334 36 -152.001 36c-8.66699 0 -16.334 0.333008 -23.001 1s-10.334 1 -11.001 1s-3.33398 -0.333008 -8.00098 -1c-27.333 -7.33301 -52.666 -25.666 -75.999 -54.999
s-41.166 -65.833 -53.499 -109.5s-17 -85.667 -14 -126s13.167 -72.833 30.5 -97.5c30.667 -44.667 69 -76.167 115 -94.5s93.167 -22 141.5 -11s91.833 35.5 130.5 73.5c11.333 11.333 22.166 24.833 32.499 40.5s17.166 29.5 20.499 41.5
c4.66699 15.333 6.83398 30.666 6.50098 45.999s-1.5 28.833 -3.5 40.5s-7.33301 26.667 -16 45s-16 32.833 -22 43.5l-30 50c-3.33301 6 -5.33301 12 -6 18zM809.004 474.001c41.333 -80 51.334 -155.668 30.001 -227.001c-12.667 -43.333 -39 -84.666 -79 -123.999
c-52.667 -52 -112.334 -85.667 -179.001 -101c-67.333 -15.333 -133.333 -10.333 -198 15s-118.667 68.666 -162 129.999c-18.667 27.333 -32 59 -40 95s-11 71.833 -9 107.5s8 71.167 18 106.5c16 56 41.167 105.667 75.5 149s75.833 71.333 124.5 84c6 2 13 3.33301 21 4
s15 1 21 1l18 -2h8c84 0 152.667 -17.333 206 -52c46.667 -30 92.667 -81.667 138 -155c6 -9.33301 8.33301 -19.666 7 -30.999zM432.005 379l-58 79.001c-8.66699 11.333 -11.834 23.833 -9.50098 37.5s9 24.667 20 33s23.333 11.333 37 9s24.5 -8.83301 32.5 -19.5l42 -57
l53 67c8 10.667 19 16.834 33 18.501s26.333 -1.66602 37 -9.99902s16.834 -19.5 18.501 -33.5s-1.83301 -26.333 -10.5 -37l-69 -88l72 -92c8.66699 -10.667 12.334 -22.834 11.001 -36.501s-7.5 -24.834 -18.5 -33.501s-23.333 -12.334 -37 -11.001
s-24.834 7.66602 -33.501 18.999l-58 73l-52 -63c-8.66699 -10.667 -20 -16.667 -34 -18c-13.333 -1.33301 -25.333 2.5 -36 11.5s-16.667 20.333 -18 34s2.66699 25.834 12 36.501z" />
    <glyph glyph-name="A" unicode="A" horiz-adv-x="745" 
d="M420 281c-35.333 -8.66699 -70.499 -12.666 -105.499 -11.999s-69.833 9 -104.5 25c-34.667 16.667 -64 40 -88 70c-19.333 24 -31.333 51.167 -36 81.5s-3.33398 58.5 3.99902 84.5c6.66699 25.333 17.334 50.666 32.001 75.999c22 37.333 49.667 69.333 83 96
c34 27.333 69.333 44 106 50c59.333 10.667 122.333 -7.66602 189 -54.999l6 -6c13.333 -1.33301 24.333 -7.66602 33 -18.999c56.667 -74 77.334 -146.333 62.001 -217c-11.333 -52.667 -41.333 -96.667 -90 -132c55.333 -95.333 98.666 -182 129.999 -260
c5.33301 -12.667 5.33301 -25.334 0 -38.001s-14.333 -21.667 -27 -27s-25.334 -5.33301 -38.001 0s-21.667 14.333 -27 27c-30.667 75.333 -73.667 160.666 -129 255.999zM442.001 615.001c-44.667 31.333 -82.3311 44.334 -112.998 39.001
c-20 -4 -41.333 -14.833 -64 -32.5s-41.667 -39.5 -57 -65.5c-15.333 -26.667 -23.5 -51.5 -24.5 -74.5s4.5 -41.5 16.5 -55.5c23.333 -28.667 55.166 -46.834 95.499 -54.501s78.5 -3.83398 114.5 11.499c2 0.666992 3.66699 1.66699 5 3c5.33301 3.33301 11 5.33301 17 6
l5 3c37.333 20.667 59.666 48 66.999 82c8 38.667 -5.66699 82 -41 130c-7.33301 0.666992 -14.333 3.33398 -21 8.00098z" />
    <glyph glyph-name="B" unicode="B" horiz-adv-x="703" 
d="M332 119c1.33301 2 2.66504 4.66797 3.99805 8.00098s2.33301 6.16602 3 8.49902s1.33398 4.16602 2.00098 5.49902l45 103l54 126c14.667 35.333 28.334 70.333 41.001 105c4.66699 12 12.667 21 24 27c-0.666992 1.33301 -1 2.33301 -1 3
c-7.33301 35.333 -14 61.5 -20 78.5s-15.667 31.5 -29 43.5c-12 10 -26.833 16.333 -44.5 19s-43.167 3.66699 -76.5 3c-44.667 -1.33301 -81.167 -15.166 -109.5 -41.499s-45.833 -61.833 -52.5 -106.5c18 -37.333 42.667 -97 74 -179c32 -84.667 57.333 -145.667 76 -183z
M380.999 579.001l1.00098 0.00195312c13.333 -2 24.166 -8.5 32.499 -19.5s11.833 -23.5 10.5 -37.5l-1 -3c0.666992 0 1 -1.66699 1 -5v-13c0 -24 -6.66699 -43.667 -20 -59c-16 -17.333 -37.667 -27 -65 -29c-25.333 -2 -47.333 3.33301 -66 16
c-13.333 10 -22.5 22.667 -27.5 38s-4.16699 31.666 2.5 48.999c8.66699 24 30 48 64 72c10.667 7.33301 22.5 10.166 35.5 8.49902s23.833 -7.5 32.5 -17.5zM71 506.003c8.66699 70.667 36.3301 128.331 82.9971 172.998s106 68 178 70c18 0 36.833 0.166992 56.5 0.5
s42.167 -3.5 67.5 -11.5s47 -20.333 65 -37c17.333 -14.667 31.833 -33.167 43.5 -55.5s19.334 -40.666 23.001 -54.999s7.83398 -33.166 12.501 -56.499c0.666992 -4 1.33398 -7 2.00098 -9c2 -11.333 0.666992 -22 -4 -32s-12 -17.333 -22 -22
c2.66699 -10 2.33398 -20 -0.999023 -30l-41 -107l-56 -128c-21.333 -48.667 -36.333 -83.667 -45 -105c-0.666992 -1.33301 -2.33398 -5.66602 -5.00098 -12.999l-9 -22c-3.33301 -8.66699 -6.66602 -16.334 -9.99902 -23.001c-7.33301 -15.333 -14.333 -28 -21 -38
c-14.667 -21.333 -31.334 -33.333 -50.001 -36c-22.667 -4 -41.334 3 -56.001 21c-6.66699 7.33301 -12 17 -16 29c-1.33301 5.33301 -2.33301 9.5 -3 12.5s-1 4.83301 -1 5.5v2l-1 1c-16 30.667 -25.667 49 -29 55c-19.333 40 -45.666 103.667 -78.999 191
c-32 84 -57.667 144.333 -77 181c-4 8.66699 -5.66699 18 -5 28v11z" />
    <glyph glyph-name="C" unicode="C" horiz-adv-x="869" 
d="M578 702c11.333 0 21.668 -3.66602 31.001 -10.999l18 -13l20 -16l17 -16c7.33301 -6 13.833 -12.667 19.5 -20s11.5 -15.333 17.5 -24c24 -34.667 41.667 -76.5 53 -125.5s16.333 -99.167 15 -150.5c-1.33301 -52.667 -9.83301 -103 -25.5 -151
s-38.834 -87.667 -69.501 -119c-26 -26.667 -61.333 -46.334 -106 -59.001s-91.5 -19.167 -140.5 -19.5s-95.833 5.83398 -140.5 18.501s-80.334 32.334 -107.001 59.001c-11.333 12 -24.333 32.667 -39 62c-10 20 -18.333 38.667 -25 56
c-24.667 69.333 -31 143.666 -19 222.999c12 78 39 148 81 210c47.333 69.333 104 113.666 170 132.999c74.667 22 151.334 9.66699 230.001 -37zM531.002 614.001c-55.333 34 -107.005 43.999 -155.005 29.999c-44 -13.333 -82.5 -44.5 -115.5 -93.5
s-54.333 -105.667 -64 -170s-5.16699 -121.5 13.5 -171.5c6 -16.667 13 -32.667 21 -48c8.66699 -19.333 15.667 -31.333 21 -36c13.333 -14 36 -25.5 68 -34.5s67.833 -13.333 107.5 -13s75.334 5 107.001 14s54.167 20.5 67.5 34.5c20 20 35.833 48 47.5 84
s18.167 75.667 19.5 119c1.33301 42.667 -2.33398 83.334 -11.001 122.001c-9.33301 38.667 -22.333 70.334 -39 95.001c-2.66699 4 -5 7.33301 -7 10c-2.66699 3.33301 -5.66699 6.66602 -9 9.99902l-7 7c-1.33301 1.33301 -4.16602 4 -8.49902 8
s-7.16602 6.33301 -8.49902 7s-5.16602 3.5 -11.499 8.5s-10.166 8.16699 -11.499 9.5c-9.33301 0 -17.666 2.66699 -24.999 8zM472.997 381c1.33301 -36.667 2.00098 -107.001 2.00098 -211.001c0 -14 -4.83301 -25.833 -14.5 -35.5s-21.5 -14.5 -35.5 -14.5
s-25.833 4.83301 -35.5 14.5s-14.5 21.5 -14.5 35.5c0 102.667 -0.666992 171.667 -2 207c-0.666992 14 3.66602 26 12.999 36s21 15.333 35 16s26 -3.66602 36 -12.999s15.333 -21 16 -35zM473.998 578.999l1 -51c0 -14 -4.66699 -26 -14 -36s-21 -15 -35 -15
s-26 4.66699 -36 14s-15 21 -15 35l-1 51c0 14 4.66699 26 14 36s21 15 35 15s26 -4.66699 36 -14s15 -21 15 -35z" />
    <glyph glyph-name="D" unicode="D" horiz-adv-x="883" 
d="M442 124l73.001 105c2.66699 3.33301 5 6 7 8c3.33301 11.333 9.5 20.5 18.5 27.5s19.167 10.5 30.5 10.5c0.666992 0 11 -0.166992 31 -0.5s37 -0.5 51 -0.5h30v30c0 35.333 -1.66699 86 -5 152c-4 73.333 -8.33301 140.333 -13 201c-25.333 0 -66 -2.33301 -122 -7
c-59.333 -4 -105 -6 -137 -6c-30 0 -87 2.66699 -171 8c-52.667 3.33301 -93.334 5.33301 -122.001 6l5 -179l4 -130c0.666992 -21.333 1.33398 -35.666 2.00098 -42.999v-4l6 -4c1.33301 0 2.66602 -0.333008 3.99902 -1c4.66699 0 11.667 -0.333008 21 -1
c16 -0.666992 37.333 -1.33398 64 -2.00098c30.667 -0.666992 68 -1 112 -1c9.33301 0 18 -2.33301 26 -7c10 -0.666992 19 -4 27 -10s13.667 -14 17 -24c10 -29.333 23.667 -72 41 -128zM761.001 718c4.66699 -49.333 10.3359 -134.999 17.0029 -256.999
c3.33301 -64.667 5 -116.667 5 -156c0.666992 -23.333 0.333984 -42 -0.999023 -56c-0.666992 -8 -1.33398 -15 -2.00098 -21c-2.66699 -14.667 -8.33398 -26 -17.001 -34c-6.66699 -6.66699 -14.667 -11.334 -24 -14.001c-3.33301 -1.33301 -7.33301 -2.33301 -12 -3
c-5.33301 -0.666992 -12.666 -1.33398 -21.999 -2.00098c-12.667 -0.666992 -30 -1 -52 -1c-14.667 0 -32.667 0.333008 -54 1l-2 -4l-88 -125c-12 -16.667 -22 -29 -30 -37c-20 -18.667 -41 -25.334 -63 -20.001c-20 4.66699 -35.667 18.334 -47 41.001
c-4.66699 10 -10.334 25 -17.001 45l-14 47l-22 71c-37.333 0 -70.333 0.333008 -99 1c-27.333 0.666992 -49.666 1.33398 -66.999 2.00098c-10.667 0.666992 -19.667 1.33398 -27 2.00098c-10.667 1.33301 -19.334 3 -26.001 5c-32 12.667 -54.667 33.667 -68 63l-4 16v5
c-0.666992 4 -1 8.66699 -1 14c-0.666992 8 -1.33398 22.667 -2.00098 44c-1.33301 34 -2.66602 77.667 -3.99902 131c-0.666992 26.667 -1.33398 57.334 -2.00098 92.001l-3 83c-0.666992 21.333 -1 34.666 -1 39.999c-0.666992 13.333 3.33301 25 12 35
c4 9.33301 10.167 17 18.5 23s17.5 9 27.5 9c41.333 0.666992 98.666 -1.33301 171.999 -6c84 -5.33301 138.667 -8 164 -8c29.333 0 72.666 2 129.999 6c66.667 4.66699 112.334 7 137.001 7c4 0 8 -0.333008 12 -1c6 4 13 6.33301 21 7
c13.333 1.33301 25.5 -2.33398 36.5 -11.001s17.167 -20 18.5 -34z" />
    <glyph glyph-name="E" unicode="E" horiz-adv-x="910" 
d="M137 53c72 2 160.334 1.66699 265.001 -1c183.333 -4.66699 281.666 -7 294.999 -7l-51 115l-53 122c-13.333 30 -30.333 65.833 -51 107.5s-41 79.834 -61 114.501l-46 76c-10.667 16.667 -19.667 29.667 -27 39c-6.66699 -6.66699 -14.334 -16.667 -23.001 -30
c-8.66699 -14 -18.667 -31.667 -30 -53l-11 -24c-5.33301 -10.667 -9 -17.667 -11 -21c-23.333 -42.667 -47.666 -91.834 -72.999 -147.501l-60 -135.5zM21.001 34l32.998 82.002l36 88l34 82l40 89l38 79c14.667 30.667 29 59 43 85c2 3.33301 5.33301 9.66602 10 18.999
l11 23c12.667 24.667 24.334 45.667 35.001 63c17.333 26 34.333 45.667 51 59c30.667 24 61.334 29.667 92.001 17c9.33301 -3.33301 18.333 -10 27 -20c4.66699 -4.66699 10 -11 16 -19c8.66699 -12 19.334 -28 32.001 -48l48 -79
c28.667 -49.333 56.167 -101.333 82.5 -156s55.5 -119.334 87.5 -194.001l68 -157c6 -12 6.83301 -24.333 2.5 -37s-12.5 -22 -24.5 -28c-2.66699 -10.667 -8.5 -19.5 -17.5 -26.5s-19.167 -10.5 -30.5 -10.5c-33.333 0 -145.333 2.33301 -336 7
c-142 3.33301 -252 2.66602 -330 -2.00098c-14 -0.666992 -26.167 3.5 -36.5 12.5s-15.833 20.5 -16.5 34.5c0 4.66699 0.333008 9.33398 1 14.001c-0.666992 8 0.666016 15.667 3.99902 23zM464.999 447.002c1.33301 -12 4.66406 -65.667 9.99707 -161
c0.666992 -14 -3.5 -26.167 -12.5 -36.5s-20.5 -15.833 -34.5 -16.5s-26 3.66602 -36 12.999c-10.667 8.66699 -16.334 20 -17.001 34c-5.33301 93.333 -8.66602 145 -9.99902 155c-1.33301 14 2.33398 26.333 11.001 37s19.834 16.834 33.501 18.501
s25.834 -1.83301 36.501 -10.5s17 -19.667 19 -33zM465.997 197.002c10 -9.33301 15 -21 15 -35s-4.83301 -25.833 -14.5 -35.5s-21.5 -14.5 -35.5 -14.5s-25.833 4.83301 -35.5 14.5s-14.5 21.5 -14.5 35.5s4.83301 25.833 14.5 35.5s21.5 14.5 35.5 14.5s25.667 -5 35 -15
z" />
    <glyph glyph-name="F" unicode="F" horiz-adv-x="621" 
d="M419 481c0 6.66699 0.333984 14.8359 1.00098 24.5029s1 16.167 1 19.5s-0.166992 7.66602 -0.5 12.999s-1.16602 10 -2.49902 14l-5 15c-6.66699 15.333 -18 31.333 -34 48s-33.333 29.334 -52 38.001c-17.333 8.66699 -32.333 11.667 -45 9
c-11.333 -1.33301 -21 -8.33301 -29 -21c-6.66699 -10 -12.667 -42.333 -18 -97c-4 -36.667 -7 -80 -9 -130h50c14 0 25.833 -4.83301 35.5 -14.5s14.5 -21.5 14.5 -35.5s-4.83301 -25.833 -14.5 -35.5s-21.5 -14.5 -35.5 -14.5c-17.333 0 -34.666 0.333008 -51.999 1
c-2 -139.333 0 -240.333 6 -303c1.33301 -14 -2.5 -26.333 -11.5 -37s-20.333 -16.667 -34 -18s-25.834 2.5 -36.501 11.5s-16.667 20.167 -18 33.5c-6.66699 66.667 -8.66699 172 -6 316l-64 4c-13.333 1.33301 -24.5 7.16602 -33.5 17.499s-13 22.333 -12 36
s6.66699 25 17 34s22.5 13.167 36.5 12.5l58 -4c2.66699 53.333 5.66699 98.666 9 135.999c7.33301 70.667 18.666 117.667 33.999 141c24 37.333 56.333 59.333 97 66c32.667 5.33301 67 -0.333984 103 -17.001c30 -14 57.5 -33.833 82.5 -59.5s42.833 -52.167 53.5 -79.5
c10 -23.333 15.333 -46.5 16 -69.5s0 -42.5 -2 -58.5c-0.666992 -13.333 -6 -24.833 -16 -34.5s-21.833 -14.167 -35.5 -13.5s-25.334 6 -35.001 16s-14.167 22 -13.5 36z" />
    <glyph glyph-name="G" unicode="G" horiz-adv-x="761" 
d="M373 513c32.667 19.333 68.332 28.335 106.999 27.002c58.667 -1.33301 104 -26 136 -74c22.667 -34.667 37 -81.334 43 -140.001c1.33301 -15.333 2.16602 -32 2.49902 -50s0.333008 -33.5 0 -46.5s-1.5 -29.667 -3.5 -50s-3.33301 -34.333 -4 -42
s-2.16699 -21.334 -4.5 -41.001s-3.5 -29.834 -3.5 -30.501c-2 -13.333 -8.33301 -24.333 -19 -33s-22.834 -12.167 -36.501 -10.5s-24.834 7.83398 -33.501 18.501s-12.334 23 -11.001 37l4 31c2.66699 20.667 4.33398 34 5.00098 40s1.83398 18.667 3.50098 38
s2.66699 34.5 3 45.5s0.5 24.5 0.5 40.5c-0.666992 15.333 -1.66699 30 -3 44c-4 42 -13 73.333 -27 94c-12 18.667 -30 28.334 -54 29.001c-19.333 0.666992 -36 -3 -50 -11s-30.667 -22 -50 -42h-1c0.666992 -32.667 2.33398 -85.834 5.00098 -159.501
s4.33398 -130.167 5.00098 -169.5c0 -14 -4.66699 -26 -14 -36s-21 -15 -35 -15s-26 4.66699 -36 14s-15 21 -15 35c-0.666992 35.333 -2.66699 103.833 -6 205.5s-5 180.167 -5 235.5c0 14 4.83301 25.833 14.5 35.5s21.5 14.5 35.5 14.5
c10.667 0 20.334 -3.16699 29.001 -9.5s14.667 -14.5 18 -24.5zM216.998 480.002c-2 -50.667 -0.999023 -119.331 3.00098 -205.998c5.33301 -115.333 8 -186 8 -212c0 -14 -4.83301 -25.833 -14.5 -35.5s-21.5 -14.5 -35.5 -14.5s-25.833 4.83301 -35.5 14.5
s-14.5 21.5 -14.5 35.5c0 37.333 -2.33301 106.666 -7 207.999c-4.66699 96 -6 167.333 -4 214c0.666992 14 6 25.667 16 35s22 13.666 36 12.999s25.667 -6 35 -16s13.666 -22 12.999 -36zM211.999 672.005c10 -9.33301 15 -21 15 -35s-4.83301 -25.833 -14.5 -35.5
s-21.5 -14.5 -35.5 -14.5s-25.833 4.83301 -35.5 14.5s-14.5 21.5 -14.5 35.5s4.83301 25.833 14.5 35.5s21.5 14.5 35.5 14.5s25.667 -5 35 -15z" />
    <glyph glyph-name="H" unicode="H" horiz-adv-x="713" 
d="M239 408c-15.333 0 -36.999 -0.329102 -64.999 -0.996094s-47.667 -1 -59 -1c-14 0 -26 4.66699 -36 14s-15 21 -15 35s4.66699 26 14 36s21 15 35 15c12.667 0 34 0.333008 64 1s53 1 69 1c6 49.333 16 111.333 30 186c2.66699 14 9.66699 24.833 21 32.5
s23.833 10.167 37.5 7.5s24.334 -9.66699 32.001 -21s10.167 -23.666 7.5 -36.999c-12 -65.333 -20.667 -120 -26 -164c39.333 2 75.666 5 108.999 9c14 1.33301 26.333 -2.33398 37 -11.001s16.834 -19.834 18.501 -33.501s-1.83301 -25.834 -10.5 -36.501
s-19.667 -17 -33 -19c-38.667 -4 -82 -7.33301 -130 -10c-4.66699 -100 6.33301 -187.667 33 -263c7.33301 -20.667 15 -38.167 23 -52.5s15.167 -24.5 21.5 -30.5s12.5 -10.833 18.5 -14.5s10.667 -5 14 -4s5.66602 1.16699 6.99902 0.5c12.667 4 25.167 18.167 37.5 42.5
s18.833 58.166 19.5 101.499c0 14 5 25.667 15 35s22 14 36 14s25.667 -5 35 -15s14 -22 14 -36c-1.33301 -57.333 -12.833 -108 -34.5 -152s-51.834 -72.333 -90.501 -85c-44.667 -14.667 -85.5 -6.33398 -122.5 24.999s-66.167 77 -87.5 137
c-30.667 86 -43.667 184 -39 294z" />
    <glyph glyph-name="I" unicode="I" horiz-adv-x="848" 
d="M615 671c8.66699 -4.66699 15.3311 -11.3379 19.998 -20.0049l31 -57c6.66699 -12 16 -30.667 28 -56s20.667 -45.833 26 -61.5s11.166 -36 17.499 -61s9.83301 -47.667 10.5 -68s-0.166016 -43.166 -2.49902 -68.499s-7.16602 -50.333 -14.499 -75
c-19.333 -64 -53.333 -114.667 -102 -152s-104 -59.333 -166 -66c-60 -7.33301 -118.833 0.333984 -176.5 23.001s-105.5 58.334 -143.5 107.001c-36 46 -55.667 107 -59 183c-3.33301 83.333 1.33398 147 14.001 191c15.333 53.333 41 102.333 77 147
s77.333 78.334 124 101.001c34 17.333 68.5 27.166 103.5 29.499s70.833 -4.16699 107.5 -19.5s70.667 -39.666 102 -72.999c1.33301 -1.33301 2.33301 -2.66602 3 -3.99902zM525.997 339.996c40.667 8 81.332 11.3311 121.999 9.99805c-4 38.667 -16 81.334 -36 128.001
c-26 -30.667 -58 -57 -96 -79c0.666992 -4.66699 1.33398 -9 2.00098 -13c3.33301 -15.333 6 -30.666 8 -45.999zM531.995 238.994c-0.666992 -48.667 -5.66699 -94.666 -15 -137.999c60 25.333 99.333 69 118 131c2 6 3.66699 12 5 18
c-36 1.33301 -72 -2.33398 -108 -11.001zM429.995 200.995c-47.333 -25.333 -86 -57.001 -116 -95.001c30 -13.333 61.667 -20.666 95 -21.999c11.333 34 18.333 73 21 117zM427.995 309.994c-1.33301 16.667 -3.33301 33.001 -6 49.001c-86.667 -24 -163 -18 -229 18
c-3.33301 2 -6.66602 4.33301 -9.99902 7c-0.666992 -19.333 -0.333984 -46.333 0.999023 -81c2 -54.667 14.333 -96.334 37 -125.001l12 -14c48.667 64 113.667 112.667 195 146zM537.995 606.995c-48 52.667 -101.668 71 -161.001 55c46 -40 82.333 -94.667 109 -164
c34.667 24 59.334 51.333 74.001 82l-10 18c-4.66699 2 -8.66699 5 -12 9zM213.994 493.995c4 -3.33301 7.99902 -7.66797 11.999 -13.001l9 -10l6 -6c42.667 -23.333 94.334 -26.666 155.001 -9.99902c-27.333 72 -65 122.667 -113 152c-32 -30 -57 -65.667 -75 -107z" />
    <glyph glyph-name="J" unicode="J" horiz-adv-x="988" 
d="M787 59l-1.99902 12c-2.66699 18 -5.66699 32.667 -9 44c-10.667 35.333 -22 57.333 -34 66c-20.667 13.333 -53.667 20 -99 20c-17.333 0 -39.333 -1 -66 -3c-38.667 -3.33301 -60 -5 -64 -5c-3.33301 0 -11.5 -0.333008 -24.5 -1s-21.333 -1.16699 -25 -1.5
s-11.5 -0.833008 -23.5 -1.5s-20.333 -1.33398 -25 -2.00098s-12.167 -1.5 -22.5 -2.5s-18.333 -2 -24 -3s-12.834 -2.16699 -21.501 -3.5s-16 -2.66602 -22 -3.99902l-19 -6c-7.33301 -2 -14 -4.33301 -20 -7c-28 -11.333 -47.667 -27 -59 -47
c-8 -13.333 -12.667 -29.333 -14 -48c74 4.66699 154 7 240 7c2.66699 0 60.667 -2.66699 174 -8c2.66699 0 17.5 -1.16699 44.5 -3.5s49.167 -3.83301 66.5 -4.5c20.667 0 37 0.666992 49 2zM591.001 745c10.667 3.33301 21.3311 2.66602 31.998 -2.00098s19 -12 25 -22
c0.666992 -1.33301 6.5 -11.833 17.5 -31.5s19 -34.334 24 -44.001s10.833 -23.667 17.5 -42s11.334 -34.833 14.001 -49.5c6.66699 -48 -1.66602 -91.333 -24.999 -130s-55.333 -68 -96 -88c-25.333 -12.667 -52 -21 -80 -25c-28.667 -4 -57.834 -2.66699 -87.501 4
s-56.834 19.334 -81.501 38.001c-32.667 24.667 -54.667 55.667 -66 93c-11.333 36.667 -13.666 74.667 -6.99902 114c6 36.667 19.333 71.334 40 104.001s46.334 58.334 77.001 77.001c22 12.667 46.333 20.167 73 22.5s48.167 1.66602 64.5 -2.00098
s35.833 -9.16699 58.5 -16.5zM116.998 3c-10 64.667 -1.99805 118.667 24.002 162c22.667 38.667 58.334 68 107.001 88c10 4 20.833 7.83301 32.5 11.5s22.167 6.5 31.5 8.5s21 4.16699 35 6.5s25 4 33 5s19.667 2 35 3s25.666 1.83301 30.999 2.5l33 2
c16 0.666992 25.333 1 28 1c3.33301 0 24 1.66699 62 5c29.333 2 54 3 74 3c66 0 117.667 -12.667 155 -38c11.333 -7.33301 21.5 -16.166 30.5 -26.499s16.333 -21.833 22 -34.5s9.5 -22.667 11.5 -30l10 -29c4 -14 8 -32.667 12 -56c2.66699 -14.667 4 -27 4 -37
c1.33301 -21.333 -2 -38 -10 -50c-13.333 -20.667 -37 -33.667 -71 -39c-18.667 -3.33301 -42.334 -4.66602 -71.001 -3.99902c-18 0.666992 -40.833 2.16699 -68.5 4.5s-42.5 3.5 -44.5 3.5c-112 5.33301 -168.667 8 -170 8c-94 0 -184.333 -3 -271 -9
c-2.66699 -1.33301 -5.33398 -2 -8.00098 -2c-14 -2.66699 -26.5 0.166016 -37.5 8.49902s-17.5 19.166 -19.5 32.499zM567 647c-20 6.66699 -36.4971 11.501 -49.4971 14.501s-25.667 4.16699 -38 3.5s-23.166 -4 -32.499 -10c-17.333 -10 -32.333 -25 -45 -45
c-12.667 -20.667 -21 -43 -25 -67c-8.66699 -50 2.66602 -86.667 33.999 -110c20 -14.667 43.167 -22.667 69.5 -24s51.166 4 74.499 16s41.166 28 53.499 48s16.5 42.333 12.5 67c-2.66699 21.333 -18 56.666 -46 105.999c-2.66699 0 -5.33398 0.333008 -8.00098 1z" />
    <glyph glyph-name="K" unicode="K" horiz-adv-x="886" 
d="M653 468l-2.00098 -0.00292969c-4.66699 0 -9.66699 -0.166992 -15 -0.5s-10 -0.666016 -14 -0.999023s-7.83301 -0.5 -11.5 -0.5s-6.5 -0.166992 -8.5 -0.5s-3.33301 -0.5 -4 -0.5c-82 -4 -198.333 -7.33301 -349 -10c0.666992 -12 1 -27.667 1 -47
c0.666992 -46.667 1.66699 -97.667 3 -153l5 -146c0.666992 -15.333 1.33398 -27.666 2.00098 -36.999c1.33301 -0.666992 2.33301 -1 3 -1c16 -2.66699 37.333 -4 64 -4c20.667 -0.666992 46.334 -0.666992 77.001 0l47 1c2.66699 0 51.667 -0.666992 147 -2
c47.333 -0.666992 76.333 -1 87 -1h1v13c0 28.667 -2.66699 68 -8 118c-2.66699 29.333 -7.33398 72 -14.001 128c-6.66699 54 -10 83 -10 87c-0.666992 16.667 -1 34.334 -1 53.001v4zM319.999 555.997c93.333 2 172.334 4.33398 237.001 7.00098l-2 4
c-6.66699 30 -13.5 52.5 -20.5 67.5s-17.167 25.833 -30.5 32.5c-12.667 7.33301 -29.5 10.666 -50.5 9.99902s-42 -5.66699 -63 -15s-37.833 -21 -50.5 -35s-20.334 -28.333 -23.001 -43c0 -2 1 -11.333 3 -28zM653 567.998
c14 0.666992 25.3389 0.665039 34.0059 -0.00195312c7.33301 0 13.666 -0.333008 18.999 -1c4.66699 -0.666992 8.66699 -1.66699 12 -3c9.33301 -3.33301 17.333 -8.33301 24 -15c16 -17.333 21 -40 15 -68c-0.666992 -4.66699 -1.33398 -8.16699 -2.00098 -10.5
s-1.16699 -3.83301 -1.5 -4.5s-0.5 -1.33398 -0.5 -2.00098c0 -17.333 0.333008 -33 1 -47c0.666992 -8.66699 3.66699 -35.667 9 -81l15 -130c5.33301 -53.333 8 -95.666 8 -126.999c0 -20.667 -1 -37.667 -3 -51c-4 -25.333 -14 -43.333 -30 -54l-17 -8
c-1.33301 0 -3 -0.333008 -5 -1h-4h-4h-9h-29c-12 0 -41.667 0.333008 -89 1c-94.667 1.33301 -143 2 -145 2l-47 -1c-32 -0.666992 -58.333 -0.666992 -79 0c-31.333 0.666992 -57 2.33398 -77 5.00098c-34.667 5.33301 -58.667 16.333 -72 33
c-2.66699 3.33301 -5 6.83301 -7 10.5s-3.33301 6.83398 -4 9.50098v3l-2 8c-0.666992 4.66699 -1.33398 10.667 -2.00098 18c-0.666992 12 -1.66699 28.667 -3 50l-5 148c-1.33301 56 -2.33301 107.667 -3 155c-0.666992 34 -0.666992 57.667 0 71
c-5.33301 7.33301 -8 15.666 -8 24.999c0 14 4.66699 26 14 36s21 15 35 15l28 1c-2 18.667 -2 33.667 0 45c5.33301 34.667 20.166 65.334 44.499 92.001s53.166 47.334 86.499 62.001c32.667 14 66.167 21.667 100.5 23s68.166 -6 101.499 -22
c14 -7.33301 26.5 -16.833 37.5 -28.5s19.667 -22.334 26 -32.001s12.333 -22.5 18 -38.5s9.16699 -27.333 10.5 -34l9 -31c1.33301 -8 1.33301 -15.667 0 -23zM500.006 367.996c0.666992 -20 1.83301 -48.3311 3.5 -84.998s2.83398 -60.667 3.50098 -72
c0.666992 -14 -3.66602 -26 -12.999 -36s-21 -15.333 -35 -16s-26 3.66602 -36 12.999s-15.333 21 -16 35c-0.666992 11.333 -1.83398 35.666 -3.50098 72.999s-2.83398 66 -3.50098 86c0 14 4.66699 26 14 36s21 15 35 15s26 -4.66699 36 -14s15 -21 15 -35z" />
    <glyph glyph-name="L" unicode="L" horiz-adv-x="917" 
d="M163 305c52 -62.667 118.501 -109.333 199.501 -140s158.5 -36.667 232.5 -18c22 6 42.667 18.5 62 37.5s42 46.167 68 81.5c2 3.33301 4.33301 6.33301 7 9c-7.33301 7.33301 -12 16 -14 26c-12 59.333 -27.667 101.333 -47 126c-38 49.333 -99 74.666 -183 75.999
c-38.667 0.666992 -76.334 -4.33301 -113.001 -15c-37.333 -11.333 -69.333 -26.666 -96 -45.999c-50 -35.333 -88.667 -81 -116 -137zM517.001 422.001c20.667 -7.33301 36.334 -17.998 47.001 -31.998c14 -18 22 -36.667 24 -56s-3.66699 -39.333 -17 -60
c-20.667 -26.667 -52 -39.334 -94 -38.001c-36.667 1.33301 -64.667 16 -84 44c-11.333 15.333 -17 32.333 -17 51s5.66699 37 17 55c8.66699 14 22.334 25.333 41.001 34c11.333 12.667 25.666 18 42.999 16c15.333 1.33301 28.666 -3.33398 39.999 -14.001z
M64.001 329.003c35.333 80.667 87.666 145.666 156.999 194.999c36 25.333 77.667 45 125 59s95 20.667 143 20c52 0 101 -9.33301 147 -28s84.333 -47.334 115 -86.001c12.667 -16.667 23.667 -35.834 33 -57.501s15.833 -40 19.5 -55s7.83398 -33.5 12.501 -55.5
c4 -19.333 -1.33301 -35.333 -16 -48c8.66699 -8.66699 13.667 -19.167 15 -31.5s-2 -23.5 -10 -33.5l-25 -35c-5.33301 -7.33301 -15.166 -19 -29.499 -35s-27 -28.5 -38 -37.5s-25 -18.5 -42 -28.5s-34.167 -17 -51.5 -21c-100 -25.333 -201.833 -16.666 -305.5 26.001
s-185.834 105.334 -246.501 188.001c-10.667 14.667 -13 30.334 -7 47.001c0.666992 6 2 11.667 4 17z" />
    <glyph glyph-name="M" unicode="M" horiz-adv-x="873" 
d="M489 279l1 -1c17.333 -14.667 28 -31 32 -49c4.66699 -21.333 3.16699 -40.666 -4.5 -57.999s-19.834 -31 -36.501 -41c-27.333 -16.667 -56.333 -20.334 -87 -11.001c-17.333 4.66699 -32.166 14.5 -44.499 29.5s-16.5 33.833 -12.5 56.5
c4.66699 28.667 25 57.334 61 86.001l4 4c4.66699 4 9.66699 7 15 9c10.667 6.66699 22.5 8.66699 35.5 6s23.167 -9.33398 30.5 -20.001c2 -3.33301 4 -7 6 -11zM62 502c100.667 102.667 222.336 156.999 365.003 162.999c21.333 0.666992 42.166 1.16699 62.499 1.5
s43 -1.66699 68 -6s48.167 -10.833 69.5 -19.5c18.667 -8 37.334 -19.5 56.001 -34.5s32.5 -27.333 41.5 -37s21.167 -23.834 36.5 -42.501c9.33301 -10.667 13.333 -22.834 12 -36.501s-7.33301 -25 -18 -34s-22.834 -12.833 -36.501 -11.5s-24.834 7.33301 -33.501 18
c-20.667 24.667 -38 43.334 -52 56.001s-29.333 22.667 -46 30c-20 8.66699 -43.833 14 -71.5 16s-55.834 2 -84.501 0c-60 -2.66699 -114 -14.667 -162 -36s-93 -53.666 -135 -96.999c-10 -10 -21.833 -15 -35.5 -15s-25.5 4.83301 -35.5 14.5s-15 21.334 -15 35.001
s4.66699 25.5 14 35.5zM149.002 350.999c0.666992 0.666992 2.49512 3.50293 5.49512 8.50293s6.33301 10.167 10 15.5s8.16699 11.5 13.5 18.5s10.333 12.5 15 16.5c41.333 35.333 103.333 60 186 74c80 12.667 146 10 198 -8
c6.66699 -2.66699 14.334 -6.16699 23.001 -10.5s17 -8.83301 25 -13.5s12.333 -7.33398 13 -8.00098c12 -6.66699 20 -16.5 24 -29.5s2.66699 -25.667 -4 -38s-16.5 -20.5 -29.5 -24.5s-25.833 -2.66699 -38.5 4c-7.33301 4 -14 8 -20 12s-10.833 7 -14.5 9
s-7.83398 3.66699 -12.501 5c-35.333 12 -84.666 13 -147.999 3c-64 -10.667 -109.333 -27.667 -136 -51c-3.33301 -2.66699 -5.66602 -5.33398 -6.99902 -8.00098l-8 -12c-3.33301 -6 -7.66602 -13 -12.999 -21c-8.66699 -11.333 -19.667 -18.166 -33 -20.499
s-25.666 0.666992 -36.999 9s-18.166 19.166 -20.499 32.499s0.5 25.666 8.5 36.999z" />
    <glyph glyph-name="N" unicode="N" horiz-adv-x="721" 
d="M500 324l-68.002 78c-33.333 38.667 -59.666 68 -78.999 88c-19.333 20.667 -46.666 45.667 -81.999 75l-27 23c-6 -173.333 -6.33301 -321 -1 -443c89.333 57.333 175 117 257 179zM248.998 715c10.667 -10 39.3311 -34.668 85.998 -74.001
c38 -31.333 68 -58.333 90 -81c19.333 -20.667 46.333 -51.167 81 -91.5s60 -68.833 76 -85.5c6 -6.66699 10 -14 12 -22c6.66699 -3.33301 12 -8 16 -14c8.66699 -10.667 12.167 -23 10.5 -37s-7.83398 -25 -18.501 -33c-120 -94 -247.667 -182.667 -383 -266
c-12 -6.66699 -24.667 -8.5 -38 -5.5s-23.666 10.5 -30.999 22.5c-8.66699 14.667 -9.66699 30 -3 46c-0.666992 3.33301 -1 6.33301 -1 9c-8 147.333 -8.33301 331.333 -1 552c0.666992 16 7.33398 28.667 20.001 38c-1.33301 14.667 3 27.667 13 39
c9.33301 10 20.833 15.333 34.5 16s25.834 -3.66602 36.501 -12.999z" />
    <glyph glyph-name="O" unicode="O" horiz-adv-x="850" 
d="M640 589h-17.999l-148 5c-137.333 4.66699 -219 7.66699 -245 9c2.66699 -161.333 4.33398 -286.666 5.00098 -375.999v-63h9c30 0.666992 72.667 2.33398 128 5.00098l91 5l86 4c20.667 0.666992 34 1 40 1h59h1h1c1.33301 21.333 1.66602 50.333 0.999023 87
c0 20 -0.333008 41.167 -1 63.5s-1.33398 41.666 -2.00098 57.999s-1 26.166 -1 29.499c-0.666992 20 -1.66699 48.5 -3 85.5s-2.33301 63.5 -3 79.5v7zM213.001 701c5.33301 1.33301 10.998 1.99902 16.998 1.99902c12 -0.666992 94.333 -3.66699 247 -9l149 -5l48 -1
l13 -1h4h1h2h1l2 -1h4h1c8 -2 15.333 -6 22 -12c18.667 -17.333 25.334 -41 20.001 -71c-0.666992 -4 -1.33398 -7.5 -2.00098 -10.5s-1.16699 -4.83301 -1.5 -5.5l-0.5 -1v-2c0.666992 -15.333 1.66699 -41.666 3 -78.999l3 -86c0 -3.33301 0.333008 -13.166 1 -29.499
s1.33398 -35.833 2.00098 -58.5s1 -43.667 1 -63c0.666992 -39.333 0.333984 -70.666 -0.999023 -93.999c-0.666992 -15.333 -1.66699 -27.666 -3 -36.999c-0.666992 -6 -1.66699 -11.667 -3 -17c-3.33301 -10.667 -8.66602 -19.334 -15.999 -26.001
c-5.33301 -5.33301 -11.333 -9.33301 -18 -12l-6 -2c-2 0 -3.66699 -0.333008 -5 -1h-3h-3h-2h-1h-11h-31h-57c-6 0 -19.333 -0.333008 -40 -1l-84 -4l-90 -5c-56 -2.66699 -99.333 -4.33398 -130 -5.00098c-19.333 -0.666992 -34.333 -0.666992 -45 0h-16
c-2.66699 0.666992 -5.33398 1 -8.00098 1c-12 3.33301 -21 8 -27 14c-6 5.33301 -10.333 11.666 -13 18.999l-2 6c0 1.33301 -0.333008 3 -1 5v3v2v1v4v11v34v63c-0.666992 87.333 -2.66699 233 -6 437c0 14 4.66699 26 14 36s21 15 35 15s26 -4.66699 36 -14z" />
    <glyph glyph-name="P" unicode="P" horiz-adv-x="645" 
d="M287 615c-6 -40.667 -9.33203 -84.665 -9.99902 -131.998s0.333008 -89.833 3 -127.5s5.5 -83.167 8.5 -136.5s4.5 -100 4.5 -140c0 -14 -4.83301 -25.833 -14.5 -35.5s-21.5 -14.5 -35.5 -14.5s-25.833 4.83301 -35.5 14.5s-14.5 21.5 -14.5 35.5
c0 34 -1.5 77.333 -4.5 130s-5.83301 99.5 -8.5 140.5s-3.33398 87.5 -2.00098 139.5c0.666992 51.333 4.33398 98.666 11.001 141.999c2 13.333 8.5 24.166 19.5 32.499s23.333 11.333 37 9s24.667 -9 33 -20s11.166 -23.5 8.49902 -37.5zM545.001 636.002
c2 -106 -2.00098 -290.001 -12.001 -552.001c-0.666992 -14 -6 -25.667 -16 -35s-22 -13.666 -36 -12.999s-25.667 6 -35 16s-13.666 22 -12.999 36c10 259.333 14 441.333 12 546c0 14 4.66699 26 14 36s21 15 35 15s26 -4.66699 36 -14s15 -21 15 -35z" />
    <glyph glyph-name="Q" unicode="Q" horiz-adv-x="907" 
d="M380 379l-68.001 58.001l-86 77l-68 62c0.666992 -108.667 -1.66602 -235.334 -6.99902 -380.001zM707.999 382.001c-90.667 98 -150.667 164.667 -180 200c-1.33301 -114 -8.33301 -243.667 -21 -389zM533.999 740.001c11.333 -16.667 24.0029 -34.334 38.0029 -53.001
l36 -45c9.33301 -11.333 24.666 -28.666 45.999 -51.999l38 -44l48 -52c27.333 -29.333 41.666 -44.666 42.999 -45.999c14.667 -16 17.667 -33.667 9 -53l2 -2c9.33301 -10 13.666 -22 12.999 -36s-6 -25.667 -16 -35l-311 -291c-10 -9.33301 -22 -13.666 -36 -12.999
s-25.667 6 -35 16c-14 15.333 -17 33 -9 53c-2 5.33301 -2.66699 11 -2 17c6 63.333 11 121.666 15 174.999l-293 -236c-10.667 -8.66699 -23 -12.167 -37 -10.5s-25 7.83398 -33 18.501c-7.33301 8.66699 -11 18.667 -11 30s3 21.333 9 30
c8.66699 222.667 11.667 407 9 553c0 12 3.33301 22.333 10 31c1.33301 12.667 6.66602 23.334 15.999 32.001c10.667 9.33301 22.834 13.666 36.501 12.999s25.167 -6 34.5 -16l43 -46l41 -40l48 -44l43 -39l49 -43l47 -40c3.33301 81.333 4.33301 158.666 3 231.999
c0 11.333 3.33301 21.666 10 30.999s15.667 15.333 27 18c11.333 8 23.833 10.667 37.5 8s24.167 -9.66699 31.5 -21z" />
    <glyph glyph-name="R" unicode="R" horiz-adv-x="934" 
d="M140 365c30.667 -40.667 56.002 -73.1689 76.002 -97.502s45 -52.166 75 -83.499s59 -57.666 87 -78.999c-0.666992 58 -2.33398 141.5 -5.00098 250.5s-4.33398 187.5 -5.00098 235.5l-71 -81c-17.333 -20 -46.333 -47.333 -87 -82c-32.667 -28 -56 -49 -70 -63z
M722.002 160.998c3.33301 34 5.83301 71.998 7.5 113.998s2.66699 74.5 3 97.5s0.333008 63.333 0 121s-0.5 92.834 -0.5 105.501c-101.333 -91.333 -174.333 -154 -219 -188c8.66699 -20.667 20.167 -41.167 34.5 -61.5s27.833 -37.166 40.5 -50.499l56 -57l57 -58z
M834.002 735.996c-2.66699 -78 -3.1709 -149.496 -1.50391 -214.496s1.16699 -138.833 -1.5 -221.5s-9 -156.667 -19 -222c-0.666992 -6.66699 -2.66699 -12.667 -6 -18l2 -3c8.66699 -10.667 12.334 -22.834 11.001 -36.501s-7.5 -24.834 -18.5 -33.501
s-23.333 -12.334 -37 -11.001s-24.834 7.66602 -33.501 18.999c-46 56.667 -80.333 97 -103 121c-10 10.667 -25.333 26 -46 46l-59 60c-17.333 19.333 -33 38.333 -47 57c2 -94 3 -173 3 -237c0 -18 -7.66699 -32 -23 -42l-2 -4c-7.33301 -12 -17.666 -19.667 -30.999 -23
s-26 -1.33301 -38 6c-21.333 13.333 -42.333 27.833 -63 43.5s-41.334 33.5 -62.001 53.5l-53 52c-15.333 15.333 -33.333 36 -54 62l-47 56l-49 62l-42 56c-8.66699 11.333 -12.167 23.833 -10.5 37.5s7.83398 24.5 18.501 32.5c16 12.667 33.333 14.667 52 6
c12 12.667 35.667 34 71 64c36 30.667 62 54.667 78 72l53 61l62 71c19.333 21.333 38 41 56 59c10 9.33301 21.833 14 35.5 14s25.5 -5 35.5 -15c8.66699 -9.33301 13.334 -20.5 14.001 -33.5s-3.33301 -24.5 -12 -34.5c0 -55.333 0.666992 -120.333 2 -195l81 68l95 84
l81 73c2.66699 2 5.33398 3.66699 8.00098 5v7c0.666992 13.333 6 24.833 16 34.5s21.833 14.167 35.5 13.5s25.334 -6 35.001 -16s14.167 -22 13.5 -36z" />
    <glyph glyph-name="S" unicode="S" horiz-adv-x="894" 
d="M536 626c-53.333 33.333 -103 41.333 -149 24c-48.667 -18 -89 -59.333 -121 -124c-32 -64 -46.667 -130.333 -44 -199c3.33301 -67.333 23.333 -115.666 60 -144.999c30 -24 69.5 -43 118.5 -57s90.833 -17.667 125.5 -11c26.667 5.33301 52 20 76 44s44.333 55 61 93
c16 36.667 25.833 74.167 29.5 112.5s1.16699 70.166 -7.5 95.499c-10 28 -25 52.333 -45 73s-49.667 46 -89 76c-6.66699 4.66699 -11.667 10.667 -15 18zM635 670c35.333 -27.333 65.0039 -54.666 89.0039 -81.999s42.333 -59.666 55 -96.999
c13.333 -42.667 17.666 -88.334 12.999 -137.001s-17 -96.334 -37 -143.001c-21.333 -49.333 -50 -92 -86 -128s-77.667 -58.333 -125 -67c-50 -9.33301 -106.333 -5 -169 13s-114.334 43 -155.001 75c-60.667 48 -93.334 120.667 -98.001 218c-4 86 14 169 54 249
c44 88 102.667 145.667 176 173c86.667 32.667 175.667 14.667 267 -54c7.33301 -5.33301 12.666 -12 15.999 -20z" />
    <glyph glyph-name="T" unicode="T" horiz-adv-x="806" 
d="M170 249c-1.33301 -29.333 -2.66406 -66.332 -3.99707 -110.999c-0.666992 -48.667 -1.33398 -80.667 -2.00098 -96c-0.666992 -13.333 -6 -24.833 -16 -34.5s-21.833 -14.167 -35.5 -13.5s-25.334 6 -35.001 16s-14.167 22 -13.5 36
c0.666992 14.667 1.66699 46.167 3 94.5s2.33301 85.833 3 112.5c0.666992 14 6 25.667 16 35s22 13.666 36 12.999s25.667 -6 35 -16s13.666 -22 12.999 -36zM344.002 408.001c-0.666992 -19.333 -2.33203 -72.667 -4.99902 -160s-3.66699 -154.666 -3 -201.999
c0 -14 -4.83301 -26 -14.5 -36s-21.334 -15 -35.001 -15s-25.5 4.83301 -35.5 14.5s-15 21.167 -15 34.5c-0.666992 48 0.5 116.167 3.5 204.5s4.5 142.166 4.5 161.499c0 14 5 25.667 15 35s22 14 36 14s25.667 -5 35 -15s14 -22 14 -36zM514.004 592
c1.33301 -68 1 -164.167 -1 -288.5s-3 -207.833 -3 -250.5c0 -14 -4.83301 -25.833 -14.5 -35.5s-21.5 -14.5 -35.5 -14.5s-25.833 4.83301 -35.5 14.5s-14.5 21.5 -14.5 35.5c0 42.667 1 126 3 250s2.33301 219.667 1 287c0 14 4.66699 26 14 36s21 15 35 15
s26 -4.66699 36 -14s15 -21 15 -35zM700.004 654c6 -78 7.33398 -178.999 4.00098 -302.999c-4.66699 -180 -7 -279 -7 -297c0 -14 -4.83301 -25.833 -14.5 -35.5s-21.5 -14.5 -35.5 -14.5s-25.833 4.83301 -35.5 14.5s-14.5 21.5 -14.5 35.5
c0 19.333 2.33301 119.333 7 300c3.33301 121.333 2 218.666 -4 291.999c-0.666992 14 3.5 26.167 12.5 36.5s20.333 16 34 17s25.667 -3 36 -12s16.166 -20.167 17.499 -33.5z" />
    <glyph glyph-name="U" unicode="U" horiz-adv-x="942" 
d="M730 339c-8.66699 -9.33301 -19.333 -14.5 -32 -15.5s-24 2.16699 -34 9.5l-133 98c-10.667 8 -17.167 18.833 -19.5 32.5s0.666992 26 9 37s19.333 17.667 33 20s26.167 -0.833984 37.5 -9.50098l39 -29c-6.66699 19.333 -14.334 35.666 -23.001 48.999
c-25.333 40 -58 67 -98 81c-62 21.333 -112 13 -150 -25c-33.333 -32.667 -63 -90.334 -89 -173.001c-4.66699 -13.333 -13 -23.166 -25 -29.499s-24.667 -7.33301 -38 -3s-23.166 12.5 -29.499 24.5s-7.5 24.667 -3.5 38c31.333 98.667 69.333 170 114 214
c68 66.667 152.333 82.667 253 48c62 -21.333 112 -61.666 150 -120.999c12.667 -20 24 -44.333 34 -73l24 40c6.66699 12 16.667 19.833 30 23.5s26 2 38 -5s19.833 -17.167 23.5 -30.5s1.83398 -26 -5.49902 -38c-4 -7.33301 -10.5 -18.666 -19.5 -33.999
s-15.5 -27 -19.5 -35l-16 -30c-6 -12 -11 -23.333 -15 -34c-6.66699 -16 -18.334 -26 -35.001 -30zM223.001 325c20 -25.333 54.667 -61.665 104 -108.998c10 -10 15 -21.833 15 -35.5s-4.83301 -25.5 -14.5 -35.5s-21.334 -15 -35.001 -15s-25.5 4.66699 -35.5 14l-28 27
c11.333 -32 39.333 -61 84 -87c37.333 -21.333 74.666 -34 111.999 -38s69.333 0 96 12c28.667 12 53 31.667 73 59s32.667 62.333 38 105c2 13.333 8.5 24.166 19.5 32.499s23.333 11.666 37 9.99902s24.667 -8 33 -19s11.833 -23.5 10.5 -37.5
c-8.66699 -58.667 -28 -109 -58 -151s-68.333 -72.333 -115 -91c-45.333 -18.667 -93.666 -25.334 -144.999 -20.001c-51.333 6 -101.666 23.333 -150.999 52c-61.333 35.333 -102.666 78.333 -123.999 129l-9 -15c-6.66699 -12 -16.667 -19.833 -30 -23.5s-26 -2 -38 5
s-19.833 17.167 -23.5 30.5s-1.83398 26 5.49902 38c18.667 32 48.667 77.667 90 137c2 13.333 8 24.333 18 33c10.667 8.66699 23 12.334 37 11.001s25.333 -7.33301 34 -18z" />
    <glyph glyph-name="V" unicode="V" horiz-adv-x="853" 
d="M635 636c-7.33301 0.666992 -17.3359 1.66602 -30.0029 2.99902c-36.667 3.33301 -86.667 6 -150 8c-66.667 2 -140 3.33301 -220 4c-0.666992 -46 -3.16699 -116.833 -7.5 -212.5s-6.5 -168.167 -6.5 -217.5c0 -47.333 -0.666992 -88 -2 -122
c0 -3.33301 -0.666992 -7.66602 -2 -12.999c16 -2 37 -3.66699 63 -5c20 -1.33301 44.833 -2.33301 74.5 -3s46.167 -1 49.5 -1c2.66699 0 12.334 -0.5 29.001 -1.5s35 -2.16699 55 -3.5c17.333 -0.666992 36 -1.33398 56 -2.00098c34.667 -1.33301 61.667 -2 81 -2
c10.667 0 19.334 0.333008 26.001 1h2c1.33301 3.33301 1.33301 8.33301 0 15c-0.666992 8 -3.33398 20.333 -8.00098 37c-5.33301 21.333 -8.66602 37 -9.99902 47c-2 20.667 -2.66699 111.667 -2 273c0.666992 42.667 1.33398 96.334 2.00098 161.001v34zM150.997 703.999
c0.666992 13.333 5.83105 24.4961 15.498 33.4961s21.167 13.5 34.5 13.5c86.667 0 172.334 -1.33301 257.001 -4c66 -2 118 -4.66699 156 -8c23.333 -2 42 -4.33301 56 -7c9.33301 -2 17.333 -4 24 -6c13.333 -5.33301 23.666 -12.666 30.999 -21.999
c2.66699 -3.33301 4.66699 -6.66602 6 -9.99902s2.33301 -6 3 -8v-3c0.666992 -2 1 -3.33301 1 -4v-1v-2v-1v-2v-4v-15v-52c-0.666992 -65.333 -1.33398 -119.333 -2.00098 -162c-0.666992 -157.333 0 -244.666 2 -261.999c0 -4.66699 2.33301 -15 7 -31
c5.33301 -21.333 8.66602 -38 9.99902 -50c3.33301 -24.667 1.33301 -46 -6 -64c-9.33301 -26 -27.666 -45 -54.999 -57c-8 -3.33301 -19 -5.66602 -33 -6.99902c-8.66699 -0.666992 -19.667 -1 -33 -1c-21.333 0 -49.666 0.666992 -84.999 2
c-17.333 0.666992 -36 1.5 -56 2.5s-38.5 2 -55.5 3s-26.5 1.5 -28.5 1.5c-3.33301 0 -20 0.333008 -50 1s-55 1.66699 -75 3c-31.333 1.33301 -56.666 3.66602 -75.999 6.99902c-12.667 2 -23.667 4.66699 -33 8c-16 4.66699 -28.333 12 -37 22
c-15.333 17.333 -20 39.333 -14 66c0.666992 4.66699 1.33398 8.33398 2.00098 11.001s1.16699 4.33398 1.5 5.00098s0.5 1.33398 0.5 2.00098v1c1.33301 32.667 2 72 2 118c0 49.333 2.33301 123.666 7 222.999s7 173.666 7 222.999c0 14.667 5.33301 27 16 37z
M462.994 243.995c10 -9.33301 15 -21 15 -35s-4.83301 -25.833 -14.5 -35.5s-21.5 -14.5 -35.5 -14.5s-25.833 4.83301 -35.5 14.5s-14.5 21.5 -14.5 35.5s4.83301 25.833 14.5 35.5s21.5 14.5 35.5 14.5s25.667 -5 35 -15z" />
    <glyph glyph-name="W" unicode="W" horiz-adv-x="841" 
d="M76 550c56.667 4 159.668 6.33008 309.001 6.99707c134 0.666992 234.667 3.33398 302 8.00098c14 0.666992 26.167 -3.5 36.5 -12.5s16 -20.333 17 -34s-3 -25.667 -12 -36s-20.167 -16.166 -33.5 -17.499c-70.667 -4.66699 -174 -7.33398 -310 -8.00098
c-146 -0.666992 -247 -3 -303 -7c-13.333 -0.666992 -25.333 3.5 -36 12.5s-16.334 20.333 -17.001 34s3.5 25.834 12.5 36.501s20.5 16.334 34.5 17.001zM73.001 391.997c34.667 3.33301 73.499 5.83203 116.499 7.49902s78.167 2.5 105.5 2.5s68 -0.166992 122 -0.5
s90 -0.5 108 -0.5c14 0 25.833 -4.83301 35.5 -14.5s14.5 -21.5 14.5 -35.5s-4.83301 -25.833 -14.5 -35.5s-21.5 -14.5 -35.5 -14.5c-20.667 0 -56.5 0.166992 -107.5 0.5s-90.167 0.5 -117.5 0.5s-61.666 -0.666992 -102.999 -2c-40.667 -2 -78.667 -4.66699 -114 -8
c-14 -1.33301 -26.333 2.5 -37 11.5s-16.667 20.333 -18 34s2.5 25.834 11.5 36.501s20.167 16.667 33.5 18zM74 233.996c26.667 -1.33301 50.002 -1.99902 70.002 -1.99902c24.667 0 53.167 0.166992 85.5 0.5s55.833 0.5 70.5 0.5c14 0 25.833 -4.83301 35.5 -14.5
s14.5 -21.5 14.5 -35.5s-4.83301 -25.833 -14.5 -35.5s-21.5 -14.5 -35.5 -14.5s-37.833 -0.166992 -71.5 -0.5s-62.834 -0.5 -87.501 -0.5s-48.334 0.666992 -71.001 2c-14 0.666992 -25.667 6.16699 -35 16.5s-13.666 22.333 -12.999 36s6.16699 25.167 16.5 34.5
s22.166 13.666 35.499 12.999z" />
    <glyph glyph-name="X" unicode="X" 
d="M152 561c30 0 76.667 -0.167969 140 -0.500977s113.666 -0.5 150.999 -0.5s82.666 0.666992 135.999 2s102.333 3.66602 147 6.99902c14 0.666992 26.167 -3.5 36.5 -12.5s16 -20.333 17 -34s-3 -25.667 -12 -36s-20.167 -16.166 -33.5 -17.499
c-45.333 -3.33301 -95.166 -5.66602 -149.499 -6.99902s-100.166 -2 -137.499 -2s-88.5 0.166992 -153.5 0.5s-112.167 0.5 -141.5 0.5c-14 0 -25.833 4.83301 -35.5 14.5s-14.5 21.5 -14.5 35.5s4.83301 25.833 14.5 35.5s21.5 14.5 35.5 14.5zM164 398.999
c259.333 9.33301 428.334 17 507.001 23c14 0.666992 26.167 -3.5 36.5 -12.5s16 -20.333 17 -34s-3 -25.667 -12 -36s-20.167 -16.166 -33.5 -17.499c-80 -6 -250.333 -13.667 -511 -23c-14 -0.666992 -26 3.66602 -36 12.999s-15.333 21 -16 35s3.66602 26 12.999 36
s21 15.333 35 16zM290.001 251.999c32 1.33301 75.668 4 131.001 8c57.333 4 100.666 6.66699 129.999 8c14 0.666992 26 -3.66602 36 -12.999s15.333 -21 16 -35s-3.66602 -26 -12.999 -36s-21 -15.333 -35 -16c-32 -1.33301 -75.667 -4 -131 -8
c-56 -4 -99.333 -6.66699 -130 -8c-14 -0.666992 -26 3.66602 -36 12.999s-15.333 21 -16 35s3.66602 26 12.999 36s21 15.333 35 16z" />
    <glyph glyph-name="Y" unicode="Y" horiz-adv-x="932" 
d="M155 547c34.667 0 85.1689 1.66699 151.502 5s115.166 5 146.499 5c9.33301 0 62.666 -0.333008 159.999 -1s150.666 0.333008 159.999 3c14 0.666992 26.167 -3.5 36.5 -12.5s15.833 -20.5 16.5 -34.5s-3.5 -26.167 -12.5 -36.5s-20.5 -15.833 -34.5 -16.5
c-8 -2.66699 -62.333 -3.66699 -163 -3s-155 1 -163 1c-31.333 0 -80.166 -1.66699 -146.499 -5s-116.833 -5 -151.5 -5c-14 0 -25.833 4.83301 -35.5 14.5s-14.5 21.5 -14.5 35.5s4.83301 25.833 14.5 35.5s21.5 14.5 35.5 14.5zM211.002 400
c200 -3.33301 389 1.33301 567 14c14 0.666992 26.167 -3.5 36.5 -12.5s16 -20.333 17 -34s-3 -25.667 -12 -36s-20.167 -16.166 -33.5 -17.499c-182 -12.667 -374.333 -17.334 -577 -14.001c-14 0 -25.667 5 -35 15s-14 22 -14 36s5 25.667 15 35s22 14 36 14z
M393.002 252.999c20.667 -2 83.667 -2.16797 189 -0.500977s168.333 2.5 189 2.5c14 0 25.833 -4.83301 35.5 -14.5s14.5 -21.5 14.5 -35.5s-4.83301 -25.833 -14.5 -35.5s-21.5 -14.5 -35.5 -14.5c-20 0 -83.5 -0.833008 -190.5 -2.5s-170.833 -1.5 -191.5 0.5
c-13.333 0.666992 -24.833 6 -34.5 16s-14.167 21.833 -13.5 35.5s6 25.334 16 35.001s22 14.167 36 13.5z" />
    <glyph glyph-name="Z" unicode="Z" horiz-adv-x="991" 
d="M361 484c-78.667 -69.333 -152.327 -125 -220.994 -167l118 -108l79 -68c11.333 -9.33301 20.666 -16.333 27.999 -21l5 -4c0 1.33301 -0.333008 4.83301 -1 10.5s-1 11.167 -1 16.5c-0.666992 24.667 2.66602 45.334 9.99902 62.001c12 25.333 32.667 44 62 56
c14.667 6 31.667 7.66699 51 5c0.666992 0 5.66699 -0.666992 15 -2c3.33301 -0.666992 5.66602 -1 6.99902 -1c67.333 -2.66699 144.333 -11.334 231 -26.001c6 -0.666992 13 -2 21 -4c7.33301 -2 11.666 -3.33301 12.999 -4c2 -0.666992 3.66699 -1 5 -1v3
c0 0.666992 0.666992 15.334 2 44.001c0 6.66699 0.833008 17 2.5 31s2.5 21.667 2.5 23c1.33301 14.667 1 26 -1 34c-0.666992 3.33301 -1.33398 6 -2.00098 8c-10 -2 -18 -3.33301 -24 -4c-114.667 -8 -175.667 -12 -183 -12c-45.333 -2 -82.333 -1.66699 -111 1
c-18.667 1.33301 -34.334 3.66602 -47.001 6.99902c-21.333 5.33301 -37.333 14.333 -48 27c-8 10 -13 22.667 -15 38c-0.666992 7.33301 -0.666992 16.333 0 27c0 5.33301 0.666992 15 2 29zM56.0068 384c79.333 44 166.664 109.335 261.997 196.002
c0.666992 0 1 0.333008 1 1c0.666992 1.33301 4 6.33301 10 15c20.667 27.333 45.334 37 74.001 29c29.333 -8.66699 48 -30 56 -64c4 -16 5 -36.667 3 -62c0 -5.33301 -0.5 -12.666 -1.5 -21.999s-1.5 -16 -1.5 -20c5.33301 -0.666992 11.333 -1.33398 18 -2.00098
c24.667 -2 57.667 -2 99 0c6.66699 0 66.334 4 179.001 12c2 0 3.33301 0.166992 4 0.5s2.5 0.833008 5.5 1.5s7.16699 1.66699 12.5 3c22.667 4.66699 42.334 2.33398 59.001 -6.99902c24.667 -12.667 41.667 -38.667 51 -78c4 -18.667 5 -41 3 -67
c-0.666992 -2.66699 -1.66699 -9.83398 -3 -21.501s-2 -20.834 -2 -27.501c-1.33301 -34.667 -2.66602 -55.334 -3.99902 -62.001c-8.66699 -38.667 -31.334 -64 -68.001 -76c-16.667 -6 -36 -6.33301 -58 -1l-17 4c-4.66699 1.33301 -8 2.33301 -10 3
c-82.667 13.333 -155.667 21.333 -219 24c-5.33301 0 -11.666 0.666992 -18.999 2c-1.33301 0 -2.66602 0.333008 -3.99902 1h-4c-1.33301 0.666992 -2.66602 1 -3.99902 1h-3l-6 -3c-1.33301 -2.66699 -1.66602 -8.33398 -0.999023 -17.001
c1.33301 -27.333 1.66602 -42.666 0.999023 -45.999c-2 -28 -12.333 -50.333 -31 -67c-24.667 -22 -57.667 -26.667 -99 -14c-8.66699 2.66699 -19.334 8.66699 -32.001 18c-9.33301 6.66699 -20.333 15.334 -33 26.001l-82 70
c-62.667 55.333 -107.334 96.666 -134.001 123.999c-13.333 13.333 -18 29 -14 47c-2.66699 3.33301 -5.33398 7 -8.00098 11c-6.66699 12 -8 24.667 -4 38s12 23.333 24 30z" />
    <glyph glyph-name="bracketleft" unicode="[" horiz-adv-x="950" 
d="M672 518c-20.667 25.333 -41.3301 44.667 -61.9971 58c-36.667 24 -87.334 36 -152.001 36c-8.66699 0 -16.334 0.333008 -23.001 1s-10.334 1 -11.001 1s-3.33398 -0.333008 -8.00098 -1c-27.333 -7.33301 -52.666 -25.666 -75.999 -54.999
s-41.166 -65.833 -53.499 -109.5s-17 -85.667 -14 -126s13.167 -72.833 30.5 -97.5c30.667 -44.667 69 -76.167 115 -94.5s93.167 -22 141.5 -11s91.833 35.5 130.5 73.5c11.333 11.333 22.166 24.833 32.499 40.5s17.166 29.5 20.499 41.5
c4.66699 15.333 6.83398 30.666 6.50098 45.999s-1.5 28.833 -3.5 40.5s-7.33301 26.667 -16 45s-16 32.833 -22 43.5l-30 50c-3.33301 6 -5.33301 12 -6 18zM809.004 474.001c41.333 -80 51.334 -155.668 30.001 -227.001c-12.667 -43.333 -39 -84.666 -79 -123.999
c-52.667 -52 -112.334 -85.667 -179.001 -101c-67.333 -15.333 -133.333 -10.333 -198 15s-118.667 68.666 -162 129.999c-18.667 27.333 -32 59 -40 95s-11 71.833 -9 107.5s8 71.167 18 106.5c16 56 41.167 105.667 75.5 149s75.833 71.333 124.5 84c6 2 13 3.33301 21 4
s15 1 21 1l18 -2h8c84 0 152.667 -17.333 206 -52c46.667 -30 92.667 -81.667 138 -155c6 -9.33301 8.33301 -19.666 7 -30.999zM424.005 374c1.33301 -1.33301 10.999 -17.334 28.999 -48.001l4 -6v1c1.33301 1.33301 3.33301 5 6 11c0 1.33301 0.333008 2.66602 1 3.99902
s1.33398 3 2.00098 5s1.33398 3.66699 2.00098 5c2.66699 7.33301 5.33398 13.666 8.00098 18.999l11 23c4 8.66699 6.66699 14 8 16l5 10c2.66699 4.66699 4.66699 8 6 10l4 7l6 11l9 12l13 21l18 28c7.33301 11.333 17.666 18.5 30.999 21.5s25.833 0.833008 37.5 -6.5
s19 -17.666 22 -30.999s0.833008 -26 -6.5 -38l-22 -34c-6.66699 -10 -11.334 -17.333 -14.001 -22s-5.16699 -8.66699 -7.5 -12s-4.33301 -6.66602 -6 -9.99902s-3.16699 -6.16602 -4.5 -8.49902s-4 -7.83301 -8 -16.5l-12 -25c-1.33301 -2.66699 -2.66602 -6 -3.99902 -10
c-4 -10.667 -6.33301 -16 -7 -16c-6.66699 -18.667 -15.334 -33.334 -26.001 -44.001c-12 -12 -23.667 -21 -35 -27c-26 -15.333 -50.333 -16.666 -73 -3.99902c-20 10.667 -37.667 28.667 -53 54c-3.33301 4.66699 -7.33301 11.5 -12 20.5s-8.66699 15.5 -12 19.5
c-8 11.333 -11.167 23.833 -9.5 37.5s8.16699 24.5 19.5 32.5s23.833 11.167 37.5 9.5s24.5 -8.16699 32.5 -19.5z" />
    <glyph glyph-name="backslash" unicode="\" horiz-adv-x="661" 
d="M503 644c-34.667 -105.333 -62.6641 -183.671 -83.9971 -235.004c-3.33301 -9.33301 -8 -19.333 -14 -30c16.667 4 28 6.66699 34 8c23.333 4.66699 42.333 5 57 1c20.667 -5.33301 36.5 -17 47.5 -35s17.167 -35.333 18.5 -52c0.666992 -6 0 -12.333 -2 -19
c-0.666992 -2 -1.33398 -4.33301 -2.00098 -7c-1.33301 -3.33301 -3.33301 -8 -6 -14c-3.33301 -8.66699 -8.66602 -21 -15.999 -37l-50 -106l-36 -72l-33 -70c-8 -16.667 -13 -27.667 -15 -33c-6 -12.667 -15.333 -21.5 -28 -26.5s-25.334 -4.66699 -38.001 1
s-21.5 14.834 -26.5 27.501s-4.83301 25.334 0.5 38.001l85 178l50 105l10 22c-4.66699 -0.666992 -11.834 -2.16699 -21.501 -4.5s-16.167 -4.16602 -19.5 -5.49902c-22.667 -5.33301 -41.334 -8.33301 -56.001 -9c-28.667 -0.666992 -51.667 6 -69 20
c-13.333 11.333 -19.333 25.666 -18 42.999c0 4 0.666992 8 2 12l4 8c1.33301 2.66699 3 6.33398 5 11.001l14 24c14.667 26 25 46 31 60c20 48.667 46.667 124.334 80 227.001c4.66699 13.333 13.167 23.166 25.5 29.499s25 7.33301 38 3s22.667 -12.666 29 -24.999
s7.5 -24.833 3.5 -37.5z" />
    <glyph glyph-name="bracketright" unicode="]" horiz-adv-x="758" 
d="M303 294c-1.33301 6.66699 -2.67383 14.6641 -4.00684 23.9971c0 1.33301 -0.166992 3.33301 -0.5 6s-0.5 5 -0.5 7s-0.333008 3.66699 -1 5c-0.666992 8.66699 -2 14.667 -4 18c-4.66699 8 -15 18.667 -31 32c-33.333 28 -50.666 42.667 -51.999 44
c-24 22.667 -39.667 46 -47 70c-10.667 32 -8 65.667 8 101c20.667 46 61 79.333 121 100c48.667 16.667 102 21.667 160 15c60.667 -6.66699 109.667 -25.334 147 -56.001c48.667 -39.333 67.667 -89 57 -149c-7.33301 -44 -31.666 -78 -72.999 -102
c-4 -2 -9 -4.66699 -15 -8s-10.333 -5.66602 -13 -6.99902s-5.66699 -3.16602 -9 -5.49902s-6 -4.66602 -8 -6.99902s-4 -4.83301 -6 -7.5c-0.666992 -2.66699 -1.33398 -6.66699 -2.00098 -12c0 -2 -0.166992 -4 -0.5 -6s-0.5 -4.16699 -0.5 -6.5
s-0.333008 -4.16602 -1 -5.49902c-0.666992 -9.33301 -1.66699 -17.333 -3 -24c-2.66699 -13.333 -9.83398 -23.833 -21.501 -31.5s-24.167 -10.167 -37.5 -7.5s-23.833 9.83398 -31.5 21.501s-10.167 24.167 -7.5 37.5c0.666992 3.33301 1.33398 7.66602 2.00098 12.999
c0.666992 12.667 1.33398 19.334 2.00098 20.001c2 23.333 8.33301 42.333 19 57c4.66699 7.33301 10.167 14.333 16.5 21s13 12.5 20 17.5s12.833 8.83301 17.5 11.5l17 10l12 6c8 4.66699 13.667 9.16699 17 13.5s6 10.833 8 19.5c3.33301 21.333 -4 39.333 -22 54
c-22 18 -53.667 29.333 -95 34c-42.667 4.66699 -81.667 1 -117 -11c-32 -10.667 -52.333 -25.667 -61 -45c-6 -12.667 -7.66699 -23 -5 -31s9.66699 -17.333 21 -28l15 -12l17 -15c6.66699 -5.33301 11.667 -9.66602 15 -12.999c24.667 -20 42.334 -39.333 53.001 -58
c8.66699 -14 14.334 -32 17.001 -54c0 -0.666992 1 -7.33398 3 -20.001c0.666992 -5.33301 1.33398 -10 2.00098 -14c2.66699 -14 0.333984 -26.667 -6.99902 -38s-17.833 -18.5 -31.5 -21.5s-26.167 -0.833008 -37.5 6.5s-18.666 17.666 -21.999 30.999zM346.992 245.997
l132 20c13.333 2.66699 25.5 -0.166016 36.5 -8.49902s17.667 -19.333 20 -33s-0.833984 -25.834 -9.50098 -36.501c-8 -11.333 -19 -18 -33 -20l-132 -20c-13.333 -2.66699 -25.5 0.166016 -36.5 8.49902s-17.667 19.333 -20 33s0.833984 25.834 9.50098 36.501
c8 11.333 19 18 33 20zM361.992 126.997l132 21.001c14 2.66699 26.5 -0.166016 37.5 -8.49902s17.667 -19.333 20 -33s-0.833984 -25.834 -9.50098 -36.501c-8 -11.333 -18.667 -18 -32 -20l-132 -21c-14 -2.66699 -26.5 0.166016 -37.5 8.49902s-17.667 19.333 -20 33
s0.833984 26.167 9.50098 37.5c8 10.667 18.667 17 32 19zM484.992 11.998c10 -9.33301 15 -21 15 -35s-4.83301 -25.833 -14.5 -35.5s-21.5 -14.5 -35.5 -14.5s-25.833 4.83301 -35.5 14.5s-14.5 21.5 -14.5 35.5s4.83301 25.833 14.5 35.5s21.5 14.5 35.5 14.5
s25.667 -5 35 -15z" />
    <glyph glyph-name="asciicircum" unicode="^" horiz-adv-x="946" 
d="M251 377c-0.666992 -1.33301 -1.66602 -2.66797 -2.99902 -4.00098l-6 -10l-5 -7c-2 -44.667 -3.33301 -92.667 -4 -144c-1.33301 -41.333 -1.33301 -74.333 0 -99c0 -12.667 0.333008 -22.667 1 -30c3.33301 -1.33301 7.33301 -2.66602 12 -3.99902
c3.33301 -0.666992 7.33301 -1 12 -1h38h60c18.667 0 60.667 0.5 126 1.5s115.666 1.16699 150.999 0.5c54 -1.33301 81.333 -2 82 -2h31v20c0.666992 32.667 0.333984 72.334 -0.999023 119.001c-2 46.667 -4.33301 86.667 -7 120
c-0.666992 11.333 -1.66699 20.666 -3 27.999c-5.33301 0.666992 -11.333 1 -18 1c-9.33301 0.666992 -20.833 1.16699 -34.5 1.5s-20.834 0.5 -21.501 0.5c-2.66699 0 -32.167 2.16699 -88.5 6.5s-102.833 7.5 -139.5 9.5c-51.333 2 -93 2.33301 -125 1
c-28.667 -2 -47.667 -4.66699 -57 -8zM706.001 466.998c6 0 12.0029 -0.334961 18.0029 -1.00195c16.667 -0.666992 30.667 -2.33398 42 -5.00098c22 -4.66699 38.333 -12.667 49 -24c6.66699 -7.33301 11.334 -16.666 14.001 -27.999
c1.33301 -4.66699 2.66602 -10.667 3.99902 -18c1.33301 -11.333 3 -26.666 5 -45.999c2.66699 -34.667 5 -76.334 7 -125.001c1.33301 -48 1.66602 -89.333 0.999023 -124c0 -18.667 -0.333008 -33.667 -1 -45c-0.666992 -6.66699 -1.66699 -12.667 -3 -18
c-0.666992 -4 -1.66699 -7.33301 -3 -10c-2.66699 -8.66699 -7 -16 -13 -22c-8.66699 -8 -19.667 -13.667 -33 -17c-6.66699 -2 -15 -3.33301 -25 -4c-14 -1.33301 -31.667 -2 -53 -2c-1.33301 0 -29.333 0.666992 -84 2c-35.333 0.666992 -85.333 0.5 -150 -0.5
s-106.334 -1.5 -125.001 -1.5h-60h-39c-6 0 -11 0.333008 -15 1c-6 0 -11.667 0.666992 -17 2c-36.667 9.33301 -62.667 25.333 -78 48c-6 9.33301 -10 23 -12 41c-1.33301 10 -2 23.333 -2 40c-1.33301 26.667 -1.33301 61.334 0 104.001
c1.33301 76.667 3.33301 134.334 6 173.001c1.33301 17.333 9.33301 30.333 24 39l2 3c10 14 21 25 33 33c20.667 12.667 55.667 20 105 22l2 1c-0.666992 6 -1 12 -1 18c-0.666992 14.667 -1 26.334 -1 35.001c-0.666992 6 -1 10.667 -1 14
c0.666992 2.66699 1 5.33398 1 8.00098c0 2 0.333008 4.33301 1 7c2 8 5.33301 15 10 21c14 16 33 25.667 57 29c5.33301 0 12 0.333008 20 1h12c22.667 1.33301 53.667 -1 93 -7s64.666 -9 75.999 -9h4c0.666992 0 1.5 0.166992 2.5 0.5s2.83301 0.666016 5.5 0.999023
s6 0.833008 10 1.5c21.333 2 39.666 -1 54.999 -9c32.667 -16.667 51.334 -43.334 56.001 -80.001c2 -10.667 2.33301 -27 1 -49zM403.004 517.996l1 -10c0 -7.33301 0.333008 -15 1 -23c10.667 -0.666992 21.667 -1 33 -1c40.667 -2 96.667 -5.66699 168 -11
c0.666992 16.667 0.666992 26.667 0 30v2h-1c-20 -2 -31.667 -3 -35 -3c-18 0 -47.667 3.33301 -89 10c-32 4.66699 -56 6.66699 -72 6h-6z" />
    <glyph glyph-name="underscore" unicode="_" horiz-adv-x="944" 
d="M478 414c-27.333 4 -73.333 9.33398 -138 16.001c-30 2.66699 -54.667 4.66699 -74 6l-2 -83c-2.66699 -91.333 -4.66699 -143.333 -6 -156c-2 -18 -3.66699 -35.667 -5 -53c-0.666992 -8 -1.33398 -14.667 -2.00098 -20h5c7.33301 0 16.666 0.333008 27.999 1
c16.667 1.33301 26.334 2 29.001 2h51h86h102c60.667 0 107.334 0.333008 140.001 1c20 0 35.333 0.333008 46 1h3c1.33301 2.66699 2.33301 5.66699 3 9v2c0 0.666992 0.166992 1.5 0.5 2.5s0.5 2.16699 0.5 3.5v4v6v8v8c0 3.33301 -0.333008 6.66602 -1 9.99902
c-0.666992 24 -2.33398 55.667 -5.00098 95l-9 96c-3.33301 41.333 -5.33301 67 -6 77c-0.666992 14 3.5 26.167 12.5 36.5s20.5 15.833 34.5 16.5s26.167 -3.5 36.5 -12.5s15.833 -20.5 16.5 -34.5c0.666992 -10 2.83398 -35.333 6.50098 -76s6.16699 -72.334 7.5 -95.001
c3.33301 -41.333 5.33301 -74.666 6 -99.999c1.33301 -36.667 0 -61.667 -4 -75c-10.667 -35.333 -28.667 -59.666 -54 -72.999c-6.66699 -2.66699 -14.667 -4.66699 -24 -6c-4.66699 -0.666992 -10.667 -1.33398 -18 -2.00098c-12 -0.666992 -28.667 -1 -50 -1
c-33.333 -0.666992 -80.666 -1 -141.999 -1h-101h-85h-51c-0.666992 0 -8.33398 -0.666992 -23.001 -2c-15.333 -0.666992 -28 -1 -38 -1c-43.333 1.33301 -74.666 14.333 -93.999 39c-2 3.33301 -3.83301 6.83301 -5.5 10.5s-2.83398 6.5 -3.50098 8.5v3
c-0.666992 2 -1 4.33301 -1 7v7v15c0.666992 9.33301 1.66699 22 3 38l5 55c0.666992 7.33301 2.66699 57 6 149l3 91c0 13.333 0.333008 23 1 29v9v3v2v2c0.666992 1.33301 1 2.66602 1 3.99902l2 6c2 7.33301 5.66699 13.666 11 18.999c6 6 13.667 10.667 23 14
c3.33301 0.666992 7 1.33398 11 2.00098s8.66699 1 14 1c8 0 19 -0.333008 33 -1c18 -1.33301 47 -4 87 -8c70.667 -7.33301 118 -13 142 -17c14 -2 25.167 -8.5 33.5 -19.5s11.333 -23.333 9 -37s-9 -24.667 -20 -33s-23.167 -11.166 -36.5 -8.49902zM409 343.001
c3.33301 -6 6.33496 -11.667 9.00195 -17l6 -13l4 -8l5 -7c0.666992 -2.66699 1.66699 -4.66699 3 -6l3 4l28 35l84 111c87.333 115.333 138.666 180.666 153.999 195.999c9.33301 10 21 15 35 15s25.833 -4.83301 35.5 -14.5s14.5 -21.5 14.5 -35.5s-5 -25.667 -15 -35
c-8 -8 -56 -70 -144 -186l-85 -112l-30 -38c-4.66699 -5.33301 -8.33398 -9.33301 -11.001 -12l-7 -7c-6.66699 -5.33301 -14 -9 -22 -11c-47.333 -12.667 -85.666 -3.66699 -114.999 27c-4.66699 5.33301 -9.33398 11.5 -14.001 18.5s-8.5 13.167 -11.5 18.5
s-6 11.333 -9 18s-4.83301 10.334 -5.5 11.001c-6.66699 12.667 -8 25.5 -4 38.5s12.167 22.833 24.5 29.5s25 8 38 4s22.833 -12 29.5 -24z" />
    <glyph glyph-name="grave" unicode="`" horiz-adv-x="969" 
d="M166 245c6.66699 -7.33301 18.667 -7.66504 36 -0.998047c20 7.33301 43.333 22 70 44c10.667 9.33301 37 33.666 79 72.999c-31.333 16.667 -60.333 24 -87 22c-16.667 -1.33301 -27.667 -3.33301 -33 -6c-4 -2.66699 -11 -10.834 -21 -24.501s-19.333 -29.5 -28 -47.5
c-8.66699 -18.667 -14 -35 -16 -49c-0.666992 -4 -0.666992 -7.66699 0 -11zM526 215.001c-15.333 0.666992 -27.6689 7.33203 -37.002 19.999c-18.667 25.333 -37.667 47 -57 65l-4 -4c-52.667 -49.333 -83.334 -77.333 -92.001 -84
c-35.333 -30 -68.666 -50.667 -99.999 -62c-16 -6 -32 -9.66699 -48 -11s-33.5 1.5 -52.5 8.5s-35.5 19.167 -49.5 36.5c-17.333 22 -23.666 51 -18.999 87c3.33301 23.333 11.666 48.666 24.999 75.999c11.333 24.667 25 47.834 41 69.501s32 37.167 48 46.5
c18.667 10.667 43.667 17.334 75 20.001c56.667 4 114.667 -13.333 174 -52c12 10 24 19 36 27c99.333 68.667 194 83 284 43c46 -20.667 79 -51.667 99 -93s25.333 -83.666 16 -126.999c-9.33301 -44.667 -32.666 -80.334 -69.999 -107.001s-82.666 -37 -135.999 -31
c-44.667 5.33301 -89 29.333 -133 72zM508.997 364.999c10.667 -10.667 21.001 -21.668 31.001 -33.001c9.33301 -2 17.333 -6.33301 24 -13l18 -18l18 -17l13 -12c6 -6 10.833 -10 14.5 -12s8 -4.5 13 -7.5s10 -5.16699 15 -6.5s10.167 -2.33301 15.5 -3
c27.333 -3.33301 49.166 0.833984 65.499 12.501s26.833 27.5 31.5 47.5c4 20 1.16699 40 -8.5 60s-26.167 35.333 -49.5 46c-56 25.333 -118.333 14 -187 -34z" />
    <glyph glyph-name="a" unicode="a" horiz-adv-x="1050" 
d="M631 156l14.998 18.002c6 6 20 21.333 42 46l47 52l41 44c18 18.667 34.667 35 50 49l-130 94l-82 55c0.666992 -8.66699 1.33398 -18.667 2.00098 -30l2 -24c1.33301 -9.33301 2.33301 -17.833 3 -25.5s1 -14.5 1 -20.5c0.666992 -13.333 0.666992 -24.333 0 -33
c-2 -18.667 -8.66699 -33.334 -20 -44.001c-8 -8.66699 -19.333 -14.334 -34 -17.001c-6 -1.33301 -13.667 -2.33301 -23 -3c-13.333 -0.666992 -31.666 -0.666992 -54.999 0c-28 1.33301 -78 4.33301 -150 9c-70 4 -118.667 6.66699 -146 8h-31v-63
c0 -17.333 0.333008 -34 1 -50c19.333 2 52.666 5.66699 99.999 11l111 12c38 4 61.667 6 71 6h31h31h2l1 0.5c0.666992 0.333008 2.33398 0.833008 5.00098 1.5s6 1.66699 10 3c25.333 5.33301 47 2.33301 65 -9c10.667 -7.33301 19 -18.333 25 -33
c3.33301 -7.33301 6.33301 -16.333 9 -27c2 -8.66699 4 -18.667 6 -30zM521.998 417.002l-3.00195 30.0039c-1.33301 13.333 -2.33301 22.666 -3 27.999c-2.66699 32.667 -3 58.334 -1 77.001c4.66699 40.667 21.667 67 51 79c12 4.66699 24.667 4.66699 38 0
c6 -1.33301 12.333 -3.66602 19 -6.99902c8.66699 -4.66699 21 -11.667 37 -21c24.667 -14.667 56 -35.334 94 -62.001l152 -110c8.66699 -6 15 -14 19 -24c4.66699 -2.66699 9 -6.33398 13 -11.001c9.33301 -10.667 13.333 -22.834 12 -36.501
s-7.33301 -24.834 -18 -33.501c-14.667 -12.667 -29 -25.667 -43 -39l-45 -45l-39 -42l-44 -48l-41 -46l-49 -56l-25 -28c-5.33301 -4.66699 -9.66602 -8.33398 -12.999 -11.001s-6.66602 -5 -9.99902 -7c-11.333 -6.66699 -23.333 -8.66699 -36 -6
c-7.33301 1.33301 -14 4.33301 -20 9s-10 8.5 -12 11.5s-3 4.83301 -3 5.5l-4 10l-2 10c-0.666992 4.66699 -1.66699 11 -3 19c0 0.666992 -0.833008 7.5 -2.5 20.5s-3.16699 23.167 -4.5 30.5c-2 15.333 -4 28 -6 38c-7.33301 -1.33301 -13.333 -2 -18 -2h-32h-32
c-4.66699 0 -25.334 -2 -62.001 -6l-111 -12l-105 -11l-35 -3c-5.33301 -0.666992 -9.33301 -1 -12 -1h-4h-3c-2 0 -4.33301 0.333008 -7 1c-8 0.666992 -15.667 3.66699 -23 9c-7.33301 6 -12.666 13.667 -15.999 23c-0.666992 2 -1.33398 4.33301 -2.00098 7
c-0.666992 2 -1 4 -1 6c-0.666992 2.66699 -1 6 -1 10c-0.666992 6 -1 14.333 -1 25c-1.33301 22 -2 46.333 -2 73c0 29.333 0.333008 54 1 74c0 12 0.666992 21.333 2 28c0 5.33301 0.666992 10 2 14c2 11.333 7.66699 21.333 17 30c8.66699 7.33301 19.667 12 33 14
c6 1.33301 13.667 2.33301 23 3c14 0.666992 32.667 0.666992 56 0c28 -1.33301 78 -4.33301 150 -9c70.667 -4 119.334 -6.66699 146.001 -8h29zM548.996 418.006h1h-1z" />
    <glyph glyph-name="b" unicode="b" horiz-adv-x="990" 
d="M438 345l-13.9971 -9.00098l-32 -20l-28 -18c-7.33301 -4.66699 -12 -7.33398 -14 -8.00098c-10 -5.33301 -20.167 -7.5 -30.5 -6.5s-19.5 4.83301 -27.5 11.5v-34c0 -11.333 0.166992 -23 0.5 -35s0.666016 -25.5 0.999023 -40.5s0.5 -26.833 0.5 -35.5
c0.666992 -46 0 -84.667 -2 -116c-1.33301 -13.333 -7.16602 -24.5 -17.499 -33.5s-22.333 -13 -36 -12s-25 6.66699 -34 17s-13.167 22.5 -12.5 36.5c2 28 2.66699 63.333 2 106c-1.33301 74.667 -2 112.334 -2 113.001v406c0 14 4.83301 25.833 14.5 35.5
s21.5 14.5 35.5 14.5c11.333 0 21.666 -3.66699 30.999 -11l30 11c34.667 11.333 64 20.333 88 27c36.667 10 68.667 15.333 96 16c39.333 1.33301 71 -7 95 -25c12.667 -10 22.5 -20.833 29.5 -32.5s10.833 -24 11.5 -37s0.666992 -22.833 0 -29.5s-2 -15 -4 -25
c-1.33301 -6 -2.33301 -11.333 -3 -16c2.66699 0.666992 6 1.33398 10 2.00098c18 4.66699 43 14.334 75 29.001l77 36c13.333 6 24 10.333 32 13c7.33301 2 13.666 3.33301 18.999 4c18.667 1.33301 34 -4.33398 46 -17.001c16.667 -18.667 19.667 -41.667 9 -69
c-4 -11.333 -11 -24.333 -21 -39c-14.667 -22.667 -37 -50.667 -67 -84c-27.333 -30.667 -53.333 -58 -78 -82c-26 -26 -45.333 -43 -58 -51c-30.667 -19.333 -62.334 -31.333 -95.001 -36c-48.667 -7.33301 -88 3.66699 -118 33c-3.33301 3.33301 -6.33301 7 -9 11z
M706.003 518.999c-20.667 -8 -39.002 -14.332 -55.002 -18.999c-44.667 -11.333 -78.667 -7.66602 -102 11.001c-5.33301 4.66699 -10 9.5 -14 14.5s-7.33301 10.333 -10 16s-4.83398 10.834 -6.50098 15.501s-2.66699 10 -3 16s-0.666016 11 -0.999023 15s0 8.66699 1 14
s1.66699 9.16602 2 11.499s1.16602 5.83301 2.49902 10.5l1 7c3.33301 15.333 3.66602 23.333 0.999023 24c-5.33301 4 -16 5.66699 -32 5c-19.333 -0.666992 -43.666 -4.66699 -72.999 -12c-13.333 -4 -40.666 -12.667 -81.999 -26l-43 -14v-237
c2.66699 2 5.33398 3.66699 8.00098 5l13 8l27 18l31 19l46 28l17 10c3.33301 1.33301 6.33301 2.66602 9 3.99902s5.33398 2.33301 8.00098 3c10.667 2 20.667 1.33301 30 -2c18 -6.66699 30.333 -19 37 -37c2.66699 -6.66699 4.66699 -15.334 6 -26.001
c6.66699 -2 15.667 -2.33301 27 -1c18.667 2.66699 37 9.66699 55 21c6 4 18.833 15.5 38.5 34.5s40.167 40.167 61.5 63.5z" />
    <glyph glyph-name="c" unicode="c" horiz-adv-x="766" 
d="M382 257c10.667 -6.66699 49.998 -35.335 117.998 -86.002c23.333 -17.333 43.333 -31.666 60 -42.999c-1.33301 42 -2.16602 68.667 -2.49902 80s0.166992 37.5 1.5 78.5s2 66.167 2 75.5c0.666992 26 1.16699 65 1.5 117s0.833008 90.333 1.5 115l-184 -143
c-1.33301 -0.666992 -2.33301 -1.66699 -3 -3c-10 -12 -22.667 -18 -38 -18c-48 -0.666992 -89 -0.666992 -123 0c0 -7.33301 -0.666992 -21.333 -2 -42s-2.33301 -36.667 -3 -48c-1.33301 -25.333 -2 -45.666 -2 -60.999v-11v-8v-3c1.33301 -2 3 -3.66699 5 -5h10
c10.667 0.666992 25.334 2 44.001 4l68 7c16 6 31.333 4 46 -6zM665.998 687.999c-1.33301 -42.667 -2.5 -104.329 -3.5 -184.996s-1.5 -128.334 -1.5 -143.001c0 -14 -0.5 -36.833 -1.5 -68.5s-1.66699 -55.834 -2 -72.501s-0.166016 -37.334 0.500977 -62.001
c1.33301 -22.667 3.33301 -45.334 6 -68.001c2.66699 -22 -5.66602 -38.667 -24.999 -50c-1.33301 -4 -3 -8 -5 -12c-6.66699 -12 -16.667 -20 -30 -24s-26 -2.66699 -38 4c-32.667 17.333 -74.667 45.333 -126 84c-58 43.333 -90.333 67.333 -97 72
c-40 -4 -61.667 -6.33301 -65 -7c-20.667 -2 -37 -3.33301 -49 -4h-21c-10.667 0 -19.334 1.33301 -26.001 4c-15.333 6 -28.833 15 -40.5 27s-20.5 25.333 -26.5 40c-4 11.333 -6 30 -6 56c0 16.667 0.666992 39 2 67l3 42l2 42c0.666992 10.667 1 18.667 1 24
c0 9.33301 2.33301 18 7 26v5c0.666992 14 6.16699 25.5 16.5 34.5s22.5 13.167 36.5 12.5c39.333 -2.66699 86.666 -3.33398 141.999 -2.00098l227 178c8.66699 6.66699 18.334 10.334 29.001 11.001c10.667 14.667 25 21.667 43 21c14 -0.666992 25.667 -6 35 -16
s13.666 -22 12.999 -36z" />
    <glyph glyph-name="d" unicode="d" horiz-adv-x="991" 
d="M469 149c-1.33301 34 -2.33594 83.335 -3.00293 148.002s-1 102 -1 112c-0.666992 29.333 -3.66699 73.666 -9 132.999c-2 16 -3.33301 29 -4 39l-69 -58c-47.333 -40 -83.666 -73 -108.999 -99c-6 -5.33301 -12.333 -9.33301 -19 -12
c-11.333 -11.333 -24.666 -16.333 -39.999 -15l-97 7c0.666992 -14 1.5 -34.833 2.5 -62.5s1.83301 -48.5 2.5 -62.5c4 0 30.667 -2 80 -6c18 11.333 36 11.666 54 0.999023l99 -57c48.667 -28 86.334 -50.667 113.001 -68zM545.997 684.002
c0.666992 -29.333 3.67188 -73.665 9.00488 -132.998c6 -68 9.33301 -114.667 10 -140c0 -17.333 0.166992 -53.833 0.5 -109.5s1.16602 -101.834 2.49902 -138.501s4 -73 8 -109c1.33301 -14 -2.5 -26.333 -11.5 -37s-20.167 -16.667 -33.5 -18
c-14.667 -1.33301 -27.667 3 -39 13c-4 2 -7.66699 4.33301 -11 7c-18 14 -38 28.167 -60 42.5s-41 26.166 -57 35.499l-65 37l-64 36h-10c-12.667 1.33301 -30.334 3 -53.001 5l-60 5c-18.667 2 -36 4.33301 -52 7c-14 2 -25 8.5 -33 19.5s-11 23.167 -9 36.5
c0.666992 6.66699 2.66699 13 6 19c-0.666992 16 -1.83398 40.5 -3.50098 73.5s-2.83398 57.833 -3.50098 74.5c-0.666992 8 0.666016 15.333 3.99902 22c-5.33301 8.66699 -7.66602 18 -6.99902 28c0.666992 14 6.16699 25.5 16.5 34.5s22.5 13.167 36.5 12.5
c63.333 -4 109.666 -7 138.999 -9c27.333 27.333 65 61.333 113 102c64 54 102 86.667 114 98c6 5.33301 12.667 9 20 11c10 16 24 24 42 24c14 0 26 -4.66699 36 -14s15 -21 15 -35zM676.002 514.003c12 -15.333 21.333 -27.834 28 -37.501s13.667 -21.834 21 -36.501
c7.33301 -15.333 12.333 -29.666 15 -42.999c8.66699 -41.333 -2.33301 -88.333 -33 -141c-6.66699 -12 -16.667 -19.833 -30 -23.5s-26 -2 -38 5s-19.833 17.167 -23.5 30.5s-1.83398 26 5.49902 38c17.333 30.667 24.333 54.334 21 71.001c-2.66699 14 -18 39.667 -46 77
c-8 10.667 -11.167 22.834 -9.5 36.501s8 24.667 19 33s23.333 11.666 37 9.99902s24.834 -8.16699 33.501 -19.5zM690.002 726.002c44.667 -24 82.833 -56.998 114.5 -98.998s54.167 -87.833 67.5 -137.5s19.666 -100.334 18.999 -152.001s-11 -101.834 -31 -150.501
s-47.667 -90.334 -83 -125.001c-10 -9.33301 -21.833 -14 -35.5 -14s-25.334 5 -35.001 15s-14.5 21.833 -14.5 35.5s5 25.5 15 35.5c26.667 26 47.334 57.333 62.001 94s22.167 74.834 22.5 114.501s-4.66699 78.5 -15 116.5s-27.166 73 -50.499 105
c-23.333 31.333 -51.333 56 -84 74c-12 6.66699 -20 16.667 -24 30s-2.66699 26 4 38s16.667 20 30 24s26 2.66699 38 -4z" />
    <glyph glyph-name="e" unicode="e" horiz-adv-x="1014" 
d="M397 381c0 -0.666992 -38.334 -18.666 -115.001 -53.999c-47.333 -22 -84.666 -42 -111.999 -60l60 -131l86 56c48 31.333 85 57.666 111 78.999l2 2c-6 29.333 -16.667 65.333 -32 108zM535.999 187.001c0.666992 0.666992 2 1.66406 4 2.99707c14.667 10 24 16 28 18
c132.667 66.667 211.334 107 236.001 121c-4.66699 30.667 -20 84.334 -46 161.001c-95.333 -64.667 -175.333 -112 -240 -142l-4 -2c9.33301 -33.333 16.333 -64.666 21 -93.999c2 -15.333 -2 -28.666 -12 -39.999c1.33301 -6 2.66602 -14 3.99902 -24
c2.66699 -0.666992 5.66699 -1 9 -1zM85.999 329.998c38 28.667 89.334 57.9971 154.001 87.9971c86.667 40 134 62.333 142 67c6 8.66699 14 14.667 24 18c12.667 4.66699 25.334 4.16699 38.001 -1.5s21.334 -15.167 26.001 -28.5l12 -32
c60.667 28.667 144 79.334 250 152.001c1.33301 10 5.16602 18.667 11.499 26s14.5 12.333 24.5 15c13.333 4 26 2.5 38 -4.5s19.667 -17.167 23 -30.5c2 -6.66699 13.667 -43 35 -109s35 -117.667 41 -155c0.666992 -1.33301 1.33398 -2.33301 2.00098 -3
c7.33301 -12 9.16602 -24.667 5.49902 -38s-11.167 -23.666 -22.5 -30.999l-72 -41c-26 -14 -46.667 -24.667 -62 -32l-78 -39l-66 -33l-16 -11c-16 -10.667 -31.333 -17 -46 -19c-38.667 -4.66699 -70 4 -94 26c-10.667 9.33301 -18.334 21.333 -23.001 36
c-16.667 -12 -37.334 -26 -62.001 -42l-117 -77c-18 -14 -36.667 -14.667 -56 -2c-21.333 0.666992 -36 11 -44 31c-10 24 -25.5 58.333 -46.5 103s-35.833 77 -44.5 97s-5.66699 37.667 9 53c3.33301 6.66699 8 12.334 14 17.001z" />
    <glyph glyph-name="f" unicode="f" horiz-adv-x="899" 
d="M718 102h1h-1zM693 449c-7.33301 0.666992 -16.335 0.332031 -27.002 -1.00098c-10 -0.666992 -24.667 -2.66699 -44 -6c-20.667 -3.33301 -35 -5.33301 -43 -6c-28.667 -2 -60.667 -3.16699 -96 -3.5s-64.666 -0.333008 -87.999 0s-56.666 1 -99.999 2
s-73.333 1.83301 -90 2.5c6 -86 9 -147 9 -183c0 -1.33301 -1.66699 -30 -5 -86c-1.33301 -31.333 -0.333008 -53.666 3 -66.999c1.33301 -4 2.33301 -7.33301 3 -10h4c14.667 -0.666992 34.667 -1 60 -1c50 0 110.667 0.666992 182 2c70.667 1.33301 131 3 181 5
c22.667 1.33301 41 2.33301 55 3c2 14 3 33 3 57c-0.666992 18 -1.66699 40.667 -3 68s-2 43 -2 47v20c0 12 -0.166992 26.5 -0.5 43.5s-0.5 32.833 -0.5 47.5c0 28 -0.333008 50 -1 66zM620.998 613.998l1.99609 -58.0029c0 -4.66699 -0.333008 -9 -1 -13
c14 2.66699 25.667 4.33398 35 5.00098c56.667 5.33301 97 -5 121 -31c3.33301 -2.66699 6 -5.83398 8 -9.50098s3.33301 -6.5 4 -8.5v-3l2 -6v-5c0 -2.66699 0.333008 -5.66699 1 -9v-23c0.666992 -16.667 1 -39.667 1 -69c0 -14.667 0.166992 -30.5 0.5 -47.5
s0.5 -31.167 0.5 -42.5v-22c0 -3.33301 0.666992 -18.666 2 -45.999s2.33301 -50 3 -68c0 -29.333 -1.33301 -53.666 -4 -72.999c-4.66699 -34.667 -16.334 -58.334 -35.001 -71.001c-6.66699 -5.33301 -13.667 -8.66602 -21 -9.99902c-2.66699 -0.666992 -5.66699 -1 -9 -1
c-5.33301 -0.666992 -12.666 -1.33398 -21.999 -2.00098c-15.333 -1.33301 -36.333 -2.66602 -63 -3.99902c-50.667 -2 -111.667 -3.66699 -183 -5c-72 -1.33301 -133.333 -2 -184 -2c-27.333 0 -48.666 0.333008 -63.999 1
c-9.33301 0.666992 -16.666 1.33398 -21.999 2.00098c-4 0 -7.33301 0.333008 -10 1c-7.33301 1.33301 -13.666 3.66602 -18.999 6.99902c-22.667 12.667 -38.667 37.334 -48 74.001c-6.66699 24 -8.66699 56.667 -6 98c0 6.66699 0.5 15.667 1.5 27s1.66699 21.333 2 30
s0.5 16.667 0.5 24c0 24 -0.666992 49.333 -2 76l-6 88c-2 33.333 -3.66699 58.666 -5 75.999c-0.666992 14 3.66602 26.167 12.999 36.5s20.666 15.833 33.999 16.5s25 -3.33301 35 -12c4.66699 1.33301 9.66699 2 15 2c12.667 0 26.334 -0.333008 41.001 -1
c0 4.66699 0.666992 30.334 2 77.001c0.666992 14 6 25.833 16 35.5s21.833 14.167 35.5 13.5s25.334 -6 35.001 -16s14.167 -21.667 13.5 -35c-1.33301 -46 -2 -72 -2 -78c76 -1.33301 138.667 -1 188 1c-2.66699 5.33301 -4 11.333 -4 18l-2 58
c-0.666992 14 3.83301 26 13.5 36s21.334 15.333 35.001 16s25.5 -3.83301 35.5 -13.5s15.333 -21.167 16 -34.5zM344.994 383.995c10 -9.33301 15 -21 15 -35s-4.83301 -25.833 -14.5 -35.5s-21.5 -14.5 -35.5 -14.5s-25.833 4.83301 -35.5 14.5s-14.5 21.5 -14.5 35.5
s4.83301 25.833 14.5 35.5s21.5 14.5 35.5 14.5s25.667 -5 35 -15zM479.994 379.995c10 -9.33301 15 -21 15 -35s-4.83301 -25.833 -14.5 -35.5s-21.5 -14.5 -35.5 -14.5s-25.833 4.83301 -35.5 14.5s-14.5 21.5 -14.5 35.5s4.83301 25.833 14.5 35.5s21.5 14.5 35.5 14.5
s25.667 -5 35 -15zM614.994 379.995c10 -9.33301 15 -21 15 -35s-4.83301 -25.833 -14.5 -35.5s-21.5 -14.5 -35.5 -14.5s-25.833 4.83301 -35.5 14.5s-14.5 21.5 -14.5 35.5s4.83301 25.833 14.5 35.5s21.5 14.5 35.5 14.5s25.667 -5 35 -15zM328.994 242.995
c10 -9.33301 15 -21 15 -35s-4.83301 -25.833 -14.5 -35.5s-21.5 -14.5 -35.5 -14.5s-25.833 4.83301 -35.5 14.5s-14.5 21.5 -14.5 35.5s4.83301 25.833 14.5 35.5s21.5 14.5 35.5 14.5s25.667 -5 35 -15zM477.994 239.995c10 -9.33301 15 -21 15 -35
s-4.83301 -25.833 -14.5 -35.5s-21.5 -14.5 -35.5 -14.5s-25.833 4.83301 -35.5 14.5s-14.5 21.5 -14.5 35.5s4.83301 25.833 14.5 35.5s21.5 14.5 35.5 14.5s25.667 -5 35 -15zM629.994 241.995c10 -9.33301 15 -21 15 -35s-4.83301 -25.833 -14.5 -35.5
s-21.5 -14.5 -35.5 -14.5s-25.833 4.83301 -35.5 14.5s-14.5 21.5 -14.5 35.5s4.83301 25.833 14.5 35.5s21.5 14.5 35.5 14.5s25.667 -5 35 -15z" />
    <glyph glyph-name="g" unicode="g" horiz-adv-x="997" 
d="M647 511c46.667 2.66699 84.332 -1.33301 112.999 -12c38 -14.667 69.833 -38.834 95.5 -72.501s39.667 -70.667 42 -111s-11.5 -80.5 -41.5 -120.5c-19.333 -24 -52.333 -44.333 -99 -61c-34 -12.667 -76.333 -23.667 -127 -33c-75.333 -14 -152 -22.667 -230 -26
c-91.333 -4 -138.333 -6 -141 -6c-72.667 0 -125 9.33301 -157 28c-36.667 21.333 -61.5 50.333 -74.5 87s-15.5 74.334 -7.5 113.001c7.33301 36 22.833 69.167 46.5 99.5s52.834 51.5 87.501 63.5c17.333 6 40.333 9 69 9h20c10 52.667 30.5 96.167 61.5 130.5
s68.5 54.833 112.5 61.5c46 6.66699 89.833 -3.5 131.5 -30.5s74.5 -66.833 98.5 -119.5zM338.998 398c0 -14 -4.83203 -25.834 -14.499 -35.501s-21.5 -14.5 -35.5 -14.5s-25.667 4.66699 -35 14c-2 2 -3.66699 4 -5 6h-9c-6 0.666992 -11.667 1 -17 1
c-17.333 0 -29 -1 -35 -3c-16.667 -6 -31.5 -17.167 -44.5 -33.5s-21.5 -35.166 -25.5 -56.499c-9.33301 -43.333 2 -74.333 34 -93c16.667 -9.33301 52.334 -14 107.001 -14c2 0 47.667 2 137 6c69.333 3.33301 141.333 11.666 216 24.999c46.667 8.66699 84 18 112 28
c28.667 10.667 46.667 20.334 54 29.001c19.333 23.333 23.666 50.666 12.999 81.999s-33 53.333 -67 66c-14 5.33301 -33 7.33301 -57 6c0 -13.333 -4.66699 -25 -14 -35s-21 -15 -35 -15s-26 4.66699 -36 14s-15 21 -15 35l-1 36l-4 8
c-15.333 41.333 -35.333 70.5 -60 87.5s-48.167 23.833 -70.5 20.5s-42.833 -16.666 -61.5 -39.999s-29.334 -57.333 -32.001 -102c0 -2.66699 -0.333008 -5 -1 -7c1.33301 -4.66699 2 -9.66699 2 -15z" />
    <glyph glyph-name="h" unicode="h" horiz-adv-x="844" 
d="M418 69c0.666992 0 1.83398 0.166016 3.50098 0.499023s3.5 0.833008 5.5 1.5s4.83301 1.83398 8.5 3.50098s7.83398 3.83398 12.501 6.50098c19.333 12 43.666 31.667 72.999 59c23.333 22 48.666 48.667 75.999 80c-25.333 1.33301 -51.666 3.66602 -78.999 6.99902
c-13.333 2 -24.166 8.5 -32.499 19.5s-11.833 23.5 -10.5 37.5c0.666992 4 2 8 4 12c-0.666992 3.33301 -1 6.66602 -1 9.99902c2 30.667 2.33301 86.334 1 167.001c-0.666992 51.333 -0.666992 91 0 119c-58.667 -4.66699 -115.334 -6.33398 -170.001 -5.00098
c11.333 -111.333 17.666 -204.333 18.999 -279c0 -16 -6 -29 -18 -39c-2 -12 -7.66699 -22 -17 -30s-20.333 -12 -33 -12l-27 1l2 -2l97 -74c6 -5.33301 12.167 -11.166 18.5 -17.499s13.5 -14.5 21.5 -24.5l13 -14c13.333 -14.667 24.333 -23.667 33 -27zM581 641.999
c-2.66699 -37.333 -3.33203 -92.999 -1.99902 -166.999c1.33301 -70 1.33301 -121 0 -153c36 -3.33301 73 -3.33301 111 0c14 0.666992 26.167 -3.33301 36.5 -12s16.166 -20 17.499 -34c0.666992 -10.667 -1.66602 -20.667 -6.99902 -30c0 -12 -4.33301 -22.667 -13 -32
c-2.66699 -3.33301 -13 -15.333 -31 -36l-53 -59l-50 -52c-34 -32 -64.667 -56 -92 -72c-42 -24.667 -79.333 -31.334 -112 -20.001c-25.333 8.66699 -50.333 26.667 -75 54c-4 4 -9.16699 9.83301 -15.5 17.5s-11.333 13.334 -15 17.001s-7.83398 7.16699 -12.501 10.5
c-10 8.66699 -41 32.667 -93 72c-41.333 31.333 -73.666 57.666 -96.999 78.999c-10 9.33301 -15.333 21 -16 35s3.66602 26 12.999 36c11.333 12 25.333 17.333 42 16c10.667 12.667 24.334 18.667 41.001 18c36.667 -1.33301 60 -2 70 -2
c-2.66699 68 -10.667 169.667 -24 305c-1.33301 13.333 2.33398 25.5 11.001 36.5s20 17.167 34 18.5c6 2 12.333 2.66699 19 2c77.333 -6 160 -3.66699 248 7c7.33301 0.666992 14.333 0 21 -2c13.333 -2 24.166 -8 32.499 -18s12.166 -21.667 11.499 -35z" />
    <glyph glyph-name="i" unicode="i" horiz-adv-x="827" 
d="M132 437c7.33301 -1.33301 16.9951 -2.66602 28.9951 -3.99902c0 -0.666992 19.333 -3.33398 58 -8.00098c17.333 -2.66699 30 -12 38 -28c13.333 -10 20 -23.333 20 -40c0 -26.667 4 -79.667 12 -159c6 -59.333 9 -106.333 9 -141c21.333 0.666992 87.333 3 198 7
c-1.33301 24 -3.66602 57.5 -6.99902 100.5s-6.16602 82.333 -8.49902 118s-3.83301 69.167 -4.5 100.5c0 14 4.66699 26 14 36s21 15 35 15c4 0 8 -0.333008 12 -1c6 2.66699 12.667 4 20 4c16.667 0 31.334 0.333008 44.001 1l-38 35c-38 35.333 -69.667 66 -95 92l-26 31
l-36 41l-27 28l-33 -27l-69 -56c0 -0.666992 -9 -8.16699 -27 -22.5s-33.667 -27.5 -47 -39.5s-25.666 -24.333 -36.999 -37c-17.333 -18 -28.666 -33.333 -33.999 -46zM196.995 32c2 36.667 -0.333008 88.3369 -7 155.004c-8 79.333 -12.333 126.666 -13 141.999
c-11.333 2 -21.666 3.66699 -30.999 5c-16 2 -29.333 4 -40 6c-6.66699 1.33301 -12.334 2.66602 -17.001 3.99902c-10.667 3.33301 -19.334 7.66602 -26.001 12.999c-33.333 29.333 -42 66.333 -26 111c8.66699 25.333 27 53 55 83c10 11.333 22 23 36 35l34 31
c9.33301 8 19.833 16.5 31.5 25.5s18.167 14.167 19.5 15.5l70 58l43 35l15 11l5 5l4 2c2 1.33301 3.66699 2.33301 5 3c0.666992 0.666992 1.66699 1.16699 3 1.5s4.16602 1 8.49902 2s8.5 1.5 12.5 1.5c12 -0.666992 24.333 -5 37 -13
c6.66699 -4.66699 14 -10.334 22 -17.001c11.333 -10.667 25.333 -25 42 -43l35 -40c14 -16.667 22.333 -26.334 25 -29.001c23.333 -24.667 53.666 -54 90.999 -88c30 -27.333 50 -46.666 60 -57.999c24 -26 36 -50 36 -72c0.666992 -11.333 -1.33301 -21.5 -6 -30.5
s-10.667 -16.167 -18 -21.5s-14.166 -9.5 -20.499 -12.5s-12.833 -5.16699 -19.5 -6.5c-20 -5.33301 -48.333 -8.33301 -85 -9c1.33301 -34 4.33301 -82 9 -144s7.66699 -104.333 9 -127c0.666992 -15.333 -4.33301 -28.333 -15 -39
c0.666992 -3.33301 1 -6.66602 1 -9.99902c0.666992 -14 -3.66602 -26 -12.999 -36s-21 -15.333 -35 -16c-169.333 -6.66699 -256 -10 -260 -10c-10.667 -0.666992 -20.334 1.66602 -29.001 6.99902s-15 12.666 -19 21.999c-9.33301 4 -16.666 10.333 -21.999 19
s-7.66602 18.334 -6.99902 29.001z" />
    <glyph glyph-name="j" unicode="j" horiz-adv-x="839" 
d="M631 402c-31.333 -0.666992 -56.001 -1 -74.001 -1c-29.333 -0.666992 -53 -0.666992 -71 0c-10.667 0 -19.667 0.333008 -27 1c-13.333 1.33301 -24 4 -32 8c-22.667 12.667 -38.667 37.667 -48 75c-6 21.333 -10.333 49.333 -13 84
c-1.33301 20.667 -2.66602 48 -3.99902 82v9c-41.333 -0.666992 -68 -1.33398 -80 -2.00098c-2.66699 -44 -4.33398 -88.333 -5.00098 -133s-0.166992 -96.167 1.5 -154.5s3.16699 -101.166 4.5 -128.499s4 -77 8 -149c54.667 -1.33301 167.334 -1.66602 338.001 -0.999023
c-0.666992 143.333 -0.666992 233.666 0 270.999c0 11.333 0.666992 24.333 2 39zM477.999 501l11 -0.000976562c16.667 -0.666992 38.667 -0.666992 66 0c18.667 0 46 0.333008 82 1c-21.333 18 -52.333 42.667 -93 74l-81 64c0.666992 -23.333 1.66699 -44.333 3 -63
c2 -29.333 5 -51.666 9 -66.999c1.33301 -3.33301 2.33301 -6.33301 3 -9zM738.999 533.999c0 -22 -1.66699 -51.998 -5 -89.998c-2.66699 -39.333 -4.33398 -67 -5.00098 -83c-1.33301 -0.666992 -1.66602 -53.667 -0.999023 -159l1 -158c0 -12.667 -4 -23.5 -12 -32.5
s-18 -14.5 -30 -16.5c-5.33301 -2 -10.666 -3 -15.999 -3c-237.333 0 -384.333 1 -441 3c-13.333 0.666992 -24.833 6 -34.5 16s-14.167 22 -13.5 36c0.666992 10 3.66699 19 9 27c0 9.33301 -0.666992 22.666 -2 39.999c-4 86 -7 152.833 -9 200.5
s-2.83301 108.5 -2.5 182.5s2.83301 141.333 7.5 202c0.666992 7.33301 2.66699 14 6 20c2.66699 11.333 8.5 20.666 17.5 27.999s19.5 11 31.5 11c23.333 0 58.666 0.5 105.999 1.5s82.666 1.5 105.999 1.5c16 0 29 -6 39 -18c4.66699 -2 9.33398 -5 14.001 -9l190 -150
c12.667 -2 23.167 -7.66699 31.5 -17s12.5 -20.333 12.5 -33z" />
    <glyph glyph-name="k" unicode="k" horiz-adv-x="768" 
d="M433 578c10 -2.66699 18.333 -7.33789 25 -14.0049c24 -25.333 61.667 -73.666 113 -144.999c25.333 -34 45.666 -63.667 60.999 -89c21.333 -34 33.333 -59.333 36 -76c4.66699 -33.333 -1.66602 -63 -18.999 -89c-2 -2.66699 -4.33301 -5 -7 -7l-5 -6l-3 -2l-10 -7
l-28 -19l-79 -52l-81 -50l-29 -17c-4 -2.66699 -7.33301 -4.66699 -10 -6c-6 -3.33301 -11.333 -5.66602 -16 -6.99902c-36 -8 -66.333 -3.33301 -91 14c-14 10.667 -24.667 26 -32 46c-0.666992 3.33301 -1.5 6.33301 -2.5 9s-1.5 4.33398 -1.5 5.00098
s-0.166992 1.33398 -0.5 2.00098s-0.5 1.33398 -0.5 2.00098c-46 87.333 -101.667 175.333 -167 264c-12 16 -13.667 33 -5 51c-1.33301 6.66699 -1 13.334 1 20.001c14 54.667 24.667 122 32 202c1.33301 15.333 8.33301 27.333 21 36c-2 10.667 -0.666992 21 4 31
c6.66699 12 16.5 20.167 29.5 24.5s25.833 3.5 38.5 -2.5l70 -36l87 -44c24.667 -12.667 47.667 -25.334 69 -38.001zM350 84.9961l-2 3h-1c-1.33301 -0.666992 -1 -1.66699 1 -3h2zM568 224.996c1.33301 4.66699 1.33301 9.66797 0 15.001v2
c-1.33301 2 -3.83301 6.33301 -7.5 13s-8.16699 14 -13.5 22c-14 23.333 -33 51.333 -57 84c-38 53.333 -70 94.666 -96 123.999c-2 0.666992 -4 1.66699 -6 3c-34.667 21.333 -93.334 52.333 -176.001 93c-7.33301 -78 -18.666 -145.333 -33.999 -202v-1
c64 -88 118.333 -175.333 163 -262c4 -6.66699 7.66699 -16 11 -28l5 3l27 16l79 50l78 50l25 18h2zM316 481.997c10 -9.33301 15 -21 15 -35s-4.83301 -25.833 -14.5 -35.5s-21.5 -14.5 -35.5 -14.5s-25.833 4.83301 -35.5 14.5s-14.5 21.5 -14.5 35.5
s4.83301 25.833 14.5 35.5s21.5 14.5 35.5 14.5s25.667 -5 35 -15z" />
    <glyph glyph-name="l" unicode="l" horiz-adv-x="906" 
d="M635 700c20 8.66699 37.665 5.33594 52.998 -9.99707c37.333 -35.333 66 -77 86 -125s30.667 -96.5 32 -145.5s-4 -97.5 -16 -145.5c-11.333 -46.667 -28.666 -90.334 -51.999 -131.001c-24.667 -42.667 -54.334 -78.334 -89.001 -107.001
c-35.333 -28.667 -74.666 -47.667 -117.999 -57c-96 -20.667 -191 13.333 -285 102c-40 38 -70 80.333 -90 127c-19.333 47.333 -28.5 94.166 -27.5 140.499s8.83301 91.5 23.5 135.5s35.667 84 63 120c28.667 36.667 61.834 67.167 99.501 91.5s78.5 39.833 122.5 46.5
c68 9.33301 134 -4.66699 198 -42zM643.998 569.002c-62 58.667 -126.332 83.332 -192.999 73.999c-60 -9.33301 -112 -42.666 -156 -99.999c-28.667 -38 -48.5 -79.5 -59.5 -124.5s-10.167 -91.5 2.5 -139.5s38 -90 76 -126c68 -64 133.333 -89.333 196 -76
c56 12 103.333 51 142 117c32.667 55.333 50.667 116 54 182c3.33301 65.333 -9.66699 125.333 -39 180c-8.66699 2 -16.334 6.33301 -23.001 13zM510.999 552c0 -6.66699 -1.6709 -26.668 -5.00391 -60.001c-2 -23.333 -2.66699 -41.666 -2 -54.999
c0.666992 -22.667 5.33398 -38 14.001 -46h1l36 3l53 4c14 0.666992 26.167 -3.5 36.5 -12.5s16 -20.333 17 -34s-3 -25.667 -12 -36s-20.167 -16.166 -33.5 -17.499l-54 -4l-36 -3l-12 -1h-4h-1h-2h-2h-4c-4.66699 0 -9.66699 1.33301 -15 4
c-51.333 23.333 -78.666 69.333 -81.999 138c-1.33301 18 -0.666016 41 2.00098 69c3.33301 31.333 5 49.666 5 54.999c0.666992 13.333 6 24.833 16 34.5s21.833 14.167 35.5 13.5s25.334 -6 35.001 -16s14.167 -22 13.5 -36z" />
    <glyph glyph-name="m" unicode="m" horiz-adv-x="896" 
d="M681 52h2h-2zM584 586c-1.33301 2 -2.66797 3.66895 -4.00098 5.00195c-2.66699 0 -5.66699 0.333008 -9 1c-8.66699 1.33301 -20.334 2.66602 -35.001 3.99902c-26 2 -60.333 3.66699 -103 5c-46.667 0.666992 -94.667 1 -144 1
c0.666992 -45.333 2.83398 -114.666 6.50098 -207.999s5.83398 -164 6.50098 -212c0 -0.666992 -0.666992 -28.667 -2 -84v-43c12 -2.66699 29.667 -4.33398 53 -5.00098c18.667 -0.666992 41 -0.666992 67 0c26.667 1.33301 41.334 2 44.001 2h117h47
c-1.33301 13.333 -3.66602 30 -6.99902 50c-2 14 -4.66699 31.167 -8 51.5s-5.83301 36.5 -7.5 48.5s-2.83398 19.667 -3.50098 23c-9.33301 86 -14.333 152 -15 198v19l-110 -121c-8.66699 -10.667 -20 -16.334 -34 -17.001s-26.167 3.5 -36.5 12.5
s-15.833 20.5 -16.5 34.5s3.66602 26 12.999 36zM691.998 556.002c0 -12 -0.333984 -27.6719 -1.00098 -47.0049c-0.666992 -8.66699 -1.33398 -19.334 -2.00098 -32.001s-1.16699 -23.167 -1.5 -31.5s-0.5 -15.166 -0.5 -20.499
c0.666992 -43.333 5.66699 -106.666 15 -189.999c0 -3.33301 1 -10.666 3 -21.999s4.33301 -26.666 7 -45.999l8 -50c4.66699 -30.667 8 -55.334 10 -74.001c1.33301 -11.333 2.33301 -20.333 3 -27c0.666992 -4.66699 0.833984 -8.66699 0.500977 -12
s-0.5 -6.33301 -0.5 -9c-2 -9.33301 -6 -17.666 -12 -24.999c-7.33301 -10 -18.333 -16 -33 -18h-2h-1h-1h-1h-2h-7h-22h-71h-117c-2.66699 0 -18 -0.5 -46 -1.5s-50.667 -1.16699 -68 -0.5c-28.667 0.666992 -52.667 3 -72 7c-32 6.66699 -54.667 19.334 -68 38.001
c-2.66699 4 -4.83398 7.83301 -6.50098 11.5s-2.5 6.5 -2.5 8.5l-1 3v6v7c-0.666992 4 -1 10 -1 18c0.666992 12 1 29 1 51c0.666992 9.33301 1.16699 20.833 1.5 34.5s0.5 24.167 0.5 31.5v16c-0.666992 46.667 -3 121.334 -7 224.001s-6 181 -6 235
c0 21.333 9.33301 36.333 28 45c10 10.667 22 16 36 16c51.333 0.666992 112.333 0.333984 183 -0.999023c44 -1.33301 80 -3 108 -5c17.333 -1.33301 31.333 -3 42 -5c16.667 -2.66699 29.334 -6.33398 38.001 -11.001c10 -4.66699 19 -11.334 27 -20.001l58 64
c9.33301 10 21 15.333 35 16s26 -3.66602 36 -12.999s15.333 -21 16 -35s-3.66602 -26 -12.999 -36z" />
    <glyph glyph-name="n" unicode="n" horiz-adv-x="810" 
d="M488 677c-4 -56.667 -5.66602 -124.002 -4.99902 -202.002l170 25c14 1.33301 26.5 -2.16699 37.5 -10.5s17.333 -19.333 19 -33s-1.66602 -26 -9.99902 -37s-19.166 -17.5 -32.499 -19.5c-21.333 -2.66699 -82 -11.334 -182 -26.001c2 -98 2.33301 -171.333 1 -220
c-0.666992 -14 -6 -25.833 -16 -35.5s-21.833 -14.167 -35.5 -13.5s-25.334 6 -35.001 16s-14.167 21.667 -13.5 35c1.33301 48 1 116 -1 204c-74.667 -9.33301 -140.334 -16 -197.001 -20c-13.333 -0.666992 -25.333 3.5 -36 12.5s-16.334 20.333 -17.001 34
s3.5 25.834 12.5 36.501s20.5 16.334 34.5 17.001c58 4 125 11 201 21c-1.33301 88.667 0.333984 163.334 5.00098 224.001c1.33301 13.333 7.16602 24.5 17.499 33.5s22.333 13 36 12s25 -6.66699 34 -17s13.167 -22.5 12.5 -36.5z" />
    <glyph glyph-name="o" unicode="o" horiz-adv-x="847" 
d="M150 414c40 -6 86.3311 -10.333 138.998 -13s94 -4.16699 124 -4.5s81 -0.333008 153 0s115.667 0.5 131 0.5c14 0 25.833 -4.83301 35.5 -14.5s14.5 -21.5 14.5 -35.5s-4.83301 -25.833 -14.5 -35.5s-21.5 -14.5 -35.5 -14.5c-12.667 0 -55.667 -0.166992 -129 -0.5
s-125.5 -0.333008 -156.5 0s-74 2 -129 5s-103.833 7.16699 -146.5 12.5c-13.333 2 -24.166 8.5 -32.499 19.5s-11.666 23.333 -9.99902 37s8 24.667 19 33s23.5 11.833 37.5 10.5z" />
    <glyph glyph-name="p" unicode="p" horiz-adv-x="920" 
d="M267 304c11.333 -22 41.001 -66.6641 89.001 -133.997l43 -59l15 31l20 44l16 40c4.66699 10 7.33398 16 8.00098 18c70.667 144.667 161.667 285.667 273 423c8.66699 11.333 19.834 17.666 33.501 18.999s26 -2.33398 37 -11.001s17.167 -19.834 18.5 -33.501
s-2.33398 -25.834 -11.001 -36.501c-104.667 -129.333 -191.667 -264.333 -261 -405c-0.666992 -1.33301 -3.33398 -7 -8.00098 -17l-16 -39l-19 -43c-12.667 -28 -23.334 -50 -32.001 -66c-6 -10.667 -11.333 -19.334 -16 -26.001
c-3.33301 -4.66699 -6.66602 -8.66699 -9.99902 -12c-10 -10 -21.333 -15.667 -34 -17c-13.333 -1.33301 -26.333 2.33398 -39 11.001l-14 12c-6.66699 6.66699 -15 16.334 -25 29.001c-15.333 18.667 -35.333 45.334 -60 80.001c-51.333 73.333 -83.333 122 -96 146
c-6.66699 12 -7.83398 24.667 -3.50098 38s12.5 23.166 24.5 29.499s24.667 7.33301 38 3s23 -12.5 29 -24.5z" />
    <glyph glyph-name="q" unicode="q" horiz-adv-x="871" 
d="M423 298c-88.667 -69.333 -163.331 -141.337 -223.998 -216.004c-8.66699 -10.667 -20 -16.667 -34 -18s-26.333 2.33398 -37 11.001s-16.667 20 -18 34s2.33398 26.333 11.001 37c64.667 79.333 143.667 155.333 237 228c-55.333 62.667 -119.333 130.667 -192 204
c-10 9.33301 -15 21 -15 35s4.83301 25.833 14.5 35.5s21.5 14.5 35.5 14.5s25.667 -5 35 -15c77.333 -76.667 145 -148 203 -214c79.333 56 165.666 108 258.999 156c12 6.66699 24.667 7.83398 38 3.50098s23.166 -12.5 29.499 -24.5s7.33301 -24.667 3 -38
s-12.5 -23 -24.5 -29c-86 -45.333 -166 -93.666 -240 -144.999c71.333 -86.667 132.333 -170.667 183 -252c6.66699 -11.333 8.5 -23.833 5.5 -37.5s-10.333 -24 -22 -31s-24.334 -9 -38.001 -6s-24.167 10.5 -31.5 22.5c-48.667 78.667 -108 160.334 -178 245.001z" />
    <glyph glyph-name="r" unicode="r" horiz-adv-x="963" 
d="M727 523l-129.004 -118.001c-34 -30 -62.333 -52.667 -85 -68c-15.333 -10.667 -28.666 -18.667 -39.999 -24c-20 -8.66699 -38 -11.334 -54 -8.00098c-18.667 4 -35.334 15.333 -50.001 34l-7 9c-1.33301 2 -2.16602 3.33301 -2.49902 4s-0.833008 1.33398 -1.5 2.00098
l-2 2c-18 17.333 -54 47.333 -108 90l-59 47c0.666992 -10.667 0.833984 -53.834 0.500977 -129.501s-0.5 -118.5 -0.5 -128.5v-65c0 -2.66699 -0.333008 -5.66699 -1 -9h5h55c28.667 -0.666992 90.834 -2.66699 186.501 -6s169.834 -4.66602 222.501 -3.99902
c36.667 0 62.667 0.333008 78 1c11.333 0.666992 20.333 1.33398 27 2.00098c-1.33301 14.667 -4 34 -8 58c-2 14 -4.66699 30 -8 48l-7 45l-4 24c0 2.66699 -2 51 -6 145zM152.996 649.999c9.33301 16.667 23.3291 24.999 41.9961 24.999
c49.333 0.666992 117.666 -0.666016 204.999 -3.99902c104.667 -4 171.334 -6 200.001 -6c2.66699 0 14.834 0.5 36.501 1.5s39.834 1.5 54.501 1.5c24 -0.666992 44 -2.33398 60 -5.00098c28 -5.33301 48.333 -15.666 61 -30.999
c2.66699 -3.33301 4.83398 -6.66602 6.50098 -9.99902s2.83398 -6 3.50098 -8l1 -2v-5c0.666992 -0.666992 1 -1.33398 1 -2.00098v-2v-1v-3v-8l1 -28l4 -85c2.66699 -83.333 4.66699 -129 6 -137c0 -4 1 -11.667 3 -23l8 -44l7 -47c4.66699 -29.333 7.66699 -53 9 -71
c0.666992 -12 1 -22 1 -30c0 -16.667 -3.66699 -30 -11 -40c-7.33301 -11.333 -19.333 -19.333 -36 -24c-6 -2 -14 -3.66699 -24 -5c-13.333 -2 -30.666 -3.33301 -51.999 -4c-16.667 -1.33301 -44.334 -2 -83.001 -2c-52 -0.666992 -126.333 0.666016 -223 3.99902
s-159.334 5.33301 -188.001 6h-53c-16 0 -28.667 0.333008 -38 1h-15c-2.66699 0.666992 -5 1 -7 1c-2.66699 0.666992 -5 1.33398 -7 2.00098c-8.66699 2 -16.667 6.66699 -24 14c-16 17.333 -21.667 40 -17 68c0.666992 4.66699 1.33398 8.5 2.00098 11.5s1.16699 5 1.5 6
s0.5 1.83301 0.5 2.5v3v65c0 204.667 -0.666992 326.667 -2 366c-0.666992 14 3.83301 26 13.5 36s21.167 15.333 34.5 16c6 0 12 -1 18 -3zM441.992 409.998c4 2 8.66797 5.00195 14.001 9.00195c19.333 13.333 44.666 33.666 75.999 60.999l93 86
c-12.667 -0.666992 -21 -1 -25 -1c-39.333 0 -107.333 2 -204 6c-64.667 2.66699 -114.667 4 -150 4l64 -50c50 -40 88 -71.667 114 -95c4.66699 -4.66699 10.667 -11.334 18 -20.001z" />
    <glyph glyph-name="s" unicode="s" horiz-adv-x="895" 
d="M566 324c-2.66699 -0.666992 -5.33203 -0.999023 -7.99902 -0.999023c-30.667 -0.666992 -74.167 -2.16699 -130.5 -4.5s-96.833 -3.83301 -121.5 -4.5c-6 -100 -8.66699 -159 -8 -177c119.333 13.333 208.666 18.666 267.999 15.999
c-0.666992 55.333 -0.666992 112.333 0 171zM573.002 609.001c-79.333 -5.33301 -171.002 -8.33105 -275.002 -8.99805c0.666992 -10.667 1.83398 -27.334 3.50098 -50.001s2.83398 -40 3.50098 -52c1.33301 -30.667 2.33301 -58.334 3 -83.001
c24 0 63.833 1.16699 119.5 3.5s98.5 3.83301 128.5 4.5c4 0 8 -0.333008 12 -1c1.33301 60 3 122.333 5 187zM250 700.003c134 0 248.668 3.66699 344.001 11c8.66699 0.666992 17 -0.666016 25 -3.99902h8c14 -0.666992 25.667 -6 35 -16s13.666 -22 12.999 -36
c-8 -211.333 -10.667 -401.666 -8 -570.999c0 -14 -4.66699 -26 -14 -36s-21 -15 -35 -15c-16.667 0 -30 6.33301 -40 19c-16 1.33301 -33 2 -51 2s-33.5 -0.333008 -46.5 -1s-30.333 -1.83398 -52 -3.50098s-37.5 -2.83398 -47.5 -3.50098l-53 -6
c-26 -2.66699 -43.333 -4.66699 -52 -6c-6.66699 -4 -14 -6.33301 -22 -7c-14 -0.666992 -26.167 3.5 -36.5 12.5s-16.166 20.167 -17.499 33.5c-1.33301 48.667 -2 80 -2 94s1.33301 44.667 4 92l5 88c2 38.667 1.33301 87.334 -2 146.001
c-0.666992 3.33301 -2.33398 24.333 -5.00098 63c-2 35.333 -3.33301 64.666 -4 87.999c-0.666992 16 5 29 17 39c10 11.333 22.333 17 37 17zM160.001 668.003c10 -9.33301 15 -21 15 -35s-4.83301 -25.833 -14.5 -35.5s-21.5 -14.5 -35.5 -14.5
s-25.833 4.83301 -35.5 14.5s-14.5 21.5 -14.5 35.5s4.83301 25.833 14.5 35.5s21.5 14.5 35.5 14.5s25.667 -5 35 -15zM167.001 505.003c10 -9.33301 15 -21 15 -35s-4.83301 -25.833 -14.5 -35.5s-21.5 -14.5 -35.5 -14.5s-25.833 4.83301 -35.5 14.5
s-14.5 21.5 -14.5 35.5s4.83301 25.833 14.5 35.5s21.5 14.5 35.5 14.5s25.667 -5 35 -15zM166.001 317.003c10 -9.33301 15 -21 15 -35s-4.83301 -25.833 -14.5 -35.5s-21.5 -14.5 -35.5 -14.5s-25.833 4.83301 -35.5 14.5s-14.5 21.5 -14.5 35.5s4.83301 25.833 14.5 35.5
s21.5 14.5 35.5 14.5s25.667 -5 35 -15zM164.001 138.003c10 -9.33301 15 -21 15 -35s-4.83301 -25.833 -14.5 -35.5s-21.5 -14.5 -35.5 -14.5s-25.833 4.83301 -35.5 14.5s-14.5 21.5 -14.5 35.5s4.83301 25.833 14.5 35.5s21.5 14.5 35.5 14.5s25.667 -5 35 -15z
M771.001 683.003c10 -9.33301 15 -21 15 -35s-4.83301 -25.833 -14.5 -35.5s-21.5 -14.5 -35.5 -14.5s-25.833 4.83301 -35.5 14.5s-14.5 21.5 -14.5 35.5s4.83301 25.833 14.5 35.5s21.5 14.5 35.5 14.5s25.667 -5 35 -15zM777.001 515.003c10 -9.33301 15 -21 15 -35
s-4.83301 -25.833 -14.5 -35.5s-21.5 -14.5 -35.5 -14.5s-25.833 4.83301 -35.5 14.5s-14.5 21.5 -14.5 35.5s4.83301 25.833 14.5 35.5s21.5 14.5 35.5 14.5s25.667 -5 35 -15zM780.001 343.003c10 -9.33301 15 -21 15 -35s-4.83301 -25.833 -14.5 -35.5
s-21.5 -14.5 -35.5 -14.5s-25.833 4.83301 -35.5 14.5s-14.5 21.5 -14.5 35.5s4.83301 25.833 14.5 35.5s21.5 14.5 35.5 14.5s25.667 -5 35 -15zM779.001 152.003c10 -9.33301 15 -21 15 -35s-4.83301 -25.833 -14.5 -35.5s-21.5 -14.5 -35.5 -14.5
s-25.833 4.83301 -35.5 14.5s-14.5 21.5 -14.5 35.5s4.83301 25.833 14.5 35.5s21.5 14.5 35.5 14.5s25.667 -5 35 -15z" />
    <glyph glyph-name="t" unicode="t" horiz-adv-x="697" 
d="M505 460l-16.001 16.0039c-6 5.33301 -10.333 9.33301 -13 12l-10 8c-3.33301 2.66699 -6 4.5 -8 5.5s-4.5 1.83301 -7.5 2.5s-6.16699 1 -9.5 1c-14.667 0 -27.167 -7 -37.5 -21s-13.166 -27.667 -8.49902 -41c2 -6 4.33301 -9.33301 7 -10
c5.33301 -2.66699 16.666 -3.66699 33.999 -3h10h13c2 0 6.5 -0.333008 13.5 -1s12.333 -1.33398 16 -2.00098s9 -1.83398 16 -3.50098s12.667 -3.5 17 -5.5s9.5 -4.66699 15.5 -8s11.167 -7.16602 15.5 -11.499s8.83301 -9.5 13.5 -15.5s9 -12.333 13 -19
c14.667 -29.333 20.667 -57.5 18 -84.5s-10.667 -50.833 -24 -71.5s-30.666 -37.334 -51.999 -50.001c-20.667 -12.667 -43 -21 -67 -25s-48.833 -2 -74.5 6s-47.834 22.667 -66.501 44c-4 4.66699 -8.33301 10.5 -13 17.5s-8.33398 13.167 -11.001 18.5
s-5.16699 10.666 -7.5 15.999s-3.83301 8.33301 -4.5 9c-6.66699 12 -8 24.667 -4 38s12 23.333 24 30s24.667 8 38 4s23.333 -12 30 -24c4.66699 -8 8.33398 -15.167 11.001 -21.5s4.66699 -10.5 6 -12.5l5 -9c10 -10.667 22.333 -16.667 37 -18s29.334 2.66699 44.001 12
c30 18.667 37 43.667 21 75c-2 4.66699 -5.83301 7.83398 -11.5 9.50098s-19.167 2.5 -40.5 2.5c-30.667 -0.666992 -54.667 2.66602 -72 9.99902c-32 12.667 -54 37 -66 73c-9.33301 30 -8.5 60.167 2.5 90.5s29.333 54.833 55 73.5s53.834 28 84.501 28
c12.667 0 25.167 -1.66699 37.5 -5s23.666 -8.5 33.999 -15.5s18.5 -12.833 24.5 -17.5s13.333 -11 22 -19l14 -14c10 -9.33301 15.333 -20.833 16 -34.5s-3.66602 -25.667 -12.999 -36s-20.833 -15.833 -34.5 -16.5s-25.834 3.66602 -36.501 12.999zM490.999 738.004l2 -57
c0.666992 -14 -3.83301 -26 -13.5 -36s-21.334 -15.333 -35.001 -16s-25.5 3.83301 -35.5 13.5s-15.333 21.167 -16 34.5l-2 57c-0.666992 14 3.83301 26 13.5 36s21.334 15.333 35.001 16s25.5 -3.83301 35.5 -13.5s15.333 -21.167 16 -34.5zM501.999 50.0039v-54
c0 -14 -4.83301 -25.833 -14.5 -35.5s-21.5 -14.5 -35.5 -14.5s-25.833 4.83301 -35.5 14.5s-14.5 21.5 -14.5 35.5v54c0 14 4.83301 25.833 14.5 35.5s21.5 14.5 35.5 14.5s25.833 -4.83301 35.5 -14.5s14.5 -21.5 14.5 -35.5z" />
    <glyph glyph-name="u" unicode="u" horiz-adv-x="864" 
d="M483 338c-4 33.333 -7 67.001 -9 101.001l-63 -27l-42 -18l15 -99c32.667 15.333 65.667 29.666 99 42.999zM568 683.001c-0.666992 -34 -0.670898 -67.6611 -0.00390625 -100.994c26.667 9.33301 52.667 17.333 78 24c13.333 4 26 2.5 38 -4.5
s19.833 -17.167 23.5 -30.5s2 -26 -5 -38s-17.167 -19.667 -30.5 -23c-31.333 -8.66699 -64.666 -19.334 -99.999 -32.001c2 -36 4.66699 -71 8 -105c40.667 12.667 81.667 24 123 34c13.333 2.66699 25.833 0.5 37.5 -6.5s19 -17.333 22 -31s1 -26.334 -6 -38.001
s-17.5 -19.167 -31.5 -22.5c-44.667 -10 -89 -22.667 -133 -38c11.333 -78.667 26.666 -153.334 45.999 -224.001c4 -13.333 2.5 -26 -4.5 -38s-17.167 -19.833 -30.5 -23.5s-26 -2 -38 5s-19.667 17.167 -23 30.5c-18.667 68 -33.667 139.333 -45 214
c-32 -12.667 -63.667 -27 -95 -43c11.333 -60.667 24 -116.667 38 -168c4 -13.333 2.5 -26 -4.5 -38s-17.167 -19.833 -30.5 -23.5s-26 -2 -38 5s-19.667 17.167 -23 30.5c-12.667 44.667 -24 93 -34 145c-30 -16.667 -60 -34.667 -90 -54
c-11.333 -7.33301 -23.833 -9.5 -37.5 -6.5s-24.167 10.167 -31.5 21.5s-9.5 23.833 -6.5 37.5s10.167 24.167 21.5 31.5c42 26.667 83.667 51.334 125 74.001c-5.33301 30 -11 65.667 -17 107c-49.333 -20.667 -93.333 -37.334 -132 -50.001
c-13.333 -4.66699 -26.166 -3.83398 -38.499 2.49902s-20.666 16 -24.999 29s-3.33301 25.667 3 38s15.833 20.5 28.5 24.5c43.333 14.667 93 34 149 58l-2 15l-7 39l-6 40c-1.33301 8.66699 -3.16602 22.667 -5.49902 42s-3.16602 33.833 -2.49902 43.5s1 24.834 1 45.501
c1.33301 13.333 7.16602 24.5 17.499 33.5s22.333 13 36 12s25 -6.66699 34 -17s13.167 -22.5 12.5 -36.5c-1.33301 -5.33301 -1.66602 -14.833 -0.999023 -28.5s1 -23 1 -28s0.833008 -14.333 2.5 -28s3 -23.334 4 -29.001s2.66699 -15.834 5 -30.501
s4.16602 -25.334 5.49902 -32.001l17 7l98 41c-1.33301 46 -1.66602 92.667 -0.999023 140c0 14 5 25.667 15 35s22 14 36 14s25.667 -5 35 -15s14 -22 14 -36z" />
    <glyph glyph-name="v" unicode="v" horiz-adv-x="996" 
d="M265 553c-10.667 0 -23.666 -0.666992 -38.999 -2c-21.333 -1.33301 -47.333 -4 -78 -8c-0.666992 -10.667 -1.33398 -20 -2.00098 -28c-1.33301 -20 -2 -35.667 -2 -47v-5v-3c1.33301 -1.33301 3 -2 5 -2c7.33301 -2 18.333 -1.33301 33 2
c34 7.33301 54.667 11.333 62 12h13v6c3.33301 40.667 5 61.334 5 62.001c0.666992 3.33301 1.66699 7.66602 3 12.999zM133.001 642c34 4.66699 62.667 7.66504 86 8.99805c30 2 54 2 72 0c14 -1.33301 25.667 -3.66602 35 -6.99902c18 -6.66699 31 -17 39 -31
c11.333 -20 12.666 -42.667 3.99902 -68c-2 -4 -3.5 -7.33301 -4.5 -10s-1.66699 -4.5 -2 -5.5l-0.5 -1.5v-2c-0.666992 -2.66699 -1.16699 -6.66699 -1.5 -12s-1 -12.5 -2 -21.5s-1.5 -16.5 -1.5 -22.5c-1.33301 -15.333 -2.66602 -27 -3.99902 -35
c-0.666992 -6 -1.33398 -11 -2.00098 -15c-0.666992 -3.33301 -1.66699 -6.66602 -3 -9.99902c-3.33301 -8.66699 -8.33301 -16 -15 -22c-16 -14.667 -36.667 -20.667 -62 -18c-4 0.666992 -7.33301 1.16699 -10 1.5s-4.33398 0.5 -5.00098 0.5h-2h-2
c-2.66699 0 -19 -3.33301 -49 -10c-29.333 -6 -54.666 -6.66699 -75.999 -2c-36 8.66699 -61 27.334 -75 56.001c-4 8 -6.33301 17.667 -7 29c-0.666992 6 -1 13.667 -1 23c0 12.667 0.666992 30.334 2 53.001c0.666992 13.333 2 29.333 4 48c1.33301 20 2 32 2 36
c0.666992 14 6 25.667 16 35s22 13.666 36 12.999c10.667 -0.666992 20.334 -4.33398 29.001 -11.001zM268.001 238.998c-12.667 -0.666992 -29.0039 -1.33301 -49.0039 -2c-11.333 -0.666992 -26.666 -1.5 -45.999 -2.5s-31.666 -1.5 -36.999 -1.5
c0.666992 -18.667 1 -35.667 1 -51c0.666992 -21.333 1.33398 -39.333 2.00098 -54c16.667 -0.666992 36.334 -1 59.001 -1h67c1.33301 16 2.33301 36.667 3 62v50zM114.997 331.999c6.66699 0.666992 21.835 1.49902 45.502 2.49902s41.834 1.83301 54.501 2.5
c29.333 1.33301 52 2 68 2h25c4 0 7.5 -0.166992 10.5 -0.5s5.83301 -0.833008 8.5 -1.5c8 -1.33301 15.667 -5.66602 23 -12.999c5.33301 -4.66699 9.33301 -10.334 12 -17.001c1.33301 -2.66699 2.33301 -5 3 -7c0 -1.33301 0.333008 -3 1 -5v-5
c0 -2 0.333008 -4.66699 1 -8c0 -6.66699 0.333008 -14.667 1 -24v-71c-0.666992 -30.667 -2.33398 -55.667 -5.00098 -75c-1.33301 -13.333 -3 -24.333 -5 -33c-5.33301 -18.667 -14.333 -32.334 -27 -41.001c-2.66699 -2 -5.66699 -3.66699 -9 -5s-6 -2.33301 -8 -3h-3
c-2 -0.666992 -4 -1 -6 -1c-2.66699 -0.666992 -6 -1 -10 -1c-6 -0.666992 -14.333 -1 -25 -1h-73c-29.333 0 -53.666 0.666992 -72.999 2c-11.333 0 -20 0.333008 -26 1c-4.66699 0.666992 -8.66699 1.33398 -12 2.00098s-6.33301 1.33398 -9 2.00098
c-9.33301 3.33301 -17 8.66602 -23 15.999c-2.66699 3.33301 -5 6.83301 -7 10.5s-3 6.5 -3 8.5l-1 3c-0.666992 2 -1 4 -1 6c-0.666992 2.66699 -1 6 -1 10c-0.666992 5.33301 -1.33398 13.333 -2.00098 24c-0.666992 16.667 -1.33398 39.334 -2.00098 68.001
c0 18 -0.666992 55 -2 111c0 14 4.66699 26 14 36s21 15 35 15c11.333 0 21.666 -3.33301 30.999 -10zM454.998 666.998c59.333 -2.66699 101.998 -4.00098 127.998 -4.00098s68.833 1.33301 128.5 4s104.167 4.33398 133.5 5.00098c14 0 26 -4.66699 36 -14s15 -21 15 -35
s-4.66699 -26 -14 -36s-21 -15 -35 -15c-25.333 -0.666992 -68.666 -2.33398 -129.999 -5.00098s-106.166 -4 -134.499 -4s-73.5 1.33301 -135.5 4c-14 1.33301 -25.5 7.33301 -34.5 18s-12.833 22.834 -11.5 36.501s7.33301 25 18 34s22.667 12.833 36 11.5z
M437.996 494.997c51.333 2 123.001 6.99902 215.001 14.999s155.333 13 190 15c14 0.666992 26.167 -3.5 36.5 -12.5s15.833 -20.5 16.5 -34.5s-3.5 -26.167 -12.5 -36.5s-20.5 -15.833 -34.5 -16.5c-34.667 -2 -98.334 -7 -191.001 -15
c-88.667 -7.33301 -160.667 -12.333 -216 -15c-14 -0.666992 -26 3.83301 -36 13.5s-15.333 21.334 -16 35.001s3.83301 25.5 13.5 35.5s21.167 15.333 34.5 16zM437.997 331.996c44 0 109.667 -1.5 197 -4.5s153 -4.5 197 -4.5c14 0 25.833 -4.83301 35.5 -14.5
s14.5 -21.5 14.5 -35.5s-4.83301 -25.833 -14.5 -35.5s-21.5 -14.5 -35.5 -14.5c-44 0 -109.667 1.5 -197 4.5s-153 4.5 -197 4.5c-14 0 -25.833 4.83301 -35.5 14.5s-14.5 21.5 -14.5 35.5s4.83301 25.833 14.5 35.5s21.5 14.5 35.5 14.5zM434.997 154.996
c168.667 22.667 306.334 24.333 413.001 5c13.333 -2 24 -8.66699 32 -20s10.833 -23.833 8.5 -37.5s-9.16602 -24.5 -20.499 -32.5s-24 -10.667 -38 -8c-96 17.333 -223 15 -381 -7c-14 -1.33301 -26.5 2.16699 -37.5 10.5s-17.333 19.333 -19 33s1.66602 26 9.99902 37
s19.166 17.5 32.499 19.5z" />
    <glyph glyph-name="w" unicode="w" horiz-adv-x="869" 
d="M107 598c72 -3.33301 170.997 -2.33203 296.997 3.00098c154 6.66699 255.333 10 304 10c14 0 25.833 -4.83301 35.5 -14.5s14.5 -21.5 14.5 -35.5s-4.83301 -25.833 -14.5 -35.5s-21.5 -14.5 -35.5 -14.5c-47.333 0 -147.333 -3.33301 -300 -10
c-131.333 -6 -233.666 -7 -306.999 -3c-13.333 0.666992 -24.666 6.16699 -33.999 16.5s-13.666 22.333 -12.999 36s6.16699 25.167 16.5 34.5s22.5 13.666 36.5 12.999zM111.997 449.001c78.667 -3.33301 178.666 -2.33203 299.999 3.00098l306 13c14 0 26 -4.66699 36 -14
s15 -21 15 -35s-4.66699 -26 -14 -36s-21 -15 -35 -15c-26 -0.666992 -127 -5 -303 -13c-124.667 -5.33301 -227.667 -6.33301 -309 -3c-14 0.666992 -25.667 6 -35 16s-13.666 22 -12.999 36s6 25.667 16 35s22 13.666 36 12.999zM106.996 297.002
c38.667 3.33301 92.001 4.33398 160.001 3.00098c75.333 -1.33301 126.333 -1.33301 153 0c35.333 1.33301 85.666 5 150.999 11s112 10 140 12c14 0.666992 26.167 -3.5 36.5 -12.5s15.833 -20.5 16.5 -34.5s-3.5 -26.167 -12.5 -36.5s-20.5 -15.833 -34.5 -16.5
c-28 -1.33301 -75 -5 -141 -11c-63.333 -6.66699 -114 -10.667 -152 -12c-30.667 -1.33301 -83.334 -1.33301 -158.001 0c-66 1.33301 -116.333 0.333008 -151 -3c-14 -1.33301 -26.167 2.5 -36.5 11.5s-16.166 20.5 -17.499 34.5s2.5 26.167 11.5 36.5
s20.5 16.166 34.5 17.499zM114.997 147.003c57.333 0.666992 152.332 3.99902 284.999 9.99902s234.667 9 306 9c14 0 25.833 -4.83301 35.5 -14.5s14.5 -21.5 14.5 -35.5s-4.83301 -25.833 -14.5 -35.5s-21.5 -14.5 -35.5 -14.5c-71.333 0 -173.166 -3 -305.499 -9
s-226.833 -9.33301 -283.5 -10c-14 0 -26 4.83301 -36 14.5s-15 21.334 -15 35.001s4.83301 25.5 14.5 35.5s21.167 15 34.5 15z" />
    <glyph glyph-name="x" unicode="x" horiz-adv-x="947" 
d="M295 147c-15.333 -12 -43.6709 -36.6689 -85.0039 -74.002c-10.667 -9.33301 -22.834 -13.666 -36.501 -12.999s-25.167 6.16699 -34.5 16.5s-13.666 22.333 -12.999 36s6 25.167 16 34.5c36.667 33.333 61.334 55 74.001 65c-20 72 -15.333 131.667 14 179
c32.667 54 92.667 85.667 180 95c14.667 1.33301 31.667 2 51 2h21h23c30.667 0 55.334 3 74.001 9c26 9.33301 49 21.5 69 36.5s43 36.167 69 63.5v1c0 0.666992 0.333008 1.33398 1 2.00098l1 3c0.666992 1.33301 1.66699 3 3 5s3 4.66699 5 8
c20 34.667 46.333 46.334 79 35.001c20.667 -6.66699 33.667 -22.334 39 -47.001c2 -8.66699 3 -19.667 3 -33c0 -18 -1.33301 -42.333 -4 -73l-8 -74c-3.33301 -24.667 -5 -38 -5 -40c0 -2.66699 -0.5 -13 -1.5 -31s-2.16699 -31 -3.5 -39l-4 -35
c-2 -15.333 -4.66699 -29.333 -8 -42s-7.66602 -25 -12.999 -37c-18 -42 -43 -77.667 -75 -107s-67.167 -49.5 -105.5 -60.5s-77.166 -15 -116.499 -12s-77.5 15.5 -114.5 37.5s-68.5 51.667 -94.5 89zM304.995 274.998c42.667 24 87 39.665 133 46.998s98.667 11 158 11
c14 0 25.833 -4.83301 35.5 -14.5s14.5 -21.5 14.5 -35.5s-4.83301 -25.833 -14.5 -35.5s-21.5 -14.5 -35.5 -14.5c-47.333 0 -88 -2.16699 -122 -6.5s-65.333 -12.833 -94 -25.5c28.667 -40 65.167 -65.667 109.5 -77s87 -6.5 128 14.5s71.5 54.833 91.5 101.5
c3.33301 8 6.16602 16.167 8.49902 24.5s4.33301 18.5 6 30.5s2.83398 20.833 3.50098 26.5s1.5 17.334 2.5 35.001s1.5 28.834 1.5 33.501c0.666992 4 2.66699 19.667 6 47l5 44c-39.333 -35.333 -83 -61.333 -131 -78c-29.333 -10 -64.333 -15 -105 -15h-24h-21
c-16 0 -29.667 -0.666992 -41 -2c-54 -5.33301 -89 -21 -105 -47c-10 -16 -13.333 -37.333 -10 -64z" />
    <glyph glyph-name="y" unicode="y" horiz-adv-x="899" 
d="M279 350l0.998047 -3.99609c0.666992 -22.667 2.66699 -55.334 6 -98.001l12 -133h89c-2 46 -5 89.667 -9 131c-1.33301 13.333 2.5 25.333 11.5 36s20.333 16.667 34 18s25.834 -2.5 36.501 -11.5s16.667 -20.5 18 -34.5c3.33301 -42.667 6.33301 -89 9 -139
c26 0.666992 47.667 1 65 1c12 0.666992 21.667 1 29 1v1c2.66699 9.33301 4.33398 23.333 5.00098 42c0 10 -0.666992 28.667 -2 56s-2 43.666 -2 48.999s0.666992 19.333 2 42c1.33301 18 2 32.667 2 44c0 12 -1 21.667 -3 29
c-9.33301 -0.666992 -21.333 -1.33398 -36 -2.00098c-34.667 -2.66699 -76.667 -6.33398 -126 -11.001c-48.667 -5.33301 -90 -10.333 -124 -15zM392.998 608.004l-2.00098 -1.99902c-8 -8.66699 -18.667 -21.334 -32 -38.001l-92 -119l16 2c48.667 6 91.334 11 128.001 15
c50 5.33301 93 9 129 11l23 2l-25 24c-42 39.333 -77.667 68.333 -107 87c-15.333 9.33301 -28 15.333 -38 18zM36.9971 304.005c18.667 28.667 68.6699 97 150.003 205l94 121l35 42c5.33301 6 9.66602 10.667 12.999 14c8 7.33301 15.333 12.666 22 15.999
c35.333 15.333 79.666 6 132.999 -28c35.333 -22 76.333 -54.667 123 -98c35.333 -33.333 70.166 -69 104.499 -107s59.833 -67.667 76.5 -89c8.66699 -11.333 12.167 -23.833 10.5 -37.5s-8 -24.667 -19 -33s-23.333 -11.666 -37 -9.99902s-24.5 7.83398 -32.5 18.501
c-6 8 -14 17.667 -24 29c0 -12 -0.666992 -28 -2 -48s-2 -31.333 -2 -34c0 -3.33301 0.666992 -17.666 2 -42.999c2 -26 2.66699 -47.333 2 -64c-0.666992 -27.333 -3.66699 -50.333 -9 -69c-9.33301 -32 -26.333 -53.333 -51 -64c-5.33301 -2.66699 -12 -4.66699 -20 -6
c-4 -0.666992 -9 -1 -15 -1c-8.66699 -0.666992 -21 -1.33398 -37 -2.00098c-24 -0.666992 -58 -1 -102 -1h-170c-14.667 -0.666992 -27 4 -37 14c-12 1.33301 -22.333 6.5 -31 15.5s-13.334 19.833 -14.001 32.5c0 5.33301 -0.666992 15.666 -2 30.999l-6 64l-5 68
c-3.33301 38.667 -5.66602 69.667 -6.99902 93c-32 -44 -51.667 -71.667 -59 -83s-17.833 -18.5 -31.5 -21.5s-26.167 -0.833008 -37.5 6.5s-18.5 17.833 -21.5 31.5s-0.833008 26.167 6.5 37.5z" />
    <glyph glyph-name="z" unicode="z" horiz-adv-x="862" 
d="M51 532c85.333 7.33301 149.334 -6.33496 192.001 -41.002c22 -17.333 40 -39.666 54 -66.999s27 -61 39 -101c1.33301 -4.66699 3.33301 -16.334 6 -35.001c0.666992 -1.33301 1 -2.66602 1 -3.99902c3.33301 -2 8.66602 -4 15.999 -6h8
c7.33301 -0.666992 17.333 -1 30 -1c25.333 -0.666992 55 -1 89 -1h87c6 0.666992 11.333 1 16 1l5 11c7.33301 16.667 16.666 39.667 27.999 69c8 20.667 17 45.334 27 74.001l16 46c5.33301 12.667 14.333 21.834 27 27.501s25.334 6 38.001 1
s21.834 -13.833 27.501 -26.5s6.16699 -25.334 1.5 -38.001c-1.33301 -2 -7 -17 -17 -45l-26 -74c-12 -30.667 -22.333 -56 -31 -76c-5.33301 -12 -10.333 -21.667 -15 -29c-8 -14 -17 -24 -27 -30c-5.33301 -3.33301 -11 -5.66602 -17 -6.99902
c-2.66699 -0.666992 -5 -1.33398 -7 -2.00098h-12c-8 -0.666992 -18.667 -1.33398 -32 -2.00098h-89c-34.667 0 -65 0.333008 -91 1c-13.333 0 -24.333 0.333008 -33 1c-12 0.666992 -20.333 1.66699 -25 3c-34 8 -59 22.667 -75 44
c-9.33301 12.667 -15.666 28.667 -18.999 48c-2 14 -3 21.333 -3 22c-18.667 62 -38.334 101.333 -59.001 118c-22.667 18 -63.334 24.333 -122.001 19c-13.333 -1.33301 -25.333 2.5 -36 11.5s-16.667 20.333 -18 34s2.5 25.834 11.5 36.501s20.5 16.667 34.5 18z
M431.001 404.999l94 -3c13.333 -0.666992 24.833 -6 34.5 -16s14.167 -21.833 13.5 -35.5s-6 -25.334 -16 -35.001s-22 -14.167 -36 -13.5l-94 3c-13.333 0.666992 -24.833 6 -34.5 16s-14.167 21.833 -13.5 35.5s6 25.334 16 35.001s22 14.167 36 13.5zM372.001 540.999
c89.333 -5.33301 158 -8 206 -8c14 0 25.833 -4.83301 35.5 -14.5s14.5 -21.5 14.5 -35.5s-4.83301 -25.833 -14.5 -35.5s-21.5 -14.5 -35.5 -14.5c-49.333 0 -120 2.66699 -212 8c-14 0.666992 -25.5 6.16699 -34.5 16.5s-13.167 22.5 -12.5 36.5s6.16699 25.5 16.5 34.5
s22.5 13.167 36.5 12.5zM409.001 145.999c10 -9.33301 15 -21 15 -35s-4.83301 -25.833 -14.5 -35.5s-21.5 -14.5 -35.5 -14.5s-25.833 4.83301 -35.5 14.5s-14.5 21.5 -14.5 35.5s4.83301 25.833 14.5 35.5s21.5 14.5 35.5 14.5s25.667 -5 35 -15zM616.001 142.999
c10 -9.33301 15 -21 15 -35s-4.83301 -25.833 -14.5 -35.5s-21.5 -14.5 -35.5 -14.5s-25.833 4.83301 -35.5 14.5s-14.5 21.5 -14.5 35.5s4.83301 25.833 14.5 35.5s21.5 14.5 35.5 14.5s25.667 -5 35 -15z" />
    <glyph glyph-name="braceleft" unicode="{" horiz-adv-x="1051" 
d="M376 45l-2.00098 1c0.666992 -0.666992 1.33398 -1 2.00098 -1zM644.999 229c-34.667 4.66699 -80.3359 5.99902 -137.003 3.99902c-75.333 -2.66699 -120.333 -4 -135 -4c0.666992 -37.333 2.33398 -72 5.00098 -104c2.66699 -28.667 6.33398 -52.667 11.001 -72l2 -8
h14c20 0 47.667 0.333008 83 1c16.667 0.666992 36.334 1.33398 59.001 2.00098s41.334 1.33398 56.001 2.00098s24.334 1 29.001 1c4 0 9 -0.333008 15 -1c1.33301 12.667 1.66602 29 0.999023 49c-0.666992 17.333 -1.83398 39.166 -3.50098 65.499s-2.5 41.5 -2.5 45.5
c0 6.66699 1 13 3 19zM766.997 525.999c11.333 -0.666992 21.6738 -1.33398 31.0068 -2.00098c28 -2 51.333 -6 70 -12c30.667 -10.667 52 -27.334 64 -50.001l5 -16c0.666992 -1.33301 1 -2.33301 1 -3v-2v-1v-2v-4v-12v-37v-54c0.666992 -18 4 -52.333 10 -103
c4.66699 -38.667 3 -67 -5 -85c-12.667 -30 -39.667 -48.333 -81 -55c-22.667 -4 -60.667 -5.66699 -114 -5c0 -20 -0.666992 -37 -2 -51c-0.666992 -12 -2.33398 -22.333 -5.00098 -31c-4.66699 -16.667 -12.334 -29.334 -23.001 -38.001
c-16.667 -14.667 -38.334 -20 -65.001 -16c-4 0.666992 -7.5 1.33398 -10.5 2.00098s-4.83301 1.16699 -5.5 1.5s-1.33398 0.5 -2.00098 0.5h-3c-4.66699 0 -14 -0.333008 -28 -1s-32.167 -1.33398 -54.5 -2.00098s-41.833 -1.33398 -58.5 -2.00098
c-36 -0.666992 -64.333 -1 -85 -1h-32c-4.66699 0.666992 -9 1 -13 1c-8.66699 1.33301 -16 3.66602 -22 6.99902c-14 8 -25 20.333 -33 37c-5.33301 10.667 -10 23.667 -14 39c-4.66699 18.667 -8.33398 41.667 -11.001 69
c-2.66699 -0.666992 -6.83398 -1.16699 -12.501 -1.5s-9.83398 -0.833008 -12.501 -1.5c-19.333 -1.33301 -35.666 -1.66602 -48.999 -0.999023c-54.667 2.66699 -91.334 23.334 -110.001 62.001l-5 15v4v4v8c-0.666992 6 -1 14.667 -1 26v75c0 30 0.333008 55.667 1 77v27
c0.666992 10 1.33398 17.333 2.00098 22c8.66699 40 24 67 46 81c3.33301 2 6.83301 3.66699 10.5 5s6.5 2.33301 8.5 3h3c2 0.666992 5 1 9 1c4.66699 0.666992 11 1 19 1c12 0.666992 29.333 1.33398 52 2.00098h8c-3.33301 24.667 -6 45.334 -8 62.001
c-2.66699 22.667 -4.33398 41.334 -5.00098 56.001v26c1.33301 12.667 4.33301 23.334 9 32.001c12.667 22.667 37.667 39 75 49c5.33301 1.33301 15 2.66602 29 3.99902c10 0.666992 23.333 1.33398 40 2.00098c31.333 0.666992 69 1.66699 113 3
c43.333 0.666992 80.333 1 111 1h38c5.33301 0 9.33301 -0.333008 12 -1h7c7.33301 -0.666992 14 -3 20 -7c32.667 -18.667 54 -55 64 -109c2.66699 -12.667 5 -30 7 -52c2 -20.667 3.33301 -33.334 4 -38.001c0.666992 -2.66699 1 -5.66699 1 -9zM337.005 626.999
c0.666992 -12 2 -27.666 4 -46.999c2 -16.667 5 -37.667 9 -63c87.333 -0.666992 153 0.333008 197 3c12 0.666992 38 3 78 7c15.333 1.33301 29 2.66602 41 3.99902c-0.666992 6 -1.66699 16.667 -3 32c-2 18 -4 32.333 -6 43c-3.33301 16 -7.33301 28 -12 36h-31
c-30 0 -66.333 -0.333008 -109 -1c-43.333 -1.33301 -80.333 -2.33301 -111 -3c-16 -0.666992 -28.667 -1.33398 -38 -2.00098c-4.66699 0 -8 -0.666992 -10 -2c-3.33301 -3.33301 -6.33301 -5.66602 -9 -6.99902zM345.005 330
c20.667 -1.33301 73.9971 -0.326172 159.997 3.00684c70.667 2.66699 129 -0.333008 175 -9c13.333 -2 24 -8.66699 32 -20s10.667 -24 8 -38c-0.666992 -4 -1.66699 -7.66699 -3 -11c16 -10 24.333 -24.333 25 -43c0 -4.66699 0.666992 -14.334 2 -29.001
c50.667 -0.666992 84.667 0.333008 102 3c2 0.666992 3.66699 1 5 1c0 7.33301 -0.666992 17 -2 29c-6.66699 50.667 -10.334 87.667 -11.001 111v59v30l-2 1c-10.667 3.33301 -26 6 -46 8c-15.333 0.666992 -34.333 1 -57 1c-6 0 -14.667 -0.166992 -26 -0.5
s-19 -0.5 -23 -0.5c-8 0 -15.333 1.66699 -22 5c-6.66699 -0.666992 -15.667 -1.33398 -27 -2.00098c-40.667 -4.66699 -68 -7.33398 -82 -8.00098c-46 -2.66699 -111.667 -3.66699 -197 -3c-6.66699 -4.66699 -14 -7.33398 -22 -8.00098
c-5.33301 0 -35.333 -0.666992 -90 -2c-21.333 -0.666992 -37.666 -1.33398 -48.999 -2.00098c-0.666992 -2.66699 -1.66699 -6 -3 -10v-6v-26c-0.666992 -20.667 -1 -45.667 -1 -75v-75v-16c4.66699 -1.33301 11.667 -2.33301 21 -3c8 -0.666992 20 -0.333984 36 0.999023
c16.667 1.33301 25.334 2 26.001 2c-1.33301 26 -1.66602 48 -0.999023 66c0.666992 19.333 9.33398 33.666 26.001 42.999c10.667 17.333 26 25.333 46 24z" />
    <glyph glyph-name="bar" unicode="|" horiz-adv-x="792" 
d="M398 403l-0.00292969 -9.00195c-0.666992 -20 -2 -46.333 -4 -79l-4 -77c-0.666992 -19.333 0.333008 -41.166 3 -65.499s7.33398 -46.5 14.001 -66.5c8 -23.333 19 -40.333 33 -51s28.333 -16.334 43 -17.001c14 0 27.833 5.33301 41.5 16s24.5 28 32.5 52
c4 12.667 7 49.334 9 110.001c0.666992 13.333 6 24.833 16 34.5s21.833 14.167 35.5 13.5s25.334 -6 35.001 -16s14.167 -22 13.5 -36c0 -0.666992 -0.166992 -7.5 -0.5 -20.5s-0.666016 -22.833 -0.999023 -29.5s-1 -16 -2 -28s-2.5 -23 -4.5 -33s-4.33301 -19 -7 -27
c-14 -42.667 -36.333 -76 -67 -100s-64.667 -36 -102 -36c-37.333 0.666992 -71.333 13 -102 37s-53 56.333 -67 97c-11.333 32.667 -18.333 66.667 -21 102s-2.33398 79.833 0.999023 133.5s5 83.167 5 88.5c0.666992 25.333 1.5 72.333 2.5 141s1.83301 121.667 2.5 159
c0 14 5 25.667 15 35s22 14 36 14s25.667 -5 35 -15s14 -22 14 -36c-0.666992 -38 -1.66699 -101.667 -3 -191c66.667 0 146.667 1.66699 240 5c14 0.666992 26 -3.66602 36 -12.999s15.333 -21 16 -35s-3.66602 -26 -12.999 -36s-21 -15.333 -35 -16
c-94 -3.33301 -176 -5 -246 -5z" />
    <glyph glyph-name="braceright" unicode="}" 
d="M648 589l-2 0.000976562c-10.667 0.666992 -27 -0.666016 -49 -3.99902c-30.667 -4.66699 -51.334 -7.33398 -62.001 -8.00098c-69.333 -4 -152.333 -7 -249 -9c-6 -98.667 -9 -197 -9 -295c0 -9.33301 -0.666992 -20.333 -2 -33c0 -0.666992 -0.333008 -4.5 -1 -11.5
s-1 -12.167 -1 -15.5c-1.33301 -16.667 -0.666016 -29 2.00098 -37c0.666992 -4 2 -7.33301 4 -10c7.33301 0 18.333 0.333008 33 1l101 7c108.667 9.33301 174.667 13 198 11c22 -2 40.667 -4.33301 56 -7c4 0 8.33301 -0.666992 13 -2v4
c1.33301 22.667 -0.666992 54 -6 94c-3.33301 26 -9 61 -17 105c-7.33301 40.667 -11.333 66 -12 76c-2.66699 37.333 -2.66699 76.666 0 117.999c0.666992 4.66699 1.66699 10 3 16zM234 661.001c7.33301 4 15.002 5.99609 23.002 5.99609c108 2 198.667 5.33301 272 10
c7.33301 0.666992 25.333 3 54 7c26.667 4 49 5.66699 67 5h12c8.66699 0 15.667 -0.333008 21 -1c27.333 -2.66699 47.5 -13.667 60.5 -33s15.5 -42.666 7.5 -69.999c-2.66699 -7.33301 -4.66699 -12.666 -6 -15.999v-2c-2.66699 -37.333 -2.66699 -72.666 0 -105.999
c0.666992 -6 4 -27.667 10 -65c8.66699 -44.667 14.667 -81 18 -109c6 -46.667 8.33301 -84 7 -112c-0.666992 -19.333 -3.33398 -36 -8.00098 -50c-7.33301 -22.667 -20 -39 -38 -49c-18.667 -10 -40.334 -11 -65.001 -3l-9 3c-2.66699 1.33301 -4.33398 2 -5.00098 2l-1 1
l-1 1c-14 2 -30.667 3.66699 -50 5c-16.667 2 -77 -1.33301 -181 -10c-48.667 -4 -84 -6.66699 -106 -8c-16 -0.666992 -29.333 -1 -40 -1c-16.667 0.666992 -29.667 3 -39 7c-26.667 12 -46 36.333 -58 73c-6 20 -8 44.667 -6 74c0 0.666992 1 10.334 3 29.001
c0.666992 10 1 18 1 24c0 112.667 4 226.667 12 342c0.666992 12 5.33398 22.333 14.001 31s19 13.667 31 15zM505.002 477.997c0 -13.333 0.668945 -27.999 2.00195 -43.999c23.333 0.666992 45 1 65 1c14 0 25.833 -4.83301 35.5 -14.5s14.5 -21.5 14.5 -35.5
s-4.83301 -25.833 -14.5 -35.5s-21.5 -14.5 -35.5 -14.5c-16.667 0 -34.334 -0.333008 -53.001 -1c3.33301 -25.333 5.33301 -47 6 -65c0.666992 -14 -3.66602 -26 -12.999 -36s-21 -15.333 -35 -16s-26 3.66602 -36 12.999s-15.333 21 -16 35
c-0.666992 18.667 -2.66699 40.334 -6 65.001l-50 -3c-14 -0.666992 -26.167 3.66602 -36.5 12.999s-15.833 20.833 -16.5 34.5s3.66602 25.667 12.999 36s20.666 15.833 33.999 16.5l44 2c-1.33301 18 -2 35 -2 51c0 14 5 25.667 15 35s22 14 36 14s25.667 -5 35 -15
s14 -22 14 -36z" />
    <glyph glyph-name="asciitilde" unicode="~" 
d="M648 589l-2 0.000976562c-10.667 0.666992 -27 -0.666016 -49 -3.99902c-30.667 -4.66699 -51.334 -7.33398 -62.001 -8.00098c-69.333 -4 -152.333 -7 -249 -9c-6 -98.667 -9 -197 -9 -295c0 -9.33301 -0.666992 -20.333 -2 -33c0 -0.666992 -0.333008 -4.5 -1 -11.5
s-1 -12.167 -1 -15.5c-1.33301 -16.667 -0.666016 -29 2.00098 -37c0.666992 -4 2 -7.33301 4 -10c7.33301 0 18.333 0.333008 33 1l101 7c108.667 9.33301 174.667 13 198 11c22 -2 40.667 -4.33301 56 -7c4 0 8.33301 -0.666992 13 -2v4
c1.33301 22.667 -0.666992 54 -6 94c-3.33301 26 -9 61 -17 105c-7.33301 40.667 -11.333 66 -12 76c-2.66699 37.333 -2.66699 76.666 0 117.999c0.666992 4.66699 1.66699 10 3 16zM234 661.001c7.33301 4 15.002 5.99609 23.002 5.99609c108 2 198.667 5.33301 272 10
c7.33301 0.666992 25.333 3 54 7c26.667 4 49 5.66699 67 5h12c8.66699 0 15.667 -0.333008 21 -1c27.333 -2.66699 47.5 -13.667 60.5 -33s15.5 -42.666 7.5 -69.999c-2.66699 -7.33301 -4.66699 -12.666 -6 -15.999v-2c-2.66699 -37.333 -2.66699 -72.666 0 -105.999
c0.666992 -6 4 -27.667 10 -65c8.66699 -44.667 14.667 -81 18 -109c6 -46.667 8.33301 -84 7 -112c-0.666992 -19.333 -3.33398 -36 -8.00098 -50c-7.33301 -22.667 -20 -39 -38 -49c-18.667 -10 -40.334 -11 -65.001 -3l-9 3c-2.66699 1.33301 -4.33398 2 -5.00098 2l-1 1
l-1 1c-14 2 -30.667 3.66699 -50 5c-16.667 2 -77 -1.33301 -181 -10c-48.667 -4 -84 -6.66699 -106 -8c-16 -0.666992 -29.333 -1 -40 -1c-16.667 0.666992 -29.667 3 -39 7c-26.667 12 -46 36.333 -58 73c-6 20 -8 44.667 -6 74c0 0.666992 1 10.334 3 29.001
c0.666992 10 1 18 1 24c0 112.667 4 226.667 12 342c0.666992 12 5.33398 22.333 14.001 31s19 13.667 31 15zM363.002 426.997c103.333 5.33301 173.002 8.00098 209.002 8.00098c14 0 25.833 -4.83301 35.5 -14.5s14.5 -21.5 14.5 -35.5s-4.83301 -25.833 -14.5 -35.5
s-21.5 -14.5 -35.5 -14.5c-23.333 0 -91 -2.66699 -203 -8c-14 -0.666992 -26.167 3.66602 -36.5 12.999s-15.833 20.833 -16.5 34.5s3.66602 25.667 12.999 36s20.666 15.833 33.999 16.5z" />
    <glyph glyph-name="quoteleft" unicode="&#x2018;" horiz-adv-x="873" 
d="M62 397l99.0068 74.998c11.333 8 23.666 10.833 36.999 8.5s24.333 -9.16602 33 -20.499c6 -8.66699 9 -18.334 9 -29.001s-3 -20.334 -9 -29.001c26 0 66.333 -0.333008 121 -1c-3.33301 42.667 -5.33301 82 -6 118c-8.66699 -7.33301 -18.334 -11.333 -29.001 -12
s-21 2 -31 8c-11.333 7.33301 -18.5 17.666 -21.5 30.999s-0.833008 26 6.5 38l17 27c6 9.33301 9.33301 14.666 10 15.999s3 4.83301 7 10.5s6.5 9 7.5 10s5.16699 5.83301 12.5 14.5l21 24c6 6.66699 13.333 11.334 22 14.001c4 10 10.667 18 20 24
c12 7.33301 24.667 9.16602 38 5.49902s23.666 -11.167 30.999 -22.5l14 -23c4.66699 -8 7.16699 -12.667 7.5 -14s1.83301 -4 4.5 -8l5 -7l10 -13l17 -23c8 -11.333 10.833 -23.833 8.5 -37.5s-9.16602 -24.5 -20.499 -32.5c-8.66699 -6 -18.5 -9 -29.5 -9
s-20.5 3.33301 -28.5 10c0.666992 -44.667 3 -94.667 7 -150c72.667 0.666992 134.667 4.33398 186 11.001l-12 12c-10 9.33301 -15 21 -15 35s4.83301 25.833 14.5 35.5s21.5 14.5 35.5 14.5s25.667 -5 35 -15l47 -47c14 -13.333 18.333 -29.333 13 -48l2 -1
c10 -10 15 -21.833 15 -35.5s-4.66699 -25.5 -14 -35.5l-23 -23l-13 -13c-1.33301 -1.33301 -3.83301 -4 -7.5 -8s-5.83398 -6.66699 -6.50098 -8s-4.33398 -6 -11.001 -14l-20 -25c-8.66699 -10.667 -19.834 -16.667 -33.501 -18s-26 2.33398 -37 11.001
s-17.167 19.834 -18.5 33.501s2.33398 26.167 11.001 37.5l7 8c-42.667 -4 -91.667 -6.33301 -147 -7l9 -102c17.333 14 36 15.667 56 5c12 -6.66699 20 -16.667 24 -30s2.66699 -26 -4 -38l-24 -41c-4 -7.33301 -6.33301 -12 -7 -14c-0.666992 -0.666992 -1 -1.5 -1 -2.5
s-0.333008 -2.66699 -1 -5s-1.33398 -4.83301 -2.00098 -7.5s-2 -7.33398 -4 -14.001l-6 -21c-3.33301 -12 -9.66602 -21.333 -18.999 -28c-9.33301 -8 -20.166 -12.333 -32.499 -13s-23.166 3 -32.499 11l-24 20c-8.66699 6.66699 -14 10.667 -16 12s-4.66699 3.33301 -8 6
l-10 7l-12 8l-24 15l-36 23c-12 7.33301 -19.333 17.833 -22 31.5s-0.333984 26.334 6.99902 38.001s17.833 18.834 31.5 21.501s26.167 0.333984 37.5 -6.99902l32 -21c-1.33301 19.333 -3.5 47.333 -6.5 84s-4.83301 57.667 -5.5 63c-67.333 0.666992 -115.333 1 -144 1
c6.66699 -14 7 -28 1 -42c-5.33301 -12.667 -14.333 -21.667 -27 -27s-25.334 -5.33301 -38.001 0l-25 11l-17 6.5c-2.66699 1 -5.83398 2.33301 -9.50098 4s-6.83398 3.33398 -9.50098 5.00098l-9 5.5l-18 10l-25 15c-12 6.66699 -19.833 16.667 -23.5 30
s-1.83398 26 5.49902 38c6 11.333 15 18.666 27 21.999c3.33301 7.33301 8 13 14 17z" />
    <glyph glyph-name="quoteright" unicode="&#x2019;" horiz-adv-x="801" 
d="M432 207c-20.667 -6.66699 -42.3301 -10.6689 -64.9971 -12.002c-78 -4 -141.667 14 -191 54c-36.667 30.667 -61.667 68.167 -75 112.5s-16 87.5 -8 129.5s24 80.667 48 116c39.333 60 90.333 97 153 111c45.333 10.667 91 7.33398 137 -9.99902
c6 -0.666992 11.667 -2 17 -4c0.666992 -0.666992 5.5 -2.66699 14.5 -6s18 -7 27 -11s16.5 -8.33301 22.5 -13c34 -22.667 60.5 -51 79.5 -85s29 -68 30 -102s-3.16699 -68.333 -12.5 -103c-17.333 -51.333 -46.333 -94 -87 -128c71.333 -88.667 128.333 -165.667 171 -231
c7.33301 -11.333 9.66602 -23.833 6.99902 -37.5s-9.83398 -24.167 -21.501 -31.5s-24.334 -9.66602 -38.001 -6.99902s-24.167 10 -31.5 22c-42 64 -101 142.667 -177 236zM306.004 420.998l-33 -0.000976562c-14 0 -25.667 5 -35 15s-14 22 -14 36s5 25.667 15 35
s22 14 36 14h30v22c0 14 4.66699 26 14 36s21 15 35 15s26 -4.66699 36 -14s15 -21 15 -35v-26c12.667 0 24.334 -0.333008 35.001 -1c14 -0.666992 25.667 -6 35 -16s13.666 -22 12.999 -36s-6 -25.667 -16 -35s-22 -13.666 -36 -12.999c-9.33301 0.666992 -19.333 1 -30 1
v-35c0 -14 -4.83301 -25.833 -14.5 -35.5s-21.5 -14.5 -35.5 -14.5s-25.833 4.83301 -35.5 14.5s-14.5 21.5 -14.5 35.5v18v19zM449.004 584.997c-46 33.333 -89.999 45.334 -131.999 36.001c-37.333 -8.66699 -68.333 -31.667 -93 -69
c-26 -37.333 -37.667 -77.833 -35 -121.5s19.667 -78.167 51 -103.5c28.667 -24 69 -34.667 121 -32c36 2 67.667 14.167 95 36.5s46.666 50.166 57.999 83.499c10 28 11.833 56.667 5.5 86s-20.833 54.333 -43.5 75c-10 0.666992 -19 3.66699 -27 9z" />
    <glyph glyph-name="quotedblleft" unicode="&#x201c;" horiz-adv-x="943" 
d="M442 408c-2.66699 -4 -46.668 -63.3271 -132.001 -177.994l-76 -102l-21 -30c2 -5.33301 4.33301 -10.666 7 -15.999l1 2l85 99l139 172c8 10 18.333 16 31 18c10 11.333 22.333 17 37 17c26.667 0 45.834 0.166992 57.501 0.5s27.334 1.33301 47.001 3
s34.834 4.5 45.501 8.5s21.834 9.66699 33.501 17s21.834 16.666 30.501 27.999s14 21.666 16 30.999c0 1.33301 -0.166992 4 -0.5 8s-0.833008 8.33301 -1.5 13c-1.33301 10.667 -3.33301 22 -6 34c-7.33301 -10 -14.333 -18.333 -21 -25
c-0.666992 0 -2.33398 -1.33301 -5.00098 -4s-4.83398 -4.66699 -6.50098 -6s-4.16699 -3.5 -7.5 -6.5s-6.33301 -5.5 -9 -7.5l-10 -6c-4 -2.66699 -7.83301 -4.83398 -11.5 -6.50098s-7.66699 -3.33398 -12 -5.00098s-9 -3 -14 -4s-9.83301 -1.5 -14.5 -1.5
c-14 -0.666992 -30.333 2.66602 -49 9.99902c-14 6 -28.667 13.667 -44 23c-16 10 -29.667 20.333 -41 31c-16.667 15.333 -27.667 30.666 -33 45.999c-2.66699 10 -3 21.667 -1 35c1.33301 7.33301 3.33301 15.666 6 24.999s7 21 13 35
c-8.66699 -2.66699 -16.334 -6 -23.001 -10c-24 -13.333 -42.667 -27.833 -56 -43.5s-21.333 -30.5 -24 -44.5c-4.66699 -28 13.666 -53 54.999 -75c12 -6 20.167 -15.333 24.5 -28s3.83301 -25 -1.5 -37c-1.33301 -7.33301 -4 -14 -8 -20zM600.999 704.006
c0 -0.666992 -0.670898 -2.16797 -2.00391 -4.50098s-3 -5.5 -5 -9.5s-4 -8.5 -6 -13.5s-4.5 -10.5 -7.5 -16.5s-5.5 -12 -7.5 -18c-7.33301 -16.667 -12.666 -30.334 -15.999 -41.001v-2v-1c6.66699 -6 15.334 -12.333 26.001 -19c10 -6 19.667 -11 29 -15
c3.33301 -1.33301 6.33301 -2.33301 9 -3c4 2 12.333 9 25 21c5.33301 4.66699 13 19 23 43l12 29c2.66699 6 4.66699 10.667 6 14c2.66699 4 5.33398 7.66699 8.00098 11c12 14 27 20 45 18c16.667 -2 31 -10.333 43 -25c6.66699 -7.33301 13 -16.666 19 -27.999
c8.66699 -17.333 16.667 -38.666 24 -63.999c6 -22.667 10.667 -44.667 14 -66c4 -26.667 4 -47 0 -61c-5.33301 -21.333 -16.333 -43.333 -33 -66c-12 -16 -25.833 -30.167 -41.5 -42.5s-31.667 -21.833 -48 -28.5s-33.5 -12.167 -51.5 -16.5s-35.333 -6.83301 -52 -7.5
l-49 -2c-16.667 -0.666992 -31.334 -0.666992 -44.001 0l-138 -170l-87 -103c-13.333 -14.667 -24.333 -26.334 -33 -35.001c-5.33301 -5.33301 -10 -9.33301 -14 -12c-3.33301 -2.66699 -6.66602 -5 -9.99902 -7c-9.33301 -5.33301 -19 -7.66602 -29 -6.99902
c-14 0.666992 -27 6.33398 -39 17.001c-4.66699 5.33301 -9.66699 11.666 -15 18.999c-7.33301 10 -14.666 23 -21.999 39c-6.66699 12.667 -12 25 -16 37c-2.66699 6 -4.66699 11.333 -6 16c-2.66699 10 -3.66699 18.667 -3 26c1.33301 8 4.33301 16.667 9 26
c2.66699 3.33301 5.66699 8 9 14l26 36l77 104l107 143c-52.667 42.667 -73.667 93.334 -63 152.001c5.33301 32 19.666 61.667 42.999 89s52.333 50.666 87 69.999c7.33301 4 15 7.66699 23 11s17 6.33301 27 9s17.833 4.83398 23.5 6.50098s13.834 3.66699 24.501 6
s17 3.83301 19 4.5c13.333 3.33301 26 1 38 -7c6 -0.666992 11.333 -2 16 -4c12.667 -6 21.5 -15.333 26.5 -28s4.83301 -25.334 -0.5 -38.001z" />
    <glyph glyph-name="quotedblright" unicode="&#x201d;" horiz-adv-x="959" 
d="M391 428c-72.667 2.66699 -144 6.66602 -214 11.999c-2 -78.667 -3 -132.667 -3 -162c-0.666992 -46.667 0.333008 -84.667 3 -114c1.33301 -26.667 3.66602 -44.667 6.99902 -54c2.66699 -2 7.66699 -4 15 -6c14.667 -4 35 -6 61 -6c19.333 0 45 1 77 3
c25.333 2 40.666 3 45.999 3c-13.333 6 -26 13.333 -38 22c-27.333 18.667 -45.333 38.334 -54 59.001c-17.333 40.667 -13.666 88.334 11.001 143.001c22.667 49.333 52.334 82.666 89.001 99.999zM753 518.999c26 -8 45.332 -20.998 57.999 -38.998
c2 -3.33301 3.66699 -6.5 5 -9.5s2 -5.16699 2 -6.5l1 -3c0.666992 -1.33301 1 -3 1 -5s0.333008 -4.33301 1 -7c0.666992 -4.66699 1 -11 1 -19c1.33301 -11.333 2.66602 -29 3.99902 -53c3.33301 -54.667 5 -82.334 5 -83.001c0 -2.66699 5.33301 -32.334 16 -89.001
c9.33301 -50.667 13.333 -84.334 12 -101.001c-4.66699 -36.667 -20.667 -63.667 -48 -81c-9.33301 -5.33301 -23.333 -9.33301 -42 -12c-11.333 -1.33301 -26.333 -2.66602 -45 -3.99902c-30 -1.33301 -70.333 -2.33301 -121 -3c-33.333 0 -74 0.166992 -122 0.5
s-74.333 0.5 -79 0.5c-5.33301 0 -24.666 -1.33301 -57.999 -4c-34.667 -2 -62.667 -3 -84 -3c-35.333 0 -64.333 3.33301 -87 10c-37.333 10 -63 28.333 -77 55c-10 18 -16.333 49.333 -19 94c-2.66699 31.333 -3.66699 72 -3 122c0 31.333 0.666992 71.333 2 120
s2 77.334 2 86.001c0 13.333 4.66699 24.833 14 34.5s20.333 14.834 33 15.501c9.33301 5.33301 19.333 7.66602 30 6.99902c114.667 -9.33301 231.667 -15 351 -17l-2 7c-7.33301 23.333 -6.66602 44.166 2.00098 62.499s26.667 32.166 54 41.499c14.667 6 33 10.333 55 13
c20.667 2.66699 39 3.66699 55 3c26 -1.33301 45.667 -7.66602 59 -18.999c14.667 -13.333 23.667 -31.666 27 -54.999c0.666992 -4 1 -7.33301 1 -10v-6c0 -0.666992 0.166992 -1.33398 0.5 -2.00098s0.5 -1.66699 0.5 -3c4 -13.333 2.33301 -26 -5 -38zM454.999 339.001
c-11.333 0 -17.999 -0.331055 -19.999 -0.998047c-6 -2.66699 -13 -8.5 -21 -17.5s-15 -20.167 -21 -33.5c-12.667 -27.333 -16 -48 -10 -62c2.66699 -4 9 -9.66699 19 -17c12.667 -8.66699 23.667 -14.334 33 -17.001c28.667 -8 52.834 -7.33301 72.501 2
s33.5 23.666 41.5 42.999c8 17.333 9.16699 34.666 3.5 51.999s-17.834 30.333 -36.501 39c-1.33301 0 -4.33301 0.333008 -9 1h-4c-1.33301 0 -2.83301 0.166992 -4.5 0.5s-3.16699 0.5 -4.5 0.5c-6.66699 0 -12.334 0.666992 -17.001 2
c-8 0.666992 -15.333 3.33398 -22 8.00098zM558 417.003c23.333 -10.667 42.666 -24.833 57.999 -42.5s26 -36.5 32 -56.5s8.33301 -40.5 7 -61.5s-6 -41.167 -14 -60.5c-18 -41.333 -47.333 -72 -88 -92h50c48 0.666992 86.333 1.66699 115 3l38 3l2 1
c0.666992 1.33301 1 3 1 5c0.666992 6 -2.66602 29.333 -9.99902 70c-10.667 55.333 -16.667 88 -18 98c0 1.33301 -1.66699 30.333 -5 87l-3 52c-8.66699 2 -19.334 3.33301 -32.001 4c-11.333 0 -25.666 -0.333008 -42.999 -1c-22.667 -1.33301 -36 -2 -40 -2h-57
c2.66699 -2 5 -4.33301 7 -7zM605 546.004c2 -6.66699 3.33203 -11.999 3.99902 -15.999c0.666992 -2 1 -4 1 -6c1.33301 0 12 0.666992 32 2c7.33301 0 14.333 0.333008 21 1c-0.666992 1.33301 -1 2.66602 -1 3.99902c-1.33301 4.66699 -2.66602 11.667 -3.99902 21
c-9.33301 0 -19.333 -0.666992 -30 -2zM499.999 307.005c10 -9.33301 15 -21 15 -35s-4.83301 -25.833 -14.5 -35.5s-21.5 -14.5 -35.5 -14.5s-25.833 4.83301 -35.5 14.5s-14.5 21.5 -14.5 35.5s4.83301 25.833 14.5 35.5s21.5 14.5 35.5 14.5s25.667 -5 35 -15z" />
    <glyph glyph-name="uni3000" unicode="&#x3000;" horiz-adv-x="1000" 
 />
    <glyph glyph-name="NULL" horiz-adv-x="0" 
 />
    <glyph glyph-name="nonmarkingreturn" horiz-adv-x="333" 
 />
  </font>
</defs>
</svg>
